<?xml version="1.0" encoding="utf-8"?>
<!-- Generator: Adobe Illustrator 27.3.1, SVG Export Plug-In . SVG Version: 6.00 Build 0)  -->
<svg version="1.1" id="Layer_1" xmlns="http://www.w3.org/2000/svg" xmlns:xlink="http://www.w3.org/1999/xlink" x="0px" y="0px"
	 viewBox="0 0 65.91 66.92" style="enable-background:new 0 0 65.91 66.92;" xml:space="preserve">
<style type="text/css">
	.st0{fill:#210E3D;}
</style>
<g>
	<g>
		<path class="st0" d="M50.8,11.13c-2.36,0-4.25,1.89-4.25,4.26c0,2.36,1.89,4.25,4.25,4.25c2.35,0,4.27-1.89,4.27-4.25
			C55.08,13.03,53.15,11.13,50.8,11.13z"/>
		<path class="st0" d="M47.54,0H17.93c-0.1,0-0.23,0.02-0.33,0.02C7.77,0.44,0,8.49,0,18.39v30.57c0,0.13,0,0.23,0,0.34
			c0.39,9.61,8.2,17.32,17.86,17.6c0,0,0.04,0,0.07,0h0.07c0.13,0,0.26,0.02,0.39,0.02c0.1,0,0.23-0.02,0.36-0.02h28.43
			c0.13,0,0.23,0.02,0.36,0.02c9.89-0.02,17.96-7.82,18.35-17.62c0.03-0.11,0.03-0.21,0.03-0.34V18.39C65.91,8.23,57.69,0,47.54,0z
			 M59.88,48.17c0,0.12,0,0.23,0,0.36c0,3.41-1.37,6.49-3.59,8.74c-2.22,2.2-5.26,3.59-8.62,3.6c-0.07,0-0.1,0-0.13,0h-0.26
			c-0.16,0-0.33,0-0.46,0H18.02c-3.3-0.1-6.24-1.45-8.39-3.6c-2.26-2.25-3.63-5.33-3.63-8.74c0-0.5,0.03-0.98,0.09-1.47H6.01V18.39
			c0-3.41,1.37-6.5,3.63-8.75c2.18-2.19,5.19-3.56,8.52-3.61h28.76c0.23,0,0.43,0,0.62,0c3.42,0,6.49,1.38,8.75,3.61
			c2.22,2.25,3.59,5.34,3.59,8.75V48.17z"/>
		<path class="st0" d="M32.98,16.41c-9.47,0-17.08,7.63-17.08,17.04c0,9.42,7.61,17.06,17.08,17.06c9.4,0,17.04-7.64,17.04-17.06
			C50.01,24.03,42.38,16.41,32.98,16.41z M22.27,33.45c0-2.97,1.17-5.62,3.14-7.56c1.93-1.94,4.57-3.14,7.58-3.14
			c2.94,0,5.62,1.19,7.54,3.14c1.93,1.94,3.17,4.59,3.17,7.56c0,2.97-1.24,5.64-3.17,7.58c-1.92,1.94-4.6,3.12-7.54,3.14
			c-3-0.02-5.65-1.19-7.58-3.14C23.44,39.08,22.27,36.42,22.27,33.45"/>
	</g>
</g>
</svg>
