<?xml version="1.0" encoding="utf-8"?>
<!-- Generator: Adobe Illustrator 27.3.1, SVG Export Plug-In . SVG Version: 6.00 Build 0)  -->
<svg version="1.1" id="Layer_1" xmlns="http://www.w3.org/2000/svg" xmlns:xlink="http://www.w3.org/1999/xlink" x="0px" y="0px"
	 viewBox="0 0 90.38 66.28" style="enable-background:new 0 0 90.38 66.28;" xml:space="preserve">
<style type="text/css">
	.st0{fill:#1F113B;}
</style>
<g>
	<g>
		<path class="st0" d="M67.38,66.28H23.01C10.32,66.28,0,55.96,0,43.27V23.01C0,10.32,10.32,0,23.01,0h44.37
			c12.69,0,23.01,10.32,23.01,23.01v20.26C90.38,55.96,80.06,66.28,67.38,66.28z M23.01,6C13.63,6,6,13.63,6,23.01v20.26
			c0,9.38,7.63,17.01,17.01,17.01h44.37c9.38,0,17.01-7.63,17.01-17.01V23.01C84.38,13.63,76.75,6,67.38,6H23.01z"/>
	</g>
	<g>
		<polygon class="st0" points="34.36,20.63 58.57,33.14 34.36,45.64 		"/>
	</g>
</g>
</svg>
