<svg xmlns="http://www.w3.org/2000/svg" xml:space="preserve" width="1122.52" height="793.701"><defs><clipPath clipPathUnits="userSpaceOnUse" id="a"><path d="M0 595.276h841.89V0H0Z"/></clipPath></defs><path d="M0 0h-177.208v250.306H0V37.104Zm-360.417-24.266v250.307h177.209V-24.266Zm-183.208 297.984h177.209V23.412h-177.209ZM-680.755-.427h-46.078V249.879h177.208V-.427ZM0 277.145v-20.839h-177.208v20.839h-6v-45.104h-177.209v68.942h-6v-21.265h-177.208v22.946h-6v-46.785h-177.208v21.266h-6V-27.266h6v20.839h177.208v-21.329h6v45.168h177.208v-68.516h6v20.838h177.209v-20.838h6V-6H0v-21.266h6v304.411z" style="fill:#1e103b;fill-opacity:1;fill-rule:nonzero;stroke:none" transform="matrix(1.33333 0 0 -1.33333 1003.387 564.558)"/><g clip-path="url(#a)" transform="matrix(1.33333 0 0 -1.33333 0 793.701)"><path d="m0 0-.008-.063a5.363 5.363 0 0 0-.255-1.178c0-.002.002-.003.001-.006-.214-.863-.895-1.691-1.5-2.944s-.596-3.021-.596-3.021v-12.212a.807.807 0 0 0-.808-.807h-19.417a.805.805 0 0 0-.805.805v12.214s.008 1.768-.596 3.021c-.605 1.253-1.287 2.081-1.501 2.944 0 .003.002.004.001.006a5.36 5.36 0 0 0-.254 1.178l-.008.063c-.013.144-.02.288-.02.433 0 4.305 2.99 6.582 7.311 7.525 1.69.37 3.579.542 5.582.542 2.003 0 3.891-.172 5.581-.542C-2.971 7.015.019 4.738.019.433.019.288.013.144 0 0m-1.005 13.776c-1.866.409-3.942.624-6.163.663l-.434.01c-.086.001-.169.006-.256.006-.099 0-.193-.005-.29-.005l-4.515.001c-.071.001-.14.004-.211.004-.059 0-.115-.003-.175-.004l-.375-.009c-2.274-.031-4.397-.249-6.303-.666-7.622-1.665-11.994-6.528-11.994-13.343a11.29 11.29 0 0 1 .059-1.119l.011-.09c.078-.704.222-1.404.432-2.082.343-1.267.91-2.233 1.369-3.017.168-.285.316-.537.442-.783.031-.148.062-.408.065-.554v-12.212a6.762 6.762 0 0 1 6.762-6.762H1.852a6.76 6.76 0 0 1 6.759 6.76v12.179c.004.176.035.44.067.589.125.246.273.498.44.783.462.788 1.032 1.759 1.372 3.026a11.29 11.29 0 0 1 .499 3.282c0 6.815-4.372 11.678-11.994 13.343" style="fill:#1e103b;fill-opacity:1;fill-rule:nonzero;stroke:none" transform="translate(808.216 413.753)"/><path d="M0 0c0 1.208.002 2.396 0 3.583-.006 2.289-.024 4.577-.02 6.866.006 2.747.037 5.493.041 8.24.004 2.136-.026 4.272-.023 6.408.002 1.584.044 3.168.049 4.753.004 1.066-.032 2.133-.035 3.201-.007 2.194-.007 4.389-.003 6.584.002.944.027 1.888.03 2.833.003 1.186-.012 2.372-.005 3.558.006.946.043 1.89.046 2.834.002.456-.066.912-.065 1.369.004 1.433.033 2.867.038 4.3.004 1.646-.007 3.29-.012 4.936-.003.728-.012 1.456-.015 2.184-.002.454.062.9.048 1.361-.041 1.368.024 2.739.037 4.109.005.61-.022 1.221-.023 1.832-.001 1.066.01 2.132.009 3.198-.002 1.982-.02 3.963-.008 5.945.011 1.769.061 3.539.077 5.308.015 1.711.007 3.423.011 5.134l.022 7.695c.006 1.68.007 3.359.017 5.039.006 1.068.028 2.136.034 3.204.015 2.192.019 4.385.037 6.577.034 4.003.074 8.005.119 12.008.006.543.054 1.085.082 1.607.259.094.333-.083.422-.177 2.405-2.515 4.811-5.03 7.201-7.558a188.551 188.551 0 0 0 3.285-3.578c.691-.77 1.328-1.588 2.023-2.354.697-.768 1.425-1.504 2.017-2.36.046-.068.149-.098.23-.139.227-.117.277-.339.252-.547-.238-1.97-.077-3.952-.187-5.926-.067-1.212.021-2.432-.005-3.647-.018-.877.035-1.758-.099-2.632a2.004 2.004 0 0 1-.007-.458c.108-1.332.027-2.663.025-3.995 0-.574.01-1.148 0-1.721-.022-1.341-.069-2.681-.076-4.021-.005-.942.055-1.883.056-2.824.001-.823-.046-1.645-.058-2.467-.01-.762-.004-1.523-.002-2.284.003-2.375.05-4.752-.008-7.126-.023-.976.016-1.942.033-2.913.012-.662-.028-1.331-.055-1.995-.065-1.582.014-3.162.006-4.743-.013-2.283.025-4.566-.032-6.849-.011-.455.042-.91.058-1.364.007-.182.048-.389-.021-.544-.163-.369-.025-.718-.022-1.079.004-.698.014-1.395.022-2.094.013-1.269-.144-2.534-.031-3.81.071-.808-.054-1.632-.061-2.448-.011-1.09.006-2.18.013-3.27.001-.122.036-.246.021-.364-.073-.608-.032-1.212-.019-1.82.013-.574-.023-1.146.012-1.726.045-.726-.037-1.458-.064-2.187-.006-.154-.021-.306-.017-.458.059-2.282.002-4.564.008-6.846.002-.639-.055-1.278.045-1.913.005-.031.016-.063.011-.091-.265-1.483.086-2.978-.091-4.462-.021-.181-.052-.369-.026-.547.162-1.094.088-2.188.043-3.285-.011-.242.025-.488.059-.73.057-.397-.066-.716-.36-.984-.649-.594-1.229-1.262-1.866-1.859-.733-.688-1.393-1.462-2.161-2.09-.875-.715-1.541-1.641-2.469-2.286-.739-.968-1.845-1.574-2.541-2.584-.813-.555-1.372-1.374-2.098-2.014C2.771 2.454 1.725 1.272.544.229.432.131.303.05.179-.034.162-.046.124-.025 0 0" style="fill:#1e103b;fill-opacity:1;fill-rule:nonzero;stroke:none" transform="translate(72.917 234.7)"/><path d="m0 0-1.822-1.763c-.548-.53-1.096-1.059-1.642-1.59-.524-.508-1.041-1.023-1.569-1.528-.746-.714-1.5-1.42-2.251-2.13-.418-.395-.841-.785-1.251-1.189-.627-.618-1.234-1.256-1.866-1.867-1.158-1.121-2.328-2.228-3.492-3.341-.526-.505-.977-1.088-1.57-1.523-.092-.066-.188-.127-.271-.183-.211.166-.158.36-.154.529.031 1.187.089 2.371.104 3.558.01.819-.038 1.638-.054 2.458-.004.182.016.365.029.548.01.152.049.306.036.456-.163 1.857.08 3.711.041 5.567-.022 1.037-.08 2.073-.093 3.11-.009.761.029 1.524.04 2.285.016 1.038.03 2.075.037 3.112.001.151-.04.302-.063.452-.022.151-.09.311-.061.451.151.726.084 1.458.098 2.188.005.273.015.546.015.819.001 1.678.019 3.354-.01 5.031-.017 1.03.024 2.062-.062 3.092-.022.267.128.555.08.812-.137.731.036 1.452.011 2.177a69.81 69.81 0 0 0-.028 2.195c-.003 1.129-.003 2.259.008 3.388.019 1.801.102 3.602.056 5.4-.033 1.315.048 2.622.054 3.933.007 1.585-.04 3.171-.055 4.756-.003.365.049.732.047 1.097-.004 1.46-.028 2.921-.027 4.381 0 .852.062 1.705.042 2.556-.027 1.187.05 2.379-.031 3.558-.088 1.286-.014 2.559.012 3.838.016.819-.032 1.64-.046 2.46-.011.702-.021 1.404-.021 2.105-.001 1.128.014 2.255.01 3.382-.005 1.28-.028 2.56-.035 3.84-.007 1.13.011 2.26-.006 3.389-.025 1.613-.071 3.226-.108 4.839-.003.123 0 .245 0 .457.211.212.458.478.722.725 1.024.957 2.063 1.901 3.079 2.866a168.55 168.55 0 0 1 2.602 2.542c1.574 1.56 3.142 3.127 4.712 4.692.567.917 1.565 1.445 2.13 2.364.797.528 1.268 1.384 1.999 1.981.208.169.349.419.533.621.051.055.146.071.214.103.055-.064.121-.104.122-.145.005-.427.027-.857-.009-1.281-.161-1.886-.193-3.778-.162-5.667.03-1.886-.042-3.77-.017-5.656.029-2.256-.024-4.514.005-6.77.017-1.218-.065-2.435.025-3.658.057-.75-.036-1.517-.003-2.28.04-.914.008-1.83.001-2.745-.01-1.251-.038-2.501-.039-3.752-.001-1.704.02-3.408.025-5.113.004-1.645-.008-3.291.001-4.936.006-1.095.048-2.189.052-3.284.002-.638-.066-1.277-.055-1.915.025-1.369-.038-2.736-.037-4.105.001-1.341 0-2.683.002-4.025.001-1.098.057-2.199-.005-3.294-.059-1.063.051-2.121-.016-3.186-.067-1.061.028-2.131.025-3.198-.005-1.613-.042-3.225-.048-4.838-.005-1.184.021-2.369.025-3.553.005-1.494-.001-2.988.003-4.481.004-1.645.018-3.29.021-4.935C.041 9.114.031 8.047.027 6.979c-.001-.274-.021-.551.008-.823.096-.916-.001-1.828-.02-2.742C.003 2.866.003 2.319 0 1.771-.002 1.194 0 .617 0 0" style="fill:#1e103b;fill-opacity:1;fill-rule:nonzero;stroke:none" transform="translate(106.076 266.506)"/><path d="M0 0c-.685-.025-1.172-.049-1.659-.06A197.29 197.29 0 0 0-4.21-.104c-.305-.003-.611.042-.915.033-1.155-.033-2.31.049-3.466-.043-.663-.053-1.335.024-2.004.019-1.463-.011-2.926-.042-4.389-.054-.699-.006-1.399.019-2.099.015-1.43-.006-2.859-.067-4.29.014-.606.034-1.218-.037-1.827-.044-1.404-.017-2.809-.022-4.213-.034-1.709-.016-3.419-.044-5.128-.049-1.373-.003-2.746.029-4.119.03-1.708.001-3.416-.019-5.124-.022-.945-.001-1.891.033-2.836.019-.789-.01-1.578-.094-2.366-.098-.821-.004-1.641.049-2.462.078-.244.009-.494.062-.73.024-1.091-.176-2.183-.026-3.273-.043-2.317-.035-4.633.077-6.95-.027-.578-.026-1.157.007-1.736.013-.816.008-1.631.022-2.447.027-1.83.012-3.659.027-5.488.025-1.311-.001-2.623-.038-3.934-.038-1.37 0-2.739.026-4.109.037-.455.004-.91.001-1.462.001.097.206.126.362.219.45.615.589 1.246 1.162 1.867 1.745.154.145.286.314.433.468.378.399.753.799 1.139 1.19.682.691 1.37 1.378 2.057 2.065.064.066.129.13.2.188.452.365.812.823 1.221 1.224.735.721 1.394 1.526 2.22 2.153.121.092.251.181.348.297 1.245 1.469 2.737 2.693 4.058 4.087.357.375.707.757 1.058 1.139.144.157.274.329.424.481.519.523 1.085.743 1.879.648 1.207-.143 2.436-.098 3.656-.125.915-.02 1.83-.031 2.745-.043.702-.009 1.403-.005 2.104-.02.946-.02 1.891-.051 2.837-.08.153-.003.308-.038.457-.019.912.115 1.822.025 2.733 0 .914-.024 1.83.023 2.745.024.852.001 1.703-.028 2.555-.024 1.126.006 2.251.038 3.377.047.455.004.912-.034 1.367-.038 2.686-.022 5.372-.041 8.058-.057 1.86-.011 3.721.027 5.579-.037 1.004-.035 2.012.087 3.012-.086a.916.916 0 0 1 .365.013c.726.18 1.453.079 2.185.053.998-.034 1.999 0 2.998.042.342.014.592-.087.811-.325.082-.09.176-.171.252-.264 1.404-1.731 2.981-3.302 4.535-4.893.957-.98 1.937-1.937 2.908-2.904.087-.086.172-.174.265-.252.536-.447 1.048-.908 1.505-1.452.564-.669 1.262-1.225 1.901-1.831.133-.126.26-.257.386-.39.732-.768 1.458-1.54 2.196-2.302.169-.174.384-.302.562-.468C-.259.39-.19.26 0 0" style="fill:#1e103b;fill-opacity:1;fill-rule:nonzero;stroke:none" transform="translate(153.994 232.755)"/><path d="M0 0c.141-.187.304-.361.419-.562.969-1.695 1.932-3.395 2.893-5.095.555-.982 1.105-1.968 1.654-2.953.282-.506.557-1.015.829-1.526.602-1.13 1.197-2.264 1.799-3.393.818-1.534 1.626-3.074 2.469-4.595.414-.748.571-1.544.575-2.376.014-3.819.011-7.637.023-11.455.01-3.024.038-6.048.047-9.073.006-1.892-.017-3.784-.011-5.676.004-1.28.038-2.56.052-3.84.003-.304-.026-.607-.027-.911-.005-1.371-.009-2.743-.005-4.114.001-.487.037-.973.039-1.461.009-2.196.014-4.392.017-6.589.003-1.674.011-3.35.002-5.025-.007-1.158-.054-2.316-.055-3.475-.001-1.067.046-2.134.055-3.202.011-1.432.005-2.866.008-4.299.001-.412-.149-.723-.427-1.054-.629-.75-1.317-1.438-2.001-2.134-.662-.674-1.27-1.4-1.902-2.105-.061-.067-.117-.142-.184-.203-1.306-1.161-2.418-2.502-3.584-3.794-.694-.768-1.415-1.512-2.127-2.264-.057-.06-.141-.095-.266-.176-.051.137-.125.24-.125.345.009 2.105.078 4.213.018 6.317-.027.947.044 1.891-.003 2.832-.065 1.277.075 2.552-.023 3.831-.06.788.045 1.587.044 2.381-.002 1.923-.034 3.847-.032 5.769.001 1.862.042 3.723.044 5.584.001 1.557.014 3.115-.057 4.669-.051 1.098.061 2.189.012 3.285-.063 1.401.063 2.805-.065 4.21-.071.784.042 1.583.049 2.376.012 1.373.017 2.747.003 4.12-.011 1.094-.155 2.198-.052 3.279.087.918-.167 1.83.055 2.734a.2.2 0 0 1 0 .091c-.222.975.03 1.946.018 2.92-.013.977-.012 1.955-.022 2.933-.012 1.28-.037 2.56-.041 3.84-.002.853.039 1.706.031 2.558-.008 1.004-.058 2.007-.068 3.01-.006.516.056 1.034.049 1.55-.022 1.586.027 3.172-.065 4.758-.041.727.065 1.46.078 2.191.014.85.014 1.702-.1 2.548a.928.928 0 0 0 .006.364c.162.575.049 1.151.037 1.73-.018.909.014 1.82.021 2.73.002.244-.01.486-.014.729-.004.334-.005.669-.007 1.003-.004.579.001 1.157-.013 1.735A535.085 535.085 0 0 1-.055-.723c-.007.211-.053.421-.082.631L0 0" style="fill:#1e103b;fill-opacity:1;fill-rule:nonzero;stroke:none" transform="translate(107.755 359.656)"/><path d="M0 0c.002.285.182.42.333.553.826.722 1.581 1.517 2.347 2.301.403.412.749.88 1.251 1.194.149.092.243.267.367.401.329.357.599.776 1.059.997.106.051.19.151.275.238.812.825 1.62 1.653 2.433 2.477 1.004 1.02 2.006 2.041 3.018 3.053 1.204 1.203 2.418 2.398 3.627 3.597.022.021.051.039.065.064.384.704 1.045.723 1.731.731 1.217.016 2.433.072 3.651.088.851.012 1.702-.025 2.553-.018.488.003.975.07 1.462.074 1.465.012 2.931.003 4.395.007 1.77.006 3.54.019 5.309.023 1.161.003 2.321-.014 3.48-.009 1.191.005 2.381.035 3.571.04.975.002 1.95-.021 2.925-.021 2.288 0 4.576.005 6.864.012 2.131.007 4.261.031 6.391.024 1.403-.004 2.806-.047 4.208-.079.243-.006.485-.043.727-.071.021-.002.036-.046.054-.072-.01-.053-.001-.128-.033-.158-1.352-1.235-2.702-2.473-4.064-3.697-.726-.652-1.437-1.313-2.094-2.04-.385-.426-.875-.757-1.315-1.135-.716-.615-1.323-1.338-1.972-2.019-.314-.33-.686-.606-1.006-.932-.92-.934-1.801-1.902-2.773-2.787-.672-.612-1.279-1.298-1.9-1.966-.377-.406-.805-.589-1.376-.569-1.22.042-2.443.065-3.662.015-1.249-.051-2.493.003-3.738.019-.213.003-.426-.044-.639-.051-.395-.013-.79-.017-1.185-.016-.183.001-.371.055-.548.03-1.669-.238-3.35-.05-5.022-.148-.456-.026-.916.031-1.374.04-.579.012-1.158.023-1.737.023-1.86-.002-3.72-.007-5.579-.015-.794-.004-1.588-.023-2.382-.027-.855-.003-1.71.014-2.565.006-1.983-.019-3.965-.05-5.948-.069C9.606.094 8.027.103 6.449.079 5.02.059 3.591.008 2.162-.028 1.552-.043.941-.057.331-.062.22-.062.109-.021 0 0" style="fill:#1e103b;fill-opacity:1;fill-rule:nonzero;stroke:none" transform="translate(92.162 250.19)"/><path d="M0 0c1.452.016 2.885.045 4.319.044C7.403.04 10.488.024 13.572.005c1.22-.007 2.441-.045 3.661-.053.853-.005 1.707.022 2.561.027.701.004 1.402.002 2.103-.003 2.656-.023 5.311-.047 7.966-.074.214-.002.428-.009.641-.026.558-.044.528-.057.716-.616.144-.429.339-.851.579-1.233.316-.503.484-1.061.637-1.612.34-1.236.707-2.459 1.196-3.646.185-.45.301-.927.449-1.392l.401-1.273c-.421-.103-.832-.099-1.24-.107-.762-.013-1.523-.021-2.284-.023-.763-.003-1.526.005-2.29.007-1.219.003-2.438.006-3.658.005-.579 0-1.158-.009-1.738-.01-1.219-.004-2.438-.017-3.656-.005-1.155.01-2.309.048-3.464.073-.122.003-.245.018-.365.008-1.92-.162-3.844-.06-5.765-.081-1.981-.024-3.963 0-5.945-.013-1.981-.013-3.963-.051-5.945-.066-1.156-.009-2.314.008-3.471.007a177.682 177.682 0 0 1-3.098-.021c-.391-.008-.78-.066-1.283-.111.124.214.173.351.264.447.487.506.985 1 1.477 1.5.809.824 1.649 1.62 2.416 2.482.95 1.07 2.016 2.024 2.98 3.078C-1.745-1.808-.874-.919 0 0" style="fill:#1e103b;fill-opacity:1;fill-rule:nonzero;stroke:none" transform="translate(119.887 278.393)"/><path d="M0 0c-.444.109-.822.192-1.193.298a.958.958 0 0 0-.392.208c-1.254 1.202-2.511 2.402-3.746 3.625a290.379 290.379 0 0 0-3.866 3.903c-2.235 2.299-4.456 4.611-6.682 6.918-.06.063-.103.143-.151.21.052.228.238.152.366.185.118.03.241.049.362.052 1.706.037 3.412.081 5.118.1 1.555.017 3.109 0 4.664.004 1.77.006 3.541-.021 5.31.038 1.645.055 3.287-.02 4.93-.019.7.001 1.4.043 2.1.05.698.007 1.396-.014 2.094-.009.605.005 1.209.041 1.813.043.486.003.972-.03 1.459-.034.487-.004.975.014 1.462.01.112-.001.223-.056.38-.098-.12-.38-.393-.578-.616-.812-.272-.285-.543-.571-.816-.855-.526-.545-1.054-1.089-1.581-1.633-.085-.087-.186-.161-.263-.255-.77-.948-1.658-1.783-2.506-2.656-.169-.174-.304-.381-.454-.573-.113-.144-.197-.333-.343-.425-.713-.45-1.137-1.185-1.746-1.738-.311-.284-.528-.669-.809-.989C4.192 4.75 3.471 3.97 2.771 3.17 1.929 2.206 1.102 1.228.266.259.169.147.054.052 0 0" style="fill:#1e103b;fill-opacity:1;fill-rule:nonzero;stroke:none" transform="translate(90.068 345.125)"/><path d="M0 0c.144.228.216.405.341.53.538.532 1.098 1.043 1.639 1.574.629.615 1.272 1.217 1.862 1.869a27.361 27.361 0 0 0 2.192 2.196c.091.081.191.155.272.245.837.924 1.671 1.85 2.505 2.775.061.069.113.145.176.211.677.7 1.359 1.394 2.031 2.098.25.263.478.548.716.822.219.253.435.508.66.754.43.472.882.925 1.295 1.41.312.369.661.689 1.074 1.103.169-.566.203-1.04.221-1.515.079-2.07.17-4.141.226-6.213.074-2.735.119-5.472.179-8.209.032-1.486.08-2.971.099-4.458.027-2.1.027-4.201.053-6.301.008-.731.064-1.461.084-2.193.009-.362-.014-.724-.025-1.202-.208.137-.333.194-.426.284-.851.829-1.749 1.606-2.582 2.456-.698.714-1.432 1.401-2.153 2.098-1.028.993-2.096 1.943-3.09 2.975-.803.832-1.69 1.582-2.535 2.373-.666.625-1.313 1.269-1.992 1.88-.725.653-1.478 1.277-2.218 1.914C.421-.367.24-.208 0 0" style="fill:#1e103b;fill-opacity:1;fill-rule:nonzero;stroke:none" transform="translate(140.098 248.758)"/><path d="M0 0c.801-.458 1.618-.755 2.468-.975.473-.123.944-.254 1.374-.509a2.122 2.122 0 0 1 1.105-.321.476.476 0 0 0 .42-.208c.203-.293.234-.598-.089-.809-.461-.302-.783-.758-1.277-1.018-.849-.449-1.671-.947-2.513-1.41a36.29 36.29 0 0 0-1.793-.936 185.79 185.79 0 0 0-3.382-1.582 59.777 59.777 0 0 0-2.083-.891c-1.019-.419-2.038-.843-3.068-1.235a346.224 346.224 0 0 0-5.509-2.043c-.922-.332-1.862-.612-2.799-.901a277.748 277.748 0 0 0-4.394-1.328c-.743-.216-1.504-.374-2.254-.569-.435-.113-.861-.261-1.296-.373-.672-.172-1.348-.324-2.022-.49-.614-.152-1.223-.322-1.84-.464-.954-.219-1.912-.421-2.868-.628-.838-.182-1.674-.378-2.516-.538a264.48 264.48 0 0 0-5.062-.92 75.513 75.513 0 0 0-3.638-.532 91.648 91.648 0 0 0-4.085-.404c-1.69-.128-3.384-.211-5.076-.308a37.74 37.74 0 0 0-1.715-.065c-.425-.004-.851.026-1.276.045-.368.017-.735.041-1.102.06-.082.004-.168.019-.245.001-.986-.231-1.99-.117-2.986-.148a41.324 41.324 0 0 0-2.634.021c-.673.021-1.345.073-2.016.138a442.67 442.67 0 0 0-4.865.497c-.404.044-.804.129-1.205.2-.602.107-1.213.183-1.804.336-1.143.296-2.308.495-3.436.869-.753.249-1.507.503-2.265.744-.6.191-1.18.447-1.767.68-.51.202-1.024.398-1.526.621-.596.265-1.19.539-1.769.84-.686.358-1.361.738-2.029 1.128a31.202 31.202 0 0 0-2.798 1.873c-.773.571-1.5 1.198-2.184 1.866a30.717 30.717 0 0 0-1.959 2.107c-.902 1.062-1.642 2.241-2.272 3.48a16.946 16.946 0 0 0-1.024 2.557A14.363 14.363 0 0 0-95.589.66a15.96 15.96 0 0 0-.148 3.474c.052.779.15 1.548.328 2.305a20.29 20.29 0 0 0 1.114 3.368c.298.695.616 1.381.99 2.032.548.955 1.131 1.894 1.815 2.762.745.945 1.514 1.875 2.372 2.722 1.22 1.206 2.47 2.381 3.869 3.382 1.063.76 2.13 1.517 3.225 2.23.75.488 1.545.909 2.331 1.34.715.393 1.444.761 2.17 1.135.963.496 1.96.914 2.981 1.273.617.217 1.225.456 1.841.673.288.102.585.181.88.261.614.166 1.211.372 1.738.743.094.067.209.104.362.179.028-.141.053-.23.063-.322.009-.079.002-.16.002-.208-.052-.056-.073-.1-.106-.113-.521-.203-.957-.527-1.389-.88-1.03-.84-2.048-1.695-2.994-2.629a25.102 25.102 0 0 1-2.585-3.023 17.52 17.52 0 0 1-1.711-2.898c-.392-.826-.671-1.71-.946-2.585a12.721 12.721 0 0 1-.583-3.744c-.009-1.478.193-2.928.738-4.323.358-.917.786-1.797 1.297-2.632.319-.521.691-1.013 1.079-1.486.896-1.093 1.924-2.05 3.039-2.925 1.209-.95 2.506-1.756 3.859-2.474.648-.344 1.341-.6 2.002-.922.92-.449 1.899-.748 2.853-1.104.895-.334 1.847-.519 2.773-.77.296-.08.591-.163.887-.24 1.089-.283 2.202-.437 3.308-.629.423-.073.845-.154 1.271-.207a28.217 28.217 0 0 1 1.644-.16c1.303-.086 2.608-.167 3.913-.23a23.983 23.983 0 0 1 1.779-.006c.653.017 1.306.031 1.958.045.734.016 1.463.119 2.199.095.424-.014.851.081 1.276.134.669.083 1.336.18 2.006.257 1.503.171 2.984.469 4.468.753.14.026.274.078.413.102.221.039.456.126.663.085.588-.118 1.151.015 1.68.197.876.303 1.779.458 2.679.634 1.163.227 2.317.475 3.456.806 1.016.295 2.043.551 3.065.828.236.064.47.139.703.217.889.297 1.791.543 2.704.759.734.174 1.454.405 2.177.621.507.151 1.008.325 1.514.477a19.29 19.29 0 0 1 1.959.704c.958.406 1.942.75 2.915 1.121.152.058.314.105.451.19.897.551 1.892.858 2.878 1.198.5.172 1.001.372 1.458.635.344.197.707.325 1.074.426.694.192 1.34.467 1.972.813.605.331 1.204.698 1.903.832.177.034.362.107.506.213.639.47 1.409.639 2.115.953.894.397 1.794.781 2.682 1.189.277.127.523.319.788.474.122.071.251.141.386.182a.595.595 0 0 0 .721-.315.507.507 0 0 0 .005-.348c-.102-.288-.242-.562-.353-.848-.371-.951-.724-1.909-1.107-2.855-.367-.907-.782-1.794-1.141-2.704C.399 1.277.212.631 0 0" style="fill:#1e103b;fill-opacity:1;fill-rule:nonzero;stroke:none" transform="translate(346.809 347.116)"/><path d="M0 0c-.004-.062.008-.113-.012-.141-.353-.508-.528-1.101-.781-1.656-.169-.371-.344-.742-.48-1.126a14.03 14.03 0 0 0-.75-1.675c-.195-.381-.345-.783-.535-1.166-.455-.913-.835-1.859-1.24-2.794-.313-.719-.489-1.467-.686-2.216-.062-.236-.155-.465-.24-.695-.343-.927-.411-1.913-.613-2.87-.068-.319-.148-.635-.223-.953-.032-.139-.075-.276-.095-.417-.236-1.699-.483-3.395-.604-5.108-.056-.794-.158-1.584-.253-2.375-.055-.466-.098-.929-.068-1.401.028-.428-.009-.859-.01-1.288-.001-.651.016-1.303.007-1.955-.019-1.19.175-2.361.291-3.539.058-.589.181-1.17.264-1.757.151-1.07.268-2.147.447-3.213.146-.864.333-1.721.737-2.517.184-.362.298-.759.462-1.131.272-.616.535-1.237.845-1.834.462-.886.962-1.752 1.443-2.628.314-.571.583-1.17.996-1.682.346-.427.694-.854 1.053-1.271.758-.882 1.521-1.76 2.289-2.633.771-.876 1.63-1.666 2.516-2.42.386-.328.839-.581 1.278-.841.735-.436 1.469-.879 2.229-1.269a22.12 22.12 0 0 1 1.955-.862c1.462-.582 2.982-.987 4.494-1.411a2.48 2.48 0 0 1 .481-.094c.45-.032.893-.09 1.324-.237.152-.053.321-.061.483-.081.649-.076 1.296-.178 1.948-.214a43.651 43.651 0 0 1 2.755-.066c.959.008 1.918.067 2.877.1.759.027 1.504.134 2.227.372.124.041.241.07.337-.041.076-.088.03-.283-.105-.377-.483-.341-.962-.692-1.464-1.005-.85-.53-1.73-.999-2.677-1.346-.707-.26-1.394-.578-2.093-.861-.359-.146-.726-.269-1.088-.408-.362-.139-.716-.3-1.082-.425a76.047 76.047 0 0 0-2.271-.737c-.703-.214-1.414-.402-2.122-.598a6.817 6.817 0 0 0-.597-.143c-.742-.139-1.482-.29-2.23-.398-1.109-.161-2.219-.331-3.349-.285-.467.02-.942.004-1.405-.053-.979-.123-1.957-.051-2.935-.049-.386 0-.773-.061-1.159-.052-.591.013-1.191.009-1.77.11-.781.135-1.563.273-2.323.536-1.081.372-2.178.699-3.309.896a2.316 2.316 0 0 0-.586.168c-.632.295-1.311.451-1.962.686-.497.179-.962.446-1.458.631-1.08.403-2.049 1.01-3.021 1.608-.66.406-1.288.86-1.93 1.295-.27.183-.536.374-.806.557-.629.426-1.19.929-1.714 1.478-.126.132-.279.238-.421.356-.188.158-.388.302-.562.474-.724.72-1.436 1.452-2.161 2.17-.982.971-1.726 2.117-2.442 3.285-.308.504-.585 1.029-.92 1.515-.374.543-.661 1.127-.933 1.722-.357.781-.789 1.52-1.231 2.255a4.97 4.97 0 0 0-.508 1.111c-.101.328-.3.626-.421.95-.237.63-.442 1.272-.676 1.904-.348.942-.54 1.926-.813 2.888-.122.432-.237.867-.396 1.286-.246.641-.333 1.304-.343 1.98a4.09 4.09 0 0 1-.127.966c-.252.972-.348 1.971-.494 2.961-.083.565-.146 1.135-.246 1.697-.144.809-.188 1.626-.217 2.441-.046 1.288-.038 2.576-.085 3.863-.026.694-.031 1.385.033 2.075.038.407.096.812.136 1.218.079.794.152 1.587.225 2.381.053.569.103 1.136.242 1.696.122.495.158 1.009.25 1.512.121.662.243 1.324.393 1.981.186.815.397 1.626.606 2.436.147.573.306 1.143.464 1.714.126.453.25.906.388 1.355.15.487.312.97.471 1.454.135.406.281.81.408 1.219.205.664.457 1.309.749 1.941.256.555.49 1.123.696 1.698.297.83.715 1.602 1.065 2.407.472 1.088 1.044 2.125 1.613 3.164.273.501.534 1.011.779 1.527.274.576.631 1.095 1.016 1.6.173.227.318.475.476.714.192.292.417.556.7.764.291.215.519.186.751-.068.895-.982 1.791-1.962 2.687-2.943a11.637 11.637 0 0 1 1.982-1.724c.571-.394 1.102-.846 1.672-1.242.416-.29.863-.537 1.302-.794.512-.299 1.015-.616 1.545-.878a63.601 63.601 0 0 1 4.246-1.909A17.246 17.246 0 0 1-1.545.368c.276-.059.566-.069.851-.08C-.417.277-.178.202 0 0" style="fill:#1e103b;fill-opacity:1;fill-rule:nonzero;stroke:none" transform="translate(272.03 327.19)"/><path d="M0 0c.183.064.33.15.483.165.386.036.774.06 1.161.054C2.297.208 2.955.208 3.602.132 4.264.055 4.901.084 5.538.271c.195.058.399.106.602.113.804.029 1.566.274 2.343.441.458.098.914.216 1.362.352.881.269 1.786.427 2.684.616.718.151 1.419.38 2.126.579.432.122.861.253 1.292.38.077.023.16.037.232.073.751.377 1.559.593 2.356.845.525.165 1.046.345 1.565.529.275.097.554.135.843.124.249-.01.48.027.706.156.31.178.565.106.687-.22.127-.341.235-.706.254-1.066.036-.651 0-1.307-.007-1.961-.001-.082.004-.169-.022-.244-.21-.605-.213-1.246-.321-1.869-.056-.321-.067-.65-.087-.976-.103-1.693-.172-3.388-.313-5.077-.085-1.015-.263-2.023-.436-3.028-.083-.48-.26-.943-.38-1.418-.114-.454-.21-.913-.314-1.371-.094-.417-.167-.841-.286-1.251-.159-.549-.35-1.088-.536-1.628-.073-.212-.182-.411-.254-.622a27.498 27.498 0 0 1-.409-1.278c-.153-.53-.319-1.059-.421-1.6-.114-.611-.38-1.162-.613-1.723a21.644 21.644 0 0 1-.619-1.655c-.169-.523-.369-1.037-.559-1.554-.366-.998-.875-1.93-1.343-2.881-.396-.805-.768-1.622-1.157-2.43-.319-.661-.668-1.308-.964-1.978-.182-.412-.365-.82-.601-1.204-.287-.467-.545-.96-.875-1.396-.311-.413-.532-.862-.752-1.322a24.217 24.217 0 0 0-.712-1.353c-.368-.657-.756-1.304-1.122-1.963a9.539 9.539 0 0 0-1.009-1.455c-.454-.548-.842-1.149-1.277-1.714-.285-.371-.565-.762-1.047-.909-.189-.059-.293-.212-.419-.346-.696-.743-1.344-1.529-2.056-2.26-.596-.613-1.138-1.28-1.702-1.924-.47-.537-.911-1.104-1.411-1.612-.759-.771-1.545-1.519-2.436-2.143-.401-.281-.818-.538-1.225-.811-.117-.079-.258-.154-.328-.268-.293-.473-.754-.733-1.211-1-.264-.156-.525-.315-.794-.459-1.156-.624-2.405-1.015-3.642-1.432-.248-.084-.52-.098-.781-.142-.643-.111-1.284-.231-1.93-.328-.505-.076-1.014-.125-1.522-.183-.467-.054-.932-.119-1.401-.152-.999-.068-1.998-.144-2.998-.168-.548-.013-1.1.065-1.648.12-1.119.112-2.239.214-3.353.361-.626.082-1.237.268-1.862.366-1.057.166-2.03.613-3.056.883-.116.03-.225.096-.334.151-.291.148-.58.297-.869.449-.2.104-.249.29-.091.447.319.316.638.635.986.917.555.449 1.138.863 1.7 1.305.498.391.975.808 1.472 1.199 1 .785 1.87 1.707 2.772 2.596.493.487.987.974 1.507 1.431.464.407.831.898 1.24 1.351.218.243.426.496.651.732.562.593 1.154 1.158 1.69 1.773.711.814 1.417 1.639 2.059 2.508.837 1.133 1.605 2.316 2.409 3.473.255.367.524.727.794 1.084.602.799 1.08 1.677 1.606 2.523.345.555.65 1.134.989 1.688.437.714.808 1.459 1.199 2.195.342.643.66 1.308.9 1.994.244.698.574 1.343.942 1.975.051.088.124.171.149.266.15.58.492 1.069.741 1.601.146.311.28.631.388.957.153.464.276.937.414 1.406.028.098.061.194.098.289a9.86 9.86 0 0 1 .524 1.808c.079.434.276.845.398 1.274.168.587.324 1.179.468 1.773.168.69.306 1.388.477 2.077.078.313.171.631.315.917.205.403.202.859.405 1.271.193.391.182.876.317 1.302.291.92.408 1.87.566 2.814.179 1.065.378 2.126.543 3.193.096.625.228 1.246.2 1.886C-.017-1.052 0-.563 0 0" style="fill:#1e103b;fill-opacity:1;fill-rule:nonzero;stroke:none" transform="translate(309.688 326.707)"/><path d="M0 0c.346-.017.695-.015 1.039-.054.812-.091 1.631-.013 2.445-.133.439-.064.898-.037 1.345-.004.692.052 1.377.077 2.067-.027.606-.092 1.217-.144 1.826-.217.915-.109 1.8-.357 2.693-.576.255-.062.519-.094.77-.169 1.131-.336 2.261-.676 3.388-1.029.252-.079.485-.215.73-.317.45-.188.907-.36 1.354-.557.39-.172.774-.361 1.154-.556.49-.25.983-.49 1.511-.653.116-.036.232-.09.328-.162.608-.457 1.303-.763 1.954-1.144a21.15 21.15 0 0 0 1.845-1.204c.295-.217.632-.374.931-.585.517-.365 1.015-.757 1.529-1.125.935-.67 1.715-1.508 2.487-2.343.636-.687 1.178-1.461 1.759-2.198.643-.818 1.292-1.631 1.924-2.458.706-.924 1.453-1.819 2.026-2.839.67-1.192 1.345-2.38 1.934-3.615.369-.772.758-1.536 1.099-2.322.274-.633.548-1.272.596-1.981.013-.196.12-.387.181-.581.086-.271.181-.533.183-.831.002-.281-.068-.473-.327-.593-.405-.189-.804-.393-1.212-.576-1.359-.612-2.802-1.004-4.181-1.564a6.585 6.585 0 0 0-.816-.253c-1.105-.289-2.213-.567-3.319-.855-.869-.225-1.74-.44-2.626-.588-.2-.034-.42-.071-.582-.18-.577-.387-1.299-.347-1.892-.671-.564-.003-1.062-.272-1.598-.39-.497-.11-.997-.207-1.499-.293-.216-.037-.444-.012-.661-.05-.421-.074-.836-.179-1.256-.258a1.503 1.503 0 0 0-.486-.026.71.71 0 0 0-.379.165c-.233.229-.455.474-.536.808-.113.469-.376.914-.207 1.429.027.083-.033.196-.057.294-.237.976-.638 1.892-1.024 2.815-.282.676-.568 1.352-.846 2.03-.062.15-.154.316-.137.464.046.417-.174.733-.317 1.087-.247.608-.593 1.155-.938 1.707-.487.78-1.049 1.505-1.58 2.253-.33.465-.644.941-.995 1.39-.225.287-.502.533-.755.798-.325.34-.673.661-.968 1.025-.35.432-.744.809-1.184 1.147-.694.533-1.438 1.006-2.041 1.652-.498.226-.816.672-1.23.999a2.26 2.26 0 0 1-.627.372c-.56.193-1.088.46-1.633.685-.697.285-1.413.53-2.134.749-.761.23-1.534.422-2.307.605-.456.107-.923.17-1.387.242-1.424.221-2.851.195-4.277.016-.971-.122-1.947-.234-2.907-.424-.94-.186-1.862-.468-2.791-.706-.158-.041-.315-.104-.474-.114-.558-.035-1.081-.203-1.603-.386-.443-.154-.889-.3-1.332-.455-1.118-.392-2.237-.781-3.352-1.183a5.827 5.827 0 0 1-1.356-.704 8.34 8.34 0 0 0-.788-.473 1.082 1.082 0 0 0-.346-.108c-.144-.025-.295.118-.265.259.032.158.098.308.152.46.083.229.167.457.254.684.094.248.184.497.287.741.197.471.423.931.596 1.41.14.389.326.747.529 1.103.749 1.318 1.627 2.546 2.566 3.732.456.576.91 1.154 1.396 1.702.338.381.725.718 1.1 1.066.929.863 1.954 1.608 2.964 2.37.145.111.312.193.472.283.231.131.461.26.696.384.107.056.222.096.335.14.342.134.679.279 1.028.394.289.096.587.191.887.222.732.075 1.457.169 2.174.344.296.072.606.115.91.123.677.019 1.333.149 1.996.267.988.176 1.989.198 2.991.133.265-.018.53-.025.796-.038A.121.121 0 0 1 0 0" style="fill:#1e103b;fill-opacity:1;fill-rule:nonzero;stroke:none" transform="translate(290.88 377.445)"/><path d="M0 0c.522.05.962-.139 1.392-.317.926-.383 1.788-.891 2.605-1.471.982-.699 1.9-1.475 2.794-2.284a27.236 27.236 0 0 0 2.288-2.296c.883-1.016 1.758-2.043 2.401-3.24.223-.413.487-.803.702-1.218.293-.567.459-1.181.59-1.801.041-.196.022-.407.012-.61a.361.361 0 0 0-.095-.219c-.231-.228-.396-.522-.699-.677-.426-.219-.756-.563-1.083-.896-.7-.714-1.369-1.458-2.051-2.19-.056-.06-.124-.115-.159-.186-.238-.487-.643-.58-1.128-.493-.1.017-.204.028-.297.066-.604.245-1.226.439-1.816.722-.846.406-1.7.798-2.56 1.172-.862.374-1.729.737-2.524 1.239-.552.349-1.07.75-1.6 1.133-.199.143-.383.306-.584.447-.537.375-1.013.823-1.514 1.24-1.103.919-2.04 1.992-2.935 3.102-.396.491-.724 1.037-1.078 1.561-.069.101-.112.218-.172.325-.149.265-.125.507.084.73.196.209.385.425.587.628.36.361.726.715 1.09 1.073.073.071.142.148.221.212.698.565 1.401 1.124 2.097 1.691.205.168.415.338.587.537A8.911 8.911 0 0 0-1.149-.524c.066.046.136.093.191.152.271.288.597.421.958.372" style="fill:#1e103b;fill-opacity:1;fill-rule:nonzero;stroke:none" transform="translate(276.007 361.386)"/><path d="m0 0 .104-.19C.123-.305.033-.36-.003-.46v-.459l.125-.235v-2.838l.102-.182c-.058-.075-.108-.147-.107-.243l.01-1.054.112-.185c.028-.124-.094-.191-.123-.332l.019-.29.113-.191v-.604c-.019-.092-.139-.16-.114-.287l.118-.188v-2.036l.103-.191C.328-9.844.251-9.908.33-9.998c.066-.076.056-.157.002-.241-.033-.054-.052-.117-.076-.173l.122-.198v-.869l-.109-.208c.009-.041.007-.091.031-.123.122-.164.119-.324 0-.487-.014-.017-.022-.038-.032-.058v-.201l.111-.194v-.46l-.108-.216c-.017-.101.063-.162.112-.292v-1.201l.131-.253v-.198a9.63 9.63 0 0 1-.104-.17c-.055-.166.039-.296.111-.453v-1.772c-.168-.223-.22-.494-.391-.701-.174-.211-.402-.34-.68-.47h-.416l-.186-.106-.116.077c-.098.049-.211.018-.32.02-.111.003-.223.001-.303.001l-.203.112-.279-.224c-.29-.005-.601-.011-.91-.013-.289-.003-.579-.001-.89-.001l-.178-.094c-.036.019-.086.057-.143.07a1.283 1.283 0 0 1-.263.027c-.289.003-.578.001-.866.001l-.233-.127c-.143-.031-.216.165-.364.112l-.165-.115h-.466c-.149.131-.326.129-.532.117l-.207-.112c-.174-.003-.305.2-.5.105a9.368 9.368 0 0 0-.164-.11h-.85c-.122.035-.197.144-.323.109l-.175-.115h-.925c-.195 0-.195-.002-.435-.119-.1-.013-.155.074-.266.112h-.572c-.039-.02-.08-.037-.115-.062-.08-.058-.157-.072-.24-.008-.035.026-.077.044-.122.07h-.865l-.189-.113h-1.544l-.161.078c-.09-.005-.159-.11-.277-.103-.113.006-.195.079-.283.11l-.148-.091h-1.506a31.307 31.307 0 0 1-.191-.099c-.112.033-.218.103-.357.096-.265-.014-.533-.004-.807-.004l-.231-.125h-.459l-.188.118h-.601l-.214-.114c-.101-.018-.16.064-.24.102a.653.653 0 0 1-.564-.106h-.326l-.175.097-.116-.074c-.043-.01-.085-.029-.127-.029-.222-.003-.444-.002-.646-.002l-.202.122h-.871a12.779 12.779 0 0 1-.239-.126h-3.759l-.183-.096c-.069.032-.127.08-.189.084-.154.012-.309.004-.452.004l-.19-.116h-.325l-.211.105c-.129.016-.179-.082-.329-.107h-.399c-.122.054-.223.16-.416.11l-.187-.114c-.109-.005-.218-.007-.315.067-.095.075-.206.061-.315.043l-.181-.11h-1.92l-.181-.107a7.975 7.975 0 0 0-.111.066c-.041.01-.083.028-.125.029-.222.003-.445.001-.67.001l-.165-.096-.185.104c-.055-.024-.12-.04-.171-.077a.175.175 0 0 0-.184-.022c-.059.025-.114.066-.169.099h-.33l-.186-.122h-.465l-.168.088-.165-.06c-.155.128-.334.088-.509.074a18.577 18.577 0 0 1-.175-.101h-.33c-.23.129-.23.129-.418.027-.037.016-.078.027-.109.051a.177.177 0 0 1-.187.015c-.059-.028-.111-.07-.158-.099h-1.412c-.039.024-.079.045-.114.072-.083.065-.16.052-.241-.005-.036-.025-.076-.043-.118-.068h-1.381l-.182.105c-.154-.134-.331-.113-.507-.094l-.168.103c-.101.014-.173-.039-.245-.089-.081.03-.14.119-.235.104-.15-.024-.239.108-.366.131-.097.017-.156.081-.219.141a3.989 3.989 0 0 0-.28.287c-.086.101-.055.265-.18.312v.888l-.107.185c.025.037.049.075.072.113l-.059.169.088.137.014.625.109.179c-.019.176-.176.311-.134.5l-.109.18v.194c.073.13.155.263.104.427l-.103.172v.463c.024.043.044.082.069.118.056.082.06.16.004.245a.184.184 0 0 0-.035.11c.005.039.037.076.057.113-.098.107-.114.236-.093.372l.111.182v.338l-.106.2a3.832 3.832 0 0 0-.003.618c.024.04.048.077.07.116.009.017.01.037.006.024-.034.109-.082.191-.083.273-.01.646-.011 1.291-.013 1.937v.953l-.088.213.072.112c.006.021.017.042.017.063l.001.551-.114.215c-.015.101.06.163.114.277.008.496.002 1.028.001 1.542l-.12.192v.326c.125.151.135.325.115.533l-.115.206v.332c.103.156.144.323.085.583l-.08.159c.009.042.008.092.031.124.115.167.117.328-.009.489-.013.017-.02.038-.032.061V-1c.16.211.166.414-.003.623v2.446c.032.054.051.095.077.13a.185.185 0 0 1 .025.187c-.024.061-.064.115-.103.184v1.121l-.115.178c-.032.119.084.191.108.301v.732c-.178.195-.155.395-.003.6v.46l-.113.186V6.5c.011.078.136.146.105.275l-.103.167c-.013.111-.021.22.055.316.074.096.065.207.054.32l-.114.184v.466l.092.159c-.137.264-.149.241.017.6.012.099-.071.158-.115.259v4.32l-.102.173.089.169c0 .263-.003.53.001.798.002.097-.054.164-.097.24l.073.111c.01.042.027.085.027.127.004.178.002.356.002.529l-.101.176c.073.088.104.19.103.306-.002.467-.001.934-.001 1.4l-.111.168c-.033.125.077.199.11.321v.447l-.098.167c.137.146.086.282-.022.418v.202c.032.055.073.109.097.169.024.062.024.127-.025.185-.028.034-.045.075-.067.112 0 .023-.003.046.001.068.004.02.011.043.023.059.145.189.1.369-.021.544-.018.102.061.162.106.263v1.528l-.112.223v.331c.035.058.07.115.114.191v.476l-.238.318c-.026.136.067.19.1.277l.018.194a.823.823 0 0 0 .312.334c.107.073.233.117.371.183h.698l.178.115c.144.035.222-.158.371-.106l.179.116h.582c.044-.024.084-.044.121-.068.081-.055.159-.065.242-.003.035.027.075.046.126.077h2.725l.171.103.165-.095h.336c.06.034.118.067.178.103.018.003.039.011.061.011.154.002.308.001.438.001l.2-.117h.463c.274.168.311.178.603.008.042.01.095.006.123.031.124.109.238.095.361-.017l.189.094h.848c.159-.143.361-.115.558-.109l.185.115h.183c.089 0 .174-.002.254-.055.052-.034.118-.047.169-.065l.202.121h3.113l.24.121c.101.018.159-.067.234-.098.126-.031.202.078.258.092.153.027.205-.065.306-.107.145-.05.268.07.411.116.099.012.151-.081.245-.113h.588c.06.034.116.071.177.095.062.024.127.029.184-.024.129-.12.243-.059.359.036.214.041.434-.011.623.014l.198-.119c.047.008.101.001.129.025.13.117.288.099.473.098l.212-.123c.128-.027.251.007.373.109 1.097.038 2.208.003 3.298.023l.183.092.12-.077.119.074c.177-.085.358-.157.537.005.139-.083.275-.134.41.004l.184-.1h.862l.183.11.585.02.171-.092a.172.172 0 0 1 .185 0l.132.081h1.003l.212-.113h.333l.191.12h2.325c.048.027.106.058.162.093a.165.165 0 0 0 .184.001l.135-.084h.61l.203.118h.201l.163-.098.158.087c.116.021.176-.061.281-.106l.565-.019c.085.051.161.095.239.14h.722l.179-.102.111.072c.021.009.04.025.06.025.734.002 1.469.002 2.185.002l.183.114.114-.071c.042-.01.085-.027.127-.027.356-.002.711-.001 1.05-.001l.182.099c.155-.139.334-.108.51-.09l.171.102c.042-.009.096-.003.125-.027.164-.135.323-.117.486-.002.017.013.038.021.072.039.05-.019.114-.034.167-.068.101-.068.206-.069.317-.044l.175.111h.996l.177-.099.174.105h.853c.144-.143.327-.129.502-.14.143-.004.205-.181.343-.137.075-.173.18-.286.272-.409.078-.104.124-.231.202-.382v-2.021c.039-.069.079-.125.101-.186.038-.106.048-.214-.023-.315-.024-.036-.045-.075-.066-.111-.015-.1.051-.166.103-.262V21l-.08-.168c-.006-.021-.025-.062-.026-.105-.003-.178-.001-.355-.001-.541l.113-.198c.001-.455.007-.942-.001-1.406l-.091-.148.098-.182v-1.776l-.096-.187.099-.181v-3.374l.125-.239v-.333l-.103-.17c-.05-.162.013-.299.104-.434v-.324l-.095-.173c.107-.11.104-.242.088-.375l-.106-.17c-.049-.169.049-.298.114-.435.004-.278.004-.278-.09-.502l.07-.116c.014-.234.11-.476-.081-.663l.078-.143c-.023-.038-.054-.074-.069-.115-.014-.039-.012-.085-.018-.127l.124-.194c0-.598.001-1.221-.002-1.845 0-.096.042-.168.098-.242l-.097-.176v-.721l.099-.185c.02-.307.02-.307-.063-.558l.082-.128c.001-.072.007-.16.007-.248l.001-2.347-.094-.184.087-.189L0 0" style="fill:#1e103b;fill-opacity:1;fill-rule:nonzero;stroke:none" transform="translate(525.77 318.072)"/><path d="m0 0-.116.188c-.031.122.076.199.104.315v.462l-.106.167c-.031.121.084.192.112.296v.724l-.127.19c.02.051.04.111.065.17.016.04.039.078.062.124v.326l-.108.174a.678.678 0 0 0 .105.564v.593l-.112.177c-.025.123.089.194.111.291v.334l-.117.19v.449c.072.142.152.276.107.44l-.105.165c0 .449.002.894-.001 1.339-.001.096.048.168.096.244l-.104.172v2.189l.1.181-.201.418.072.116c.057.206.018.429.024.631l-.101.185c.098.113.114.241.093.379l-.104.166c-.02.1.048.167.088.242.007.022.018.043.018.063l.001 1.656a6.33 6.33 0 0 1-.085.133c-.014.102.125.176.075.288-.027.061-.069.114-.106.173v.194l.099.174-.097.167v.202l.109.175c-.003.044.004.092-.012.129-.026.061-.067.113-.105.175v.32l.102.175c-.048.077-.099.146-.099.244.003.489.002.979.002 1.457l.109.178c.017.101-.04.171-.108.273-.041.547.009 1.125-.012 1.702-.021.578-.003 1.158-.003 1.736v1.722l-.087.147c.026.062.068.135.084.213.017.086.011.177.016.282l-.132.227a.459.459 0 0 0 .1.363l-.067.114.059.17-.07.114c-.049.174-.009.351-.023.503l.117.198v.462c-.078.138-.154.272-.104.432l.106.17v.206a6.274 6.274 0 0 0-.1.171l.1.168v.333a9.099 9.099 0 0 0-.1.174c.05.072.109.14.094.245l-.106.166c-.049.162.041.292.112.43v.332l-.119.19c0 .224-.005.468.003.711.003.061.053.119.084.185-.003.009-.004.029-.014.045-.022.04-.047.077-.071.114-.001.331-.001.331.095.506-.066.114-.127.229-.093.376.03.051.062.109.105.187v.499l-.107.179-.021 1.404c-.02.039-.035.081-.061.117-.057.081-.064.159-.003.241.028.035.046.076.073.122v.198c-.033.052-.08.103-.102.164-.021.059-.04.137-.02.192.095.273.215.533.492.672.097.05.196.094.311.148h.703l.188.124.343-.127.198.128h1.911l.191.106c.169.042.344 0 .5.017l.2-.121h.869c.049.031.101.072.161.099.061.028.124.033.186-.015.03-.025.073-.033.11-.048.038.023.075.047.113.069l.121-.076.179.095h.722c.053-.031.111-.063.17-.095.134.086.272.122.407-.005l.168.105h3.53l.18.106.158-.098h.871l.181.097.111-.073c.021-.008.04-.024.061-.024.2-.002.4-.001.594-.001l.17.102.123-.08c.165-.056.344-.007.52-.019l.184.115h.861l.165-.096c.113.054.221.137.362.099l.226-.114h.201l.193.116h1.524l.175-.099.185.103h.451c.097-.029.166-.144.293-.117l.18.12h1.239c.094.043.169.088.251.114.092.031.143-.089.235-.078l.108.069.183-.107c.055.025.12.043.169.08.062.046.123.05.185.025.061-.025.114-.067.164-.098h.734l.193.115h1.521l.251-.119c.05.022.115.038.165.075a.18.18 0 0 0 .185.024c.04-.015.074-.047.118-.076l.198.107c.698 0 1.433-.002 2.167 0 .601.002 1.201.009 1.803.01.096.001.17.039.241.093.158-.098.32-.152.487-.027.113.084.205.034.297-.037.017-.013.038-.019.055-.027.104-.025.162.059.241.088.079.029.17.025.236.033l.202-.125h.588l.202.124c.235.006.5-.001.747-.007l.199-.119h.329l.24.13h3.246l.191.124h.717c.251-.127.251-.127.57-.108l.169.107c.112.012.218.011.318-.058.051-.035.12-.042.171-.057l.182.115c.112.009.219.012.318-.062.049-.035.119-.041.169-.057l.18.12c.112.013.219.017.319-.054.05-.036.117-.048.169-.067l.194.127h.854c.2.001.4-.002.601.012.083.006.164.052.259.084l.149-.084c.247-.005.492-.012.729-.018a.89.89 0 0 1 .436-.149c.187-.076.189-.296.32-.412.139-.123.147-.322.291-.446 0-.401.004-.802-.004-1.201-.002-.083-.049-.165-.083-.271.018-.031.048-.088.082-.152l.019-.599.096-.169-.1-.173v-.587c.023-.045.04-.087.065-.122.06-.081.064-.158.002-.24-.026-.035-.044-.077-.073-.131V31.1c.029-.052.048-.093.073-.128.06-.08.07-.158.008-.241-.026-.036-.046-.076-.072-.118v-.328c.13-.24.13-.24-.002-.483v-.326l.114-.179v-.347c-.028-.054-.07-.13-.11-.203v-.202l.103-.177c.031-.175.048-.35-.077-.505.022-.055.042-.112.064-.169-.091-.168-.092-.168-.085-.375l.114-.173v-.734l-.103-.17c.03-.051.061-.107.108-.191 0-.617-.001-1.263.001-1.908.001-.646.006-1.291.005-1.937 0-.099.051-.165.097-.24-.036-.077-.099-.141-.096-.238.005-.178.001-.356.001-.533.024-.039.045-.079.071-.114.063-.083.052-.161-.005-.241-.025-.036-.044-.077-.066-.117v-.326c.026-.044.046-.085.072-.121.06-.083.053-.161-.005-.242-.024-.035-.044-.076-.068-.12v-.46l.105-.174a.406.406 0 0 0-.084-.379c.029-.053.057-.11.102-.196v-3.086c.127-.262.127-.262.124-.715l-.094-.171c.171-.182.087-.365.009-.539l.084-.137c.005-.251.013-.518.014-.785.001-.131-.01-.264-.015-.378l-.112-.189v-.333l.12-.197v-2.044l.1-.184-.064-.155.088-.142c.027-.927-.009-1.883.02-2.845a8.616 8.616 0 0 0-.096-.201c.021-.054.064-.127.076-.207.017-.108.014-.221.015-.333l.006-1.568.118-.2v-.332l-.111-.186v-.5l.122-.192V.622l.113-.212c.024-.121-.085-.167-.105-.399v-.193l.1-.169c-.071-.11-.133-.225-.103-.367.166-.303.166-.303.003-.599v-.331c.168-.313.168-.314-.002-.616v-.456c.026-.044.045-.085.071-.12.062-.081.059-.158-.001-.24-.025-.034-.042-.076-.062-.113-.016-.101.058-.163.106-.259l.021-.596.088-.178a15.32 15.32 0 0 1-.083-.173 2.243 2.243 0 0 1 .021-.641c.012-.062.06-.116.091-.172v-.464l-.073-.118c-.04-.077.035-.116.064-.207.021-.164.022-.363.013-.587-.142-.222-.216-.502-.385-.734-.03-.171-.141-.261-.296-.324-.161-.067-.312-.159-.501-.256h-1.236c-.054.031-.109.069-.169.094-.038.017-.108.034-.123.015-.132-.152-.341-.085-.487-.181-.072-.047-.118-.022-.168.018-.06.046-.124.045-.187.019-.06-.027-.114-.065-.169-.096h-.596l-.176.107c-.129.03-.2-.089-.322-.115h-1.371l-.192-.128c-.051.021-.115.036-.168.069-.125.079-.246.085-.373.009-.035-.02-.074-.034-.112-.051l-.113.074c-.096-.094-.19-.075-.298.021-.245-.021-.516.082-.76-.093-.115.058-.23.121-.383.098-.043-.027-.096-.066-.154-.097-.06-.032-.123-.035-.184.008-.033.025-.074.036-.111.055a.396.396 0 0 0-.383-.075 7.848 7.848 0 0 0-.173.102h-.46l-.196-.119c-.082-.002-.193-.003-.302-.008-.132-.005-.258.01-.333.115l-.147-.09c-.043-.006-.086-.017-.129-.018l-2.204-.004c-.133-.001-.267-.002-.4-.011a.21.21 0 0 1-.12-.048c-.097-.083-.154.014-.228.041-.469.003-.469.003-.646-.086-.178.112-.359.147-.538-.004l-.189.1c-.048-.019-.112-.034-.165-.068-.125-.08-.255-.095-.368-.002-.139.115-.244.05-.374-.043h-.768c-.146.128-.284.122-.434-.006h-1.137l-.215.11c-.101.015-.162-.062-.24-.102-.042-.007-.085-.02-.128-.02-.267.002-.534.01-.802.012a9.525 9.525 0 0 1-.534-.008.455.455 0 0 1-.185-.058c-.045-.026-.076-.048-.112-.028l-.128.083h-1.125l-.23-.126h-.322l-.201.121-1.177.008a.343.343 0 0 1-.237-.097l-.173.06c-.148-.144-.282-.062-.416.027h-.337l-.199-.116h-3.497l-.252-.129c-.178.056-.359.159-.562.109-.083-.02-.158-.071-.24-.11h-.327c-.308.172-.317.172-.6-.004h-.195l-.192.113h-.341l-.217-.115h-.858c-.206.169-.407.151-.619-.005H8.534l-.184-.109c-.076.046-.143.099-.241.099-.713-.004-1.425-.002-2.155-.002l-.155-.102c-.159-.058-.29.036-.446.107l-.217-.099c-.134.143-.271.077-.407.004l-.113.073a9.369 9.369 0 0 0-.173-.089c-.042.008-.092.005-.124.027-.166.121-.326.123-.487-.004-.018-.013-.039-.019-.064-.032H2.646l-.181.105c-.178.032-.354.048-.515-.084l-.193.1h-.542c-.105.053-.18.1-.262.128-.061.021-.132.016-.196.024-.162.075-.236.278-.427.274l-.298.597.08.121c.065.212-.032.433.019.625l-.123.195v.337l.115.206v.896a42.53 42.53 0 0 1-.118.179v.597l.095.167-.094.17c0 .575.002 1.154-.001 1.732-.001.099.057.165.101.239L0-1.906Z" style="fill:#1e103b;fill-opacity:1;fill-rule:nonzero;stroke:none" transform="translate(437.017 210.554)"/><path d="m0 0-.179.104h-1.787l-.184-.11c-.337-.01-.337-.01-.584.11h-1.614c-.113.054-.192.123-.271.123-.147 0-.243.1-.367.134-.118.033-.184.119-.269.186-.195.153-.297.366-.388.589a.377.377 0 0 1 .097.24c-.005.178-.012.354-.016.518l-.111.179v.338c.034.058.069.115.114.194l.018.858-.123.213c-.018.099.048.166.088.24l-.104.166v.202l.104.172-.071.113c-.009.042-.026.084-.027.127-.002.222-.001.445-.001.656l.098.176-.077.118c-.047.308-.023.617-.017.905l.091.183-.094.145c-.023.597.013 1.219-.018 1.829l-.106.176c-.017.103.051.17.1.27v.611c.003-.015.003.008-.008.027-.021.039-.046.076-.071.115.028.121.113.223.1.364-.016.176-.004.355-.004.539l-.097.168a.165.165 0 0 0 .003.184l.082.127v.472l-.116.207v.197l.115.194v.623l-.105.182c-.018.111.061.171.109.275 0 .084.014.197-.004.304-.015.083-.072.158-.115.247v.449l.106.178c.048.166-.029.3-.106.429v1.391l.095.179-.103.183v2.704a71.54 71.54 0 0 1-.099.195c.152.179.091.386.098.601-.034.062-.074.139-.115.217.008.042.003.093.027.124.125.166.116.326.001.49-.009.013-.001.036-.001.054l.074.121c.04.549.01 1.105.011 1.677a5.714 5.714 0 0 0-.088.159c-.035.062-.038.125.007.183.075.095.111.194.02.297-.118.134-.014.24.038.353-.096.169-.097.169-.088.372.036.058.07.116.103.172.008.203.008.203-.098.371-.007.021-.016.04-.02.061-.004.022-.003.045-.003.067v1.98l.117.191c.016.098-.032.172-.081.234-.012.031-.022.05-.025.071-.005.022-.005.045-.005.067l-.016 5.341v.409l-.104.16a.402.402 0 0 0 .084.371l-.061.169.065.114a3.503 3.503 0 0 1-.076.127c-.052.161-.01.339-.019.512l.109.181v.464c-.055.135-.151.265-.107.428l.106.171c.023.137.014.266-.092.377l.097.175v.336l-.096.163.1.183c-.019.049-.033.113-.067.166a.329.329 0 0 0-.007.372l.071.118v.337c-.029.052-.063.109-.11.194-.025.437-.003.903-.01 1.383l.084.17c-.11.318-.11.318.034.601v.461a9.074 9.074 0 0 1-.092.164c.032.064.081.122.086.183.017.199.018.4.024.598l.115.182v.593c-.065.133-.128.272-.133.431l-.251.311v.293c.037.078.087.175.127.276a.476.476 0 0 0 .27.272c.16.071.313.157.474.238l.105-.065c.037.014.081.02.111.043a.167.167 0 0 0 .186.019c.078-.04.146-.1.243-.083l.158.108c.14 0 .273.004.406-.002.16-.006.3.046.434.126.016.01.044.001.07.001l.186-.109h.989l.191.102c.33.039.684.015 1.026.014l.173-.112c.13-.029.205.081.277.102.133.022.189-.064.285-.102h.196l.228.121h2.043l.18.102c.077-.059.151-.104.246-.104l2.203.005h.856l.193.125.338-.124.183.117c.111.007.219.017.319-.054.05-.034.119-.043.169-.059l.185.116h.196l.191-.108h.501l.174.107c.106.014.171-.053.246-.099.072.03.135.113.224.029.054-.05.124-.049.186-.023.06.026.114.067.172.102h.854l.175-.103.165.101h1.542l.17.107.139-.087c.194-.007.414-.02.635-.022.134-.002.267.011.385.017l.181.094a.431.431 0 0 1 .31-.113l.999.021.177.113h.858c.109-.018.176-.146.321-.095l.161.104.344-.13.193.122h2.324l.178-.098c.135.091.27.173.388-.01l.198.117h.441l.186.101c.15-.144.331-.105.508-.093l.167.107c.098.018.166-.046.237-.089.024-.008.045-.022.064-.022h1.136l.163.095c.191-.158.37-.109.545.018.1.015.167-.049.241-.094l.175.099h.461l.173-.097.17.101h.203c.038-.023.078-.043.113-.07.081-.062.158-.061.239-.001.036.027.076.047.114.071h.454l.183-.107c.165-.049.301.017.438.11h.981l.193-.117.191-.011.466.234c.056-.031.112-.064.174-.1h.727l.188.115h.468c.092-.016.163-.139.293-.103l.166.103c.042-.006.1.003.125-.021.14-.143.275-.063.412 0 .151-.142.336-.071.487-.092l.193.124h.852c.05-.029.089-.05.125-.074.082-.056.161-.063.243-.002.035.027.075.048.122.077h.998l.167-.1.184.1h.441l.18-.1.176.108h1.273l.165.103c.172.03.345.053.504-.068.017-.013.077.018.108.041.039.029.08.054.123.035.081-.032.155-.08.236-.11.082-.03.181.015.255-.052.107-.095.243-.093.341-.092.208-.163.349-.326.432-.54.047-.122.119-.234.194-.378v-1.997c.033-.149.147-.222.121-.344-.038-.057-.074-.114-.109-.169 0-.179.004-.357-.002-.534-.004-.099.052-.166.099-.24l-.105-.187v-.974c.029-.049.047-.09.074-.124.06-.08.066-.158.005-.24-.027-.036-.046-.076-.072-.118v-.327c.023-.042.039-.084.066-.119.058-.082.061-.159.002-.241-.027-.036-.044-.077-.068-.121v-.328l.107-.172c.032-.199.027-.393-.102-.563-.013-.099.056-.165.109-.265v-.71c-.049-.141-.151-.27-.113-.435l.117-.181v-.736l-.094-.171.097-.189v-2.553l.101-.199c-.113-.143-.098-.32-.096-.505l.097-.165c-.112-.148-.089-.326-.088-.507l.096-.168c-.144-.193-.107-.418-.1-.636.175-.203.155-.404.002-.605l.001-.197c.169-.205.151-.407 0-.609v-.46l.12-.191-.119-.345.123-.201v-3.128c.185-.202.116-.452.128-.666l-.097-.189c.156-.151.066-.286-.012-.419-.017-.1.053-.165.107-.269v-1.125l-.116-.214v-.331l.12-.199v-2.042c.032-.062.062-.119.101-.19l-.067-.152.072-.113-.062-.168.069-.114c.034-.15.033-2.282 0-2.798l-.075-.126.098-.194v-1.618l.127-.255v-.328a11.245 11.245 0 0 1-.116-.187v-.467l.125-.235V9.291l.108-.167-.071-.115c-.049-.129-.021-.262-.028-.396l.111-.17c.036-.141-.136-.222-.113-.368l.107-.168c.046-.158-.036-.292-.107-.432v-.326l.114-.186v-.325a15.305 15.305 0 0 0-.111-.222v-.463l.112-.178c.011-.098-.04-.171-.099-.242l.098-.176.02-.731c.031-.056.063-.114.097-.172a10.821 10.821 0 0 1-.098-.173v-.592l.107-.188c0-.209.072-.433-.079-.645l.092-.182v-.573l-.425-.847-.464-.33c-.115-.035-.267.013-.334-.113-.069-.014-.112-.029-.154-.029-.311-.002-.623-.001-.926-.001-.065.041-.122.076-.175.111-.17.057-.299-.035-.446-.121h-.835l-.185-.103-.115.075-.172-.086c-.169.018-.309.189-.498.095a9.761 9.761 0 0 1-.184-.119c-.073.014-.169.013-.242.052-.101.055-.2.105-.313.076-.083-.021-.159-.07-.263-.119h-.842l-.169.103-.159-.105h-3.143a15.043 15.043 0 0 0-.178-.104c-.145-.032-.3-.022-.478-.018l-.209.112c-.1.012-.169-.045-.24-.096l-.118.07a.847.847 0 0 0-.864.021c-.1.016-.161-.062-.266-.112h-3.114l-.229-.129h-.191c-.062.039-.119.074-.172.109-.204.031-.397.014-.585-.114l-.224.097-.113-.071-.176.094h-.46c-.062-.035-.117-.076-.18-.097-.105-.036-.215-.048-.315.025-.035.025-.075.044-.128.074-.049-.021-.112-.039-.164-.074-.084-.057-.16-.059-.241 0-.036.026-.076.046-.12.073h-.203l-.186-.111c-.241-.036-.505-.019-.748-.011l-.192.12h-.331c-.247-.157-.492-.187-.737-.008-.102.019-.165-.053-.265-.109h-.831c-.069-.038-.128-.069-.184-.101a.176.176 0 0 0-.186 0l-.127.077c-.853.059-1.72-.014-2.587.02L13.327.25h-.199l-.169.099c-.135-.134-.271-.087-.408-.003l-.113-.071c-.02-.007-.041-.021-.061-.021-.333-.002-.667-.001-.998-.001l-.177.11h-.195a16.575 16.575 0 0 0-.236-.123H8.166L8.01.127c-.128-.035-.2.079-.314.108h-.579l-.182-.11c-.098-.019-.169.036-.242.085-.115-.067-.234-.119-.377-.09l-.184.102c-.25.037-.515.003-.763.002L5.174.111H3.382c-.043.024-.084.043-.12.068-.08.056-.159.066-.243.007C2.982.16 2.943.139 2.891.107H.176L0 0" style="fill:#1e103b;fill-opacity:1;fill-rule:nonzero;stroke:none" transform="translate(439.623 297.026)"/><path d="M0 0v1.2l-.093.152c.026.063.066.136.083.213.015.064.002.133.002.201v.633l-.116.199v.197l.109.19v.375l-.109.181v.339c.029.049.07.102.095.163a.177.177 0 0 1-.025.186c-.027.034-.046.075-.067.111-.013.114-.011.222.062.318s.063.207.043.317l-.11.183v.465l.1.16-.098.168v.325l.1.182a.459.459 0 0 0-.107.309c.001.668-.002 1.336-.001 2.004.001.711.003 1.423.009 2.135a.812.812 0 0 1-.104.361c.032.065.081.124.083.183.009.244.004.489.004.702l-.091.191.087.139v.634l-.106.181c.01.044.009.092.029.126.047.077.09.152.09.246v1.305a16.71 16.71 0 0 0-.119.196c.008.042.005.09.025.125.045.077.092.15.091.244v.732c-.043.084-.081.164-.122.246v.196c.024.038.044.078.069.114.06.083.05.162-.004.243-.025.036-.04.076-.061.116-.017.099.065.159.1.241.01.215.01.215-.098.431-.018.101.073.156.116.276v1.47l.127.248v.867l-.114.191v.857c.059.129.138.223.281.263.081.023.152.083.235.13h.719l.177.117a.425.425 0 0 0 .373-.095c.095.043.179.108.299.105.31-.009.623 0 .934.001l.852.001c.056.028.099.043.133.068.107.083.204.058.293-.019.079-.029.117.043.175.058.04.011.089.012.128-.002.06-.025.115-.066.177-.103h.986l.181.111c.217.008.217.006.385-.081l.182.093h.724l.164-.093c.134.078.272.126.407-.006l.175.104h3.528l.176.107.161-.097h.869l.178.097.146-.093c.186-.03.407.003.623-.008l.173.112c.099.023.166-.041.248-.093.166-.041.343-.009.517-.011l.182.114h.736l.162-.094c.377.161.32.126.597-.02h.195l.195.116h1.516c.106-.019.175-.14.3-.111l.169.11c.219.012.444.061.643-.101l.184.106h.837l.185.103.182-.096c.049.019.115.034.168.068.083.054.163.072.239.003.091-.082.153-.001.224.03.075-.047.141-.114.258-.086l.153.1c.121.028.194-.085.295-.112h.727l.191.116h1.529c.192-.14.393-.17.595-.02.077-.061.149-.109.247-.084l.179.115h4.446l.227.117c.125.012.179-.076.275-.113h.181c.136.082.268.164.431.11l.18-.11h.461l.201.121c.234.033.499-.026.725.014l.224-.133h.447l.229.131h3.259l.187.121h.613c.156-.136.351-.146.555-.11l.169.105c.11.018.216.018.317-.05.051-.035.119-.045.171-.063l.19.118h.195c.075-.037.152-.077.231-.112.02-.008.045-.001.07-.001l.173.116h.325l.177-.103.185.108h1.499l.188.105.168-.094.721-.018c.092-.046.167-.093.249-.121.062-.02.131-.017.187-.023.225-.14.341-.356.451-.572.05-.097.083-.203.166-.303v-2.041c.048-.094.103-.168.123-.251.03-.133.014-.266-.111-.343l.087-.137c.008-.042.025-.084.025-.127.003-.221.002-.444.002-.653l-.117-.2v-.584l.116-.239c.02-.175.027-.348-.089-.495l.084-.142v-.619l-.099-.184c-.02-.112.06-.172.109-.268v-1.661l-.111-.219c-.02-.104.065-.161.115-.28l.009-3.401c.047-.079.081-.137.117-.195v-.333c-.083-.132-.156-.267-.108-.432l.108-.17v-.862c-.167-.301-.167-.301.005-.615V7.16a6.704 6.704 0 0 1-.105-.179l.079-.127c.046-.159.028-.335.022-.507l-.098-.171.073-.117-.067-.161.088-.142.02-1.169c.088-.1.122-.193.005-.272a4.669 4.669 0 0 1 .002-.66l.085-.134a25.027 25.027 0 0 0-.093-.174c0-.19.014-.391-.005-.589-.013-.15.08-.248.12-.37 0-.09.011-.181-.002-.268-.014-.081-.054-.157-.082-.236a6.18 6.18 0 0 0 .088-.135c.002-.087.007-.196.007-.307.004-.556.008-1.113.01-1.67 0-.155-.02-.312-.006-.466.013-.14-.075-.243-.096-.368l.082-.138.022-1.399.106-.214c.015-.1-.071-.158-.108-.259v-.458l.126-.236v-4.308l.102-.185c-.166-.197-.095-.424-.086-.642l.108-.182v-.602c-.028-.047-.068-.101-.095-.161-.027-.061-.032-.125.015-.186.024-.031.034-.072.051-.11l-.072-.112.11-.185v-2.04c.031-.055.05-.096.076-.132.06-.082.055-.16-.003-.242-.025-.035-.042-.076-.062-.114-.022-.103.061-.16.102-.237.016-.15.051-.309-.042-.447-.046-.068-.025-.113.01-.171.092-.154.06-.295-.058-.433l.099-.182v-.319l-.109-.221v-.201l.113-.187v-.45l-.111-.219c-.013-.122.071-.18.116-.289v-1.217c.079-.158.163-.291.118-.453l-.101-.167c-.018-.104.04-.174.101-.266.027-.625.004-1.269.028-1.893-.1-.199-.195-.371-.278-.549a.82.82 0 0 0-.402-.418c-.177-.085-.352-.175-.523-.261h-1.123l-.202.126c-.11-.042-.226-.108-.351-.127a.72.72 0 0 1-.288-.117c-.113-.022-.176.056-.255.088a.178.178 0 0 1-.185-.027c-.034-.027-.076-.046-.119-.073h-.591c-.043.025-.083.043-.119.069-.083.057-.163.054-.244-.003-.036-.026-.075-.046-.116-.072h-1.389c-.046-.028-.086-.047-.122-.075-.081-.061-.159-.061-.238.004-.096.081-.193.093-.294.005-.104-.092-.202-.061-.28.017-.053.019-.089.006-.129-.028-.015-.012-.036-.019-.055-.029l-.121.077c-.165.053-.342.022-.517.023l-.167-.098c-.155.125-.331.114-.51.097l-.163-.113c-.099-.016-.17.037-.243.087-.158-.095-.315-.147-.49-.031a.414.414 0 0 1-.185.053c-.088.008-.177.003-.255.003l-.187-.121h-.591l-.173.103a25.963 25.963 0 0 1-.128-.081c-.423-.075-.867-.015-1.309-.023-.445-.01-.89-.003-1.335-.003l-.169-.107-.166.095h-.6l-.178-.095c-.182.161-.363.103-.54.003-.076.059-.149.108-.248.084l-.163-.11h-.195c-.043.024-.083.044-.12.069-.08.055-.159.067-.243.008-.036-.026-.076-.047-.121-.074h-.727l-.173.1-.181-.104h-1.249c-.048.029-.088.049-.123.076a.17.17 0 0 1-.185.022c-.06-.025-.113-.067-.17-.102h-2.992l-.185-.114c-.199-.035-.397-.049-.546.11h-1.277l-.181-.102-.113.072c-.038-.019-.075-.039-.114-.053-.04-.015-.095-.043-.123-.027a.811.811 0 0 1-.57.093l-.181-.113h-3.519c-.069-.039-.122-.08-.184-.104a.17.17 0 0 0-.184.025c-.034.028-.077.046-.119.07h-.326c-.207-.157-.409-.157-.621.003h-.327c-.035-.022-.073-.045-.108-.072-.08-.063-.159-.062-.241-.003-.035.026-.075.047-.118.073h-.334l-.191-.112h-1.004l-.204.109h-.199l-.191-.112c-.849-.025-1.717-.013-2.596-.003l-.217-.124c-.101-.019-.164.054-.267.103H6.09l-.169-.113H5.72l-.17.102-.183-.105c-.054.024-.117.042-.168.078a.189.189 0 0 1-.185.024c-.041-.015-.076-.046-.114-.07l-.163.062-.187-.096c-.057.031-.116.057-.17.091a.18.18 0 0 1-.186.013c-.039-.02-.074-.048-.134-.089-.418-.031-.862-.005-1.289-.005l-.185.111c-.167.045-.296-.056-.438-.108-.046-.01-.084.007-.122.038-.033.028-.075.048-.129.081h-.565c-.154.082-.279.188-.441.13-.146.139-.276.261-.403.385-.112.111-.125.279-.218.404v.848c-.042.072-.075.127-.101.174.031.067.081.126.084.186.015.312.017.623.024.957l.083.174c-.029.083-.075.179-.094.28-.017.085-.004.175-.004.236a21.15 21.15 0 0 0-.127.209c.021.052.036.118.069.171.077.125.08.248.009.374l-.07.118v.459c.024.043.044.083.069.119.056.081.07.167.002.241-.083.091.005.151.025.225-.097.107-.113.236-.093.373l.11.18v.341l-.102.193c-.023.183-.02.403-.006.625l.081.131c-.026.064-.069.137-.083.215-.015.086-.004.177-.005.267L.13-11.49l-.097.177.093.147v.601l-.11.204c-.017.101.059.163.112.28.008.537.009 1.113-.002 1.664l-.115.196v.2l.102.174c.035.201.044.396-.102.564v.332c.14.147.116.329.113.524l-.108.219c.009.041.008.091.031.123.115.167.116.327-.008.488-.014.018-.02.039-.032.063v2.053l.107.179c.036.13-.061.209-.111.324v2.44l.113.185C.148-.228.039-.151 0 0" style="fill:#1e103b;fill-opacity:1;fill-rule:nonzero;stroke:none" transform="translate(483.255 273.779)"/><path d="m0 0 .174.099h1.528l.18.1.182-.094h.824c.121.017.188.143.314.115l.184-.116h1.116l.235.125c.265 0 .533-.006.799.002.101.003.151-.082.242-.095.162.095.162.095.366.09.055-.037.112-.073.166-.108.099-.019.171.032.241.087L6.72.143c.038.023.076.046.132.082h1.942L9.02.111c.047.022.112.038.163.075.061.043.137.062.183.026.106-.083.192-.077.276.009.172.05.368-.044.518.116l.187-.093h.452l.172.096.177-.1h1.262c.049.03.107.063.165.097l.166-.092h.198c.041.025.082.043.119.068.083.06.164.058.24-.005.097-.081.155.01.227.044.46.009.46.009.641-.082.019.005.04.007.055.018.139.103.279.115.429.018.053-.035.12-.047.171-.068.068.046.122.084.186.126h.443c.24-.116.24-.116.45-.114l.182.118h.969c.095-.048.17-.097.252-.122.061-.018.132-.004.191-.004l.309.24c.116.024.178-.052.285-.101h.734l.207.111h.328c.181-.121.361-.18.551-.024.136-.054.271-.152.409-.003.013.014.039.015.06.021.048.012.086-.003.124-.033.034-.027.076-.047.121-.073h.33l.224.119h.73c.064-.04.119-.077.176-.114.042.003.09-.005.127.011.061.024.114.065.176.103h1.118l.175-.101.146.095c.277.058.591-.046.911.033l.102.06c.074.036.11-.047.169-.056.308-.05.618-.013.916-.023l.184.121h.206c.048-.028.102-.068.163-.094a.175.175 0 0 1 .185.022c.033.027.075.045.112.065.024 0 .048.006.068-.001.101-.036.179-.134.3-.122a.327.327 0 0 0 .242-.087c.057-.048.127-.032.19-.047a.575.575 0 0 0 .121-.041c.018-.009.037-.031.04-.05.033-.187.239-.258.289-.437.023-.082.098-.149.121-.232.025-.088.077-.158.114-.237.027-.059.017-.126-.028-.185-.022-.03-.027-.075-.039-.112l.08-.132v-.591l-.108-.224c-.016-.101.058-.163.107-.255.032-.718.013-1.451.013-2.191-.03-.054-.066-.11-.092-.169-.016-.038-.039-.099-.021-.123.092-.133.102-.285.137-.434.041-.182.049-.18-.014-.298v-1.271l.091-.155-.064-.164.072-.11-.101-.172v-.462l.111-.179c.031-.122-.08-.196-.114-.312v-.59l.114-.18v-.638l-.111-.183v-.192l.114-.193v-.871c0 .001-.002-.021-.011-.04-.023-.039-.048-.075-.08-.123l.091-.182c.006-.465.017-.954.017-1.444.001-.6-.009-1.201-.013-1.801 0-.089 0-.18.018-.267.012-.062.054-.118.09-.189a6.353 6.353 0 0 1-.085-.162c-.016-.168-.035-.344.015-.518.012-.041.047-.075.075-.117l-.098-.184v-1.249l.116-.2.017-3.399.096-.2-.078-.123c-.005-.021-.015-.043-.015-.063v-1.104l.121-.198v-.203l-.103-.171c.023-.035.046-.073.074-.119l-.092-.184v-.459l.108-.211c0-.076.012-.144-.003-.208-.014-.058-.055-.112-.081-.163l.091-.148c.006-.774.013-1.573.018-2.36.082-.104.129-.198.011-.283.098-.123.143-.244.058-.452l-.061-.103c-.041-.166.049-.298.11-.461l-.111-.214c-.014-.1.045-.169.089-.241.007-.024.017-.044.018-.066v-.59l-.114-.178v-.328c.026-.043.045-.082.071-.118.056-.081.062-.159.002-.242-.027-.034-.044-.075-.067-.113 0-.023-.009-.052.002-.067.112-.151.131-.322.112-.529l-.113-.204c-.016-.102.058-.163.102-.247.07-.523-.017-1.057.026-1.566l.096-.179-.079-.119.099-.17v-.33a17.886 17.886 0 0 0-.105-.173c-.034-.13.075-.204.113-.33v-2.162l.1-.181c-.035-.061-.07-.117-.094-.16v-1.261c.04-.079.068-.136.093-.182-.033-.069-.083-.128-.087-.188-.01-.199-.004-.4-.004-.589l.079-.123c.031-.074-.047-.109-.061-.167-.044-.175-.013-.352-.005-.523l.114-.193v-1.639l.105-.185-.097-.167v-.204l.111-.191v-.337c-.028-.104-.139-.196-.128-.346.01-.135-.15-.216-.151-.358-.121-.13-.238-.265-.364-.389-.045-.043-.116-.06-.173-.09l-.485-.253h-.978c-.139.066-.267.165-.438.117l-.181-.121h-.835l-.201-.105c-.118-.034-.25-.017-.379-.011l-.176.107h-.197a31.435 31.435 0 0 1-.235-.126l-.187.011-.182.111h-.2c-.074-.037-.153-.075-.245-.122h-.839l-.172.101-.131-.088c-.051-.006-.115-.02-.181-.02-.4-.001-.8.006-1.201-.001-.137-.002-.249.057-.366.104l-.135-.095c-.195-.023-.417-.007-.637-.01-.223-.005-.445-.001-.673-.001l-.17-.112h-.469c-.048.029-.101.069-.161.094-.062.026-.126.032-.187-.016-.031-.024-.072-.036-.108-.052a2.668 2.668 0 0 0-.113.071 7.814 7.814 0 0 1-.171-.104h-.588l-.182.103-.182-.106h-3.252c-.068-.044-.123-.082-.179-.12-.125-.03-.198.079-.302.114h-.327a10.76 10.76 0 0 0-.181-.107c-.129-.023-.261-.035-.356.081l-.171-.06c-.067.031-.125.078-.185.081-.155.009-.31-.002-.45-.004l-.185-.113h-.2l-.173.104-.163-.103h-.197c-.304.17-.304.17-.616-.007h-.593l-.178.105c-.121.038-.253.017-.387.007l-.185-.108H8.08l-.18.104-.178-.109H6.87c-.209-.19-.41-.141-.621.001H3.801c-.07-.041-.127-.076-.189-.114-.103-.012-.216-.039-.311.038-.063.051-.116.04-.168-.005-.059-.05-.123-.048-.185-.023-.059.026-.114.064-.154.087-.12.016-.179-.067-.278-.109h-.857l-.222.114h-.195l-.192-.121h-2.719a8.199 8.199 0 0 1-.181-.106c-.049.029-.105.059-.165.092-.24 0-.484.005-.728-.005-.061-.002-.118-.054-.181-.085l-.107.061c-.323-.109-.323-.109-.616.034h-.445l-.179-.094c-.042.027-.081.05-.119.073l-.18-.1h-1.917c-.049.028-.088.049-.124.074-.084.058-.162.052-.243-.009-.035-.026-.075-.045-.119-.071h-2.601l-.165-.106-.173.099h-.207l-.161-.096-.111.074c-.043.01-.085.027-.127.027-.4.002-.8.001-1.187.001l-.19-.111a.757.757 0 0 0-.579.11h-1.642a.997.997 0 0 1-.312.14c-.189.042-.381.103-.522.254-.092.097-.196.185-.276.291-.078.103-.098.242-.185.343-.027.143.161.218.111.367l-.116.177v.99l.114.207v.634l-.12.179v4.853l-.124.24v.716l.093.18c-.1.116-.148.257-.076.375.092.15.128.268.006.416-.04.046-.024.124.024.182.026.033.041.077.061.114.017.102-.06.163-.102.242-.036.106.001.216-.005.343.024.044.053.103.085.16a.178.178 0 0 1 0 .186c-.021.038-.048.075-.073.115-.05.15-.02.305-.015.478l.085.159a.174.174 0 0 1 .001.186l-.081.129v.603c.022.039.055.096.085.153a.178.178 0 0 1-.007.187l-.085.138v3.631c-.041.075-.073.131-.102.191-.032.062-.038.128.009.183.105.125.09.242-.015.361l.098.185v.973c-.032.112-.143.185-.117.309l.112.178v.331c-.131.194-.184.394-.006.597 0 .022.007.048-.001.066-.027.061-.058.119-.1.204-.03.102-.008.233.005.362l.104.185v1.386l-.117.199v1.267l.081.165c-.036.133-.105.263-.102.422.013.778.013 1.557.016 2.337.001.11-.009.22-.013.31l-.084.134c.031.122.101.23.095.367-.011.267-.002.534-.002.802l-.119.232c-.014.101.073.158.109.253 0 .185.006.385-.004.584-.004.061-.054.119-.087.188l.09.161v.329c-.02.106-.135.179-.107.299l.11.182v.336l-.099.164.101.167v.199l-.112.192v.631l.112.184v.198l-.107.173c-.007.039-.02.082-.02.125v2.07c0 .089.004.179.008.268a.17.17 0 0 0 .014.063c.026.056.054.109.076.156-.032.053-.054.091-.088.143v.872l.084.161c-.12.218-.156.442.004.666l-.061.169.069.111-.103.171v3.125l.122.209.007 1.313a.395.395 0 0 1-.1.249l.083.174.024.691c.035.171.184.142.26.217.063.062.129.126.204.171.056.033.127.026.183-.024.057-.051.111-.045.169 0 .114.09.206.014.304-.05l.181.1c.158 0 .336.007.513-.002.162-.008.298.051.433.125.018.009.044.001.068.001l.184-.111h.863l.233.12h.984l.178-.109c.197-.011.197-.011.433.101.066 0 .066 0 .237-.103.135-.015.271-.035.353.098.727.045 1.437.001 2.126.021l.175.094c.071-.035.128-.086.188-.089.244-.01.488-.004.709-.004l.185.098c.077-.062.155-.11.248-.086.056.016.107.057.154.083l.141-.086c.54-.037 1.096.012 1.655-.013l.229.122c.042-.01.096-.006.123-.03.124-.112.239-.089.356.005.016.013.039.019.057.029h.2c.04-.025.081-.044.115-.072.057-.047.123-.048.185-.023.06.023.114.064.165.094.05-.013.102-.01.131-.034.123-.102.239-.104.355.006.037-.016.077-.029.11-.051.062-.042.124-.038.188-.012.267.113.266.111.543.006.024-.009.073.045.106.067a7.29 7.29 0 0 0 .161-.088c.116-.017.175.063.282.115.28-.018.589.041.897-.027C-.078.065-.044.028 0 0" style="fill:#1e103b;fill-opacity:1;fill-rule:nonzero;stroke:none" transform="translate(450.7 294.628)"/><path d="M0 0c1.251.363 2.515.562 3.822.411.355-.041.731-.054 1.077.018 1.069.22 2.135.294 3.221.153.353-.046.723-.013 1.079.03 1.94.238 3.881.203 5.823.043a2.34 2.34 0 0 1 .324-.011c1.258.072 2.515.15 3.774.219.4.022.79-.012 1.136-.257.348-.247.576-.535.479-.998-.044-.211-.027-.434-.077-.643-.346-1.477-.449-2.986-.633-4.485-.056-.463-.176-.919-.283-1.376-.593-2.559-1.249-5.105-1.763-7.68-.244-1.228-.518-2.458-.569-3.733-.047-1.179-.122-2.378-.477-3.526a.83.83 0 0 1-.046-.212c-.066-1.697-.604-3.315-.831-4.987a322.207 322.207 0 0 0-1.015-6.842c-.141-.884-.372-1.752-.547-2.631-.11-.559-.191-1.123-.297-1.75.252-.059.448-.145.644-.145.576-.001 1.153.022 1.728.056.409.023.581.177.627.599.089.823.136 1.651.221 2.474.117 1.145.25 2.289.382 3.432.057.501.099 1.006.204 1.497.298 1.407.627 2.808.939 4.213.289 1.299.57 2.6.86 3.899.242 1.086.489 2.172.738 3.257.476 2.069 1.144 4.084 1.751 6.114.277.924.716 1.805 1.129 2.683.923 1.962 2.167 3.733 3.375 5.52.44.652 1.007 1.219 1.521 1.819.117.136.273.238.386.377C30.058-.796 31.919.044 33.891.681c.647.209 1.352.236 2.004.437.483.15.955.308 1.462.338 1.005.059 2.01.128 3.016.182.684.037 1.371.016 2.05.091 1.362.151 2.726.164 4.094.202 1.256.035 2.523-.067 3.76.043 1.239.109 2.437-.194 3.663-.09.478.04.987-.173 1.463-.328.178-.057.368-.252.437-.43.102-.26.139-.561.139-.844.005-1.403 0-2.803-.167-4.204-.12-.998-.039-2.018-.141-3.019-.166-1.618-.044-3.235-.065-4.852-.008-.751.119-1.504.181-2.256.086-1.039.161-2.079.256-3.117.25-2.767.111-5.541.149-8.311.021-1.475.057-2.95.077-4.425.009-.785.068-1.573-.057-2.356a1.384 1.384 0 0 1 .017-.43c.381-2.32.318-4.669.445-7.005.06-1.114.029-2.232.036-3.348.005-.713-.537-1.348-1.263-1.509-1.142-.253-2.299-.202-3.438-.061-.797.099-1.577.097-2.369.031-.537-.045-1.077-.072-1.616-.104-1.113-.066-2.225-.142-3.338-.191-.719-.032-1.441-.021-2.161-.035-.683-.012-1.368-.047-2.051-.045-1.442.005-2.882.026-4.324.043a3.45 3.45 0 0 0-.43.037c-.401.055-.673.287-.757.671a6.875 6.875 0 0 0-.175 1.283c-.028 1.176-.509 2.169-1.241 3.039-.457.541-1.056.837-1.818.696-.744-.138-1.493-.141-2.255-.112-1.511.056-3.03.053-4.539-.026-1.693-.088-2.912-.95-3.573-2.535a2.357 2.357 0 0 1-.173-.732c-.096-1.511-.132-3.012.162-4.52.32-1.64 1.163-2.755 2.766-3.266.034-.011.07-.02.103-.033 1.514-.562 1.518-.598 3.028-.459 1.479.137 2.953.066 4.43.06.217-.001.434-.034.648-.018 1.435.105 2.877.108 4.306.223 2.803.224 5.605.309 8.414.303 1.44-.004 2.89-.107 4.318.025 1.727.159 3.452.032 5.173.155.51.036 1.006-.003 1.489-.186.381-.144.579-.401.597-.81.04-.962.252-1.911.021-2.89-.112-.473.03-1.002.029-1.505-.005-1.478-.029-2.955-.034-4.431-.001-.54.011-1.082.057-1.62.029-.327.132-.672-.156-.91-.334-.276-.734-.535-1.183-.409-.779.218-1.578.104-2.362.212-.891.124-1.792.163-2.69.045a.829.829 0 0 0-.216-.01c-1.584.194-3.163-.011-4.745-.048-1.476-.035-2.953.028-4.43.028-.611-.001-1.224-.052-1.835-.082-.862-.041-1.725-.13-2.585-.112-.725.017-1.436-.047-2.154-.116-1.038-.101-2.078-.23-3.118-.239-.894-.007-1.787.176-2.683.205-1.848.061-3.679-.024-5.347-.97a5.55 5.55 0 0 1-.626-.424c-.455-.347-.708-.805-.731-1.385-.023-.576-.101-1.155-.076-1.729.053-1.217-.033-2.445.378-3.636.16-.465.122-.997.213-1.492.311-1.698.63-3.394.962-5.089.243-1.236.521-2.466.761-3.703.152-.778.231-1.571.403-2.344.249-1.122.568-2.229.83-3.349.336-1.436.646-2.878.965-4.318.178-.809.38-1.614.52-2.429.317-1.844.601-3.694.9-5.54.14-.852.286-1.703.432-2.554.11-.638.218-1.276.344-1.911.314-1.589.634-3.177.96-4.763.21-1.022.444-2.041.648-3.064.063-.317.086-.645.087-.968.002-.433-.021-.843.264-1.235.193-.265.054-.593-.258-.706-.367-.133-.759-.258-1.144-.273-1.619-.058-3.24-.065-4.86-.11-.647-.018-1.307-.023-1.938-.145-.58-.113-1.145-.077-1.72-.071-.899.009-1.798-.011-2.696-.013-.974-.002-1.947.013-2.919.004-1.331-.012-2.662-.046-3.993-.056-.648-.005-1.296.015-1.945.034-1.69.05-3.382.106-5.073.159-.468.014-.935-.008-1.384.184a1.02 1.02 0 0 1-.524.053c-.255-.036-.508-.096-.71.111-.231.234-.409.503-.406.854.001.072.01.144.009.216-.029 2.045-.053 4.091-.09 6.136-.03 1.69-.109 3.38-.102 5.071.006 1.472-.049 2.939-.065 4.409-.017 1.576 0 3.154-.02 4.732-.034 2.734-.104 5.467-.132 8.202-.019 1.827.018 3.655.009 5.483-.004.934-.062 1.867-.077 2.801-.035 2.266-.055 4.534-.092 6.802-.02 1.182-.084 2.365-.089 3.547-.006 1.501.034 3.002.04 4.503.001.394-.067.787-.074 1.181-.028 1.691-.045 3.385-.069 5.077-.018 1.292-.04 2.584-.061 3.877-.001.034-.025.069-.025.104-.009 1.4-.014 2.799-.024 4.198-.008 1.185-.018 2.371-.03 3.557-.016 1.584-.024 3.168-.052 4.751-.023 1.332-.075 2.664-.103 3.996-.007.358.047.717.042 1.076-.018 1.041-.106 2.084-.07 3.123.072 2.007-.05 4.012-.02 6.018.022 1.509-.037 3.019-.049 4.528-.018 2.414-.033 4.828-.035 7.241-.004 3.602-.003 7.205.016 10.806.004.717.094 1.434.159 2.15.008.098.094.189.148.292" style="fill:#1e103b;fill-opacity:1;fill-rule:nonzero;stroke:none" transform="translate(629.056 353.649)"/><path d="M0 0c-.157-.443-.224-.768-.381-1.04a1.96 1.96 0 0 1-.237-1.251c.103-.856.24-1.709.367-2.563.026-.177.108-.354.103-.529-.039-1.036.383-1.972.611-2.951.195-.842.369-1.687.569-2.528.365-1.538.697-3.083 1.086-4.617.477-1.879.923-3.778 1.013-5.735.024-.535.165-1.066.273-1.595.283-1.375.568-2.749.869-4.12.356-1.616.73-3.229 1.097-4.843.031-.14.077-.278.106-.419.311-1.552.628-3.103.923-4.659.074-.383.061-.782.116-1.17.049-.353.129-.703.212-1.05.184-.769.401-1.53.565-2.303.231-1.091.435-2.188.637-3.284.156-.849.282-1.703.441-2.551.093-.494.234-.98.338-1.473.096-.456-.131-.788-.578-.872a1.282 1.282 0 0 0-.321-.02c-.503.037-1.005.072-1.506.127-.359.038-.593.248-.685.598-.352 1.358-.856 2.677-1.033 4.08-.059.464-.17.921-.259 1.382-.17.882-.255 1.791-.53 2.639-.424 1.305-.643 2.65-.969 3.974-.249 1.01-.581 2.006-.74 3.03-.193 1.245-.574 2.447-.73 3.698-.07.567-.282 1.116-.378 1.682-.127.744-.201 1.497-.304 2.245-.26 1.889-.6 3.762-.994 5.627-.23 1.09-.386 2.194-.601 3.288-.159.81-.343 1.617-.544 2.419-.437 1.744-.754 3.511-1.029 5.287-.209 1.349-.476 2.688-.686 4.037-.076.495-.07 1.004-.087 1.508-.011.358.029.721 0 1.078-.083 1.05.358 1.883 1.026 2.639.287.323.657.459 1.061.443C-.83.194-.484.09 0 0" style="fill:#1e103b;fill-opacity:1;fill-rule:nonzero;stroke:none" transform="translate(659.013 288.42)"/><path d="M0 0c0-1.946-.018-3.893.007-5.839.012-.899.125-1.796.157-2.695.048-1.332.037-2.667.104-3.998.048-.971.195-1.936.272-2.906.042-.536.032-1.075.043-1.613.009-.394.015-.787.021-1.181l.129-8.322c.002-.108.02-.216.015-.324-.102-2.31.154-4.607.255-6.91.036-.826-.002-1.655-.024-2.482-.005-.213-.068-.428-.125-.636-.22-.795-.612-1.009-1.452-.807-1.243.298-1.246.297-1.392 1.63-.11 1.002-.213 2.006-.316 3.009-.018.179-.044.364-.022.54.227 1.835-.02 3.661-.081 5.492-.055 1.654-.11 3.31-.136 4.966-.025 1.55-.014 3.1-.015 4.651 0 .252-.004.507.03.755.202 1.472.143 2.943.083 4.423-.067 1.652-.111 3.309.038 4.962.007.072.022.144.02.215-.061 2.195.121 4.391-.075 6.585-.061.681-.114 1.37-.081 2.051.062 1.231-.09 2.445-.159 3.666-.03.535.017 1.082.1 1.613.107.69.381.907 1.081.99.884.106 1.288-.148 1.45-1.038.102-.561.102-1.146.106-1.72C.046 3.384.038 1.692.038 0H0" style="fill:#1e103b;fill-opacity:1;fill-rule:nonzero;stroke:none" transform="translate(693.005 346.798)"/><path d="M0 0c.008-.125.05-.271.021-.399-.395-1.797-.25-3.572.139-5.354.445-2.041.834-4.095 1.231-6.146.219-1.131.377-2.275.614-3.402.193-.915.416-1.829.714-2.714.368-1.095.634-2.21.884-3.336.39-1.753.857-3.49 1.277-5.238.353-1.469.647-2.954 1.043-4.411.32-1.18.703-2.342.904-3.552.111-.674.2-1.354.37-2.014.331-1.293.507-2.613.735-3.924.11-.638.297-1.262.432-1.896.31-1.442.617-2.885.909-4.332.079-.386.091-.786.139-1.178.033-.272-.073-.484-.243-.689-.205-.249-.449-.361-.76-.273-.297.083-.517.265-.571.583-.137.815-.256 1.633-.392 2.449a522.903 522.903 0 0 1-.634 3.712 2.845 2.845 0 0 1-.177.623c-.346.802-.441 1.658-.608 2.503-.174.882-.366 1.771-.677 2.611-.368.989-.435 2.039-.753 3.035a28.87 28.87 0 0 0-.677 2.609c-.239 1.088-.423 2.189-.648 3.282-.26 1.265-.546 2.527-.811 3.793-.234 1.126-.429 2.261-.69 3.381-.238 1.013-.552 2.009-.813 3.018-.206.799-.415 1.6-.567 2.409-.394 2.086-.8 4.172-1.12 6.271-.286 1.882-.689 3.757-.549 5.686.063.873.358 1.683.589 2.51.076.271.275.516.689.383" style="fill:#1e103b;fill-opacity:1;fill-rule:nonzero;stroke:none" transform="translate(664.438 288.097)"/><path d="M0 0c-.019-1.508-.047-3.017-.05-4.525-.002-.61.061-1.22.074-1.831.021-.936.017-1.872.039-2.808.055-2.302.13-4.603.175-6.905.033-1.725.036-3.452.045-5.177.016-2.843-.011-5.688.045-8.53.058-2.916-.051-5.831.007-8.746.011-.54.069-1.078.079-1.616a7.767 7.767 0 0 0-.063-1.067.773.773 0 0 0-.193-.375c-.461-.524-1.035-.415-1.21.259a3.593 3.593 0 0 0-.099 1.174c.127 1.582-.038 3.159-.045 4.737-.004.972-.015 1.944-.034 2.915-.027 1.257-.078 2.515-.096 3.772-.02 1.291-.012 2.583-.02 3.875-.02 3.633-.041 7.266-.064 10.9-.027 4.175-.058 8.35-.084 12.525-.009 1.398-.146 2.799.077 4.194.029.177.027.361.071.534a.64.64 0 0 0 .642.477c.291-.012.52-.225.558-.553.03-.25.018-.503.033-.755.049-.825.1-1.649.151-2.473L0 0" style="fill:#1e103b;fill-opacity:1;fill-rule:nonzero;stroke:none" transform="translate(698.345 351.068)"/><path d="M0 0c0 1.653-.009 3.306.004 4.958.007.84.695 1.294 1.488 1.011.658-.235.932-.63.929-1.386-.003-.788-.048-1.576-.034-2.363.025-1.47.085-2.938.122-4.408.029-1.112.058-2.224.06-3.336 0-.316-.042-.654-.16-.943-.287-.7-1.169-.961-1.819-.572-.304.182-.409.468-.448.812C.001-4.976.058-3.722.047-2.469.04-1.646.046-.823.046 0Z" style="fill:#1e103b;fill-opacity:1;fill-rule:nonzero;stroke:none" transform="translate(691.328 297.717)"/><path d="M0 0c-.177-.587-.307-1.109-.492-1.61-.176-.476-.267-.961-.355-1.46-.217-1.244.094-2.438.287-3.637.078-.476.409-.912.626-1.365.243-.506.097-.824-.43-.981-.582-.173-1.154-.069-1.694.118-.242.083-.484.341-.601.581-.234.479-.425.99-.553 1.508a11.759 11.759 0 0 0-.319 1.915c-.042.569-.05 1.166.074 1.717.243 1.084.521 2.172 1.148 3.117.109.164.314.345.493.367C-1.25.34-.677.329 0 0" style="fill:#1e103b;fill-opacity:1;fill-rule:nonzero;stroke:none" transform="translate(659.454 312.991)"/><path d="M0 0c-.221-.181-.322-.287-.444-.359-.568-.339-1.081-.066-1.11.599-.02.502.017 1.006-.01 1.506-.109 1.942.195 3.868.196 5.805.001 1.116.003 2.232.017 3.347.008.568.179.852.479.831.441-.03.404-.452.538-.719.076-.151.067-.351.076-.53.066-1.33.138-2.66.184-3.991.043-1.259.063-2.517.079-3.776C.016 1.816.002.919 0 0" style="fill:#1e103b;fill-opacity:1;fill-rule:nonzero;stroke:none" transform="translate(699.132 291.381)"/><path d="M0 0c.178-.108.328-.154.403-.256.102-.139.186-.314.208-.483.155-1.178.785-2.131 1.41-3.092.173-.266.309-.564.417-.864.036-.102-.031-.297-.118-.372-.084-.073-.273-.097-.383-.055-.436.17-.821.417-1.114.802-.687.903-1.069 1.937-1.308 3.029-.052.238-.073.52.006.74.075.205.301.356.479.551" style="fill:#1e103b;fill-opacity:1;fill-rule:nonzero;stroke:none" transform="translate(663.034 308.83)"/></g></svg>