<?xml version="1.0" encoding="utf-8"?>
<!-- Generator: Adobe Illustrator 27.3.1, SVG Export Plug-In . SVG Version: 6.00 Build 0)  -->
<svg version="1.1" id="Layer_1" xmlns="http://www.w3.org/2000/svg" xmlns:xlink="http://www.w3.org/1999/xlink" x="0px" y="0px"
	 viewBox="0 0 65.91 66.92" style="enable-background:new 0 0 65.91 66.92;" xml:space="preserve">
<style type="text/css">
	.st0{fill:#210E3D;}
</style>
<path class="st0" d="M47.54,0H17.93c-0.1,0-0.23,0.02-0.33,0.02C7.77,0.44,0,8.49,0,18.39v30.57c0,0.13,0,0.23,0,0.34
	c0.39,9.61,8.2,17.32,17.86,17.6c0,0,0.04,0,0.07,0h0.07c0.13,0,0.26,0.02,0.39,0.02c0.1,0,0.23-0.02,0.36-0.02h28.43
	c0.13,0,0.23,0.02,0.36,0.02c9.89-0.02,17.96-7.82,18.35-17.62c0.03-0.11,0.03-0.21,0.03-0.34V18.39C65.91,8.23,57.69,0,47.54,0z
	 M59.88,48.17c0,0.12,0,0.23,0,0.36c0,3.41-1.37,6.49-3.59,8.74c-2.22,2.2-5.26,3.59-8.62,3.6c-0.07,0-0.1,0-0.13,0h-0.26
	c-0.16,0-0.33,0-0.46,0H36.81V38.18h7.62l1.14-8.84h-8.76V23.7c0-2.56,0.71-4.3,4.38-4.3l4.68,0v-7.91
	c-0.81-0.11-3.59-0.35-6.82-0.35c-6.75,0-11.37,4.12-11.37,11.69v6.52h-7.64v8.84h7.64v22.69h-9.65c-3.3-0.1-6.24-1.45-8.39-3.6
	c-2.26-2.25-3.63-5.33-3.63-8.74c0-0.5,0.03-0.98,0.09-1.47H6.01V18.39c0-3.41,1.37-6.5,3.63-8.75c2.18-2.19,5.19-3.56,8.52-3.61
	h28.76c0.23,0,0.43,0,0.62,0c3.42,0,6.49,1.38,8.75,3.61c2.22,2.25,3.59,5.34,3.59,8.75V48.17z"/>
</svg>
