<svg xmlns="http://www.w3.org/2000/svg" xml:space="preserve" width="1122.52" height="793.701"><defs><clipPath clipPathUnits="userSpaceOnUse" id="a"><path d="M0 595.276h841.89V0H0Z"/></clipPath></defs><path d="M0 0v-37.104h-177.208v250.307H0zm-183.208-61.369h-177.209v250.306h177.209zm-183.209 47.678h-177.209v250.306h177.209zM-549.625-37.53h-177.208V212.776h177.208zM0 219.203h-177.208v20.838h-6v-45.104h-177.209v68.942h-6v-21.265h-177.208v22.947h-6v-46.785h-177.208v21.265h-6v-304.41h6v20.839h177.208v-21.329h6v45.168h177.208v-68.516h6v20.838h177.209v-20.838h6v45.103H0v-21.265h6V240.041H0Z" style="fill:#1e103b;fill-opacity:1;fill-rule:nonzero;stroke:none" transform="matrix(1.33333 0 0 -1.33333 1003.387 515.087)"/><g clip-path="url(#a)" transform="matrix(1.33333 0 0 -1.33333 0 793.701)"><path d="m0 0-.008-.063a5.363 5.363 0 0 0-.255-1.178c0-.002.002-.003.001-.006-.214-.863-.895-1.691-1.5-2.944s-.596-3.021-.596-3.021v-12.212a.807.807 0 0 0-.807-.807h-19.418a.805.805 0 0 0-.805.805v12.214s.008 1.768-.596 3.021c-.605 1.253-1.287 2.081-1.501 2.944 0 .003.002.004.001.006a5.36 5.36 0 0 0-.254 1.178l-.009.063a5.187 5.187 0 0 0-.019.433c0 4.305 2.99 6.582 7.311 7.525 1.69.37 3.579.542 5.582.542 2.003 0 3.891-.172 5.581-.542C-2.971 7.015.019 4.738.019.433.019.287.013.144 0 0m-1.005 13.776c-1.866.409-3.942.624-6.163.663l-.434.01c-.086.001-.169.006-.256.006-.099 0-.193-.005-.29-.005l-4.515.001c-.071.001-.14.004-.211.004-.059 0-.115-.003-.175-.004l-.375-.009c-2.274-.031-4.397-.249-6.303-.666-7.622-1.665-11.994-6.528-11.994-13.343a11.29 11.29 0 0 1 .059-1.119l.011-.09c.078-.704.222-1.404.432-2.082.343-1.267.91-2.233 1.369-3.017.168-.285.316-.537.442-.783.031-.148.062-.408.065-.554v-12.212a6.763 6.763 0 0 1 6.762-6.763H1.852a6.76 6.76 0 0 1 6.76 6.761v12.179c.003.176.034.44.066.589.125.246.273.498.44.783.462.788 1.032 1.759 1.372 3.026a11.29 11.29 0 0 1 .499 3.282c0 6.815-4.372 11.678-11.994 13.343" style="fill:#1e103b;fill-opacity:1;fill-rule:nonzero;stroke:none" transform="translate(808.216 413.753)"/><path d="M0 0c.001.131.124.182.271.087C.391.012.552-.086.64-.02c.316.241.788.269.973.763l.02.338c-.134.414-.586.554-.779.916-.004.044-.012.087-.013.13-.002.195.167.315.216.484.049.17-.014.376.116.519.2.221.128.519.243.754.098.201.245.373.232.618a.556.556 0 0 0 .069.253c.118.241.229.486.374.711.132.203.007.462.156.643.224.271.178.593.206.901a2.9 2.9 0 0 0 .761 1.218c.112.432.1.821-.212 1.166.079.379.349.725.26 1.126.04.352.396.501.363.828h.765c.086-.043.172-.075.244-.127.163-.117.329-.144.489-.011.192.16.318-.005.491-.089 1.234-.079 2.497.023 3.7-.038.143-.087.177-.161.182-.254.008-.134.005-.275.048-.399.057-.166.209-.289.21-.488.002-.13.001-.273.114-.373.032-.029.069-.055.12-.097h.646c.403.328.403.328.893 1.302.219.083.443.01.668.022.36-.162.756-.254 1.048-.526h.98c.121-.207.224-.403.346-.586.11-.165.044-.356.105-.522.029-.079.1-.141.16-.22l.372-.022c.29.101.461.324.647.512.148.15.229.367.343.559h1.493l.397-.206c.681-.104 1.406.013 2.121-.075l.361-.227h.504c.45-.134.806-.413 1.22-.569.041-.016.093-.02.123-.047.269-.241.534-.486.801-.73.35-.038.536-.316.749-.539.15-.157.249-.362.38-.559L25.033 7c.166-.038.283-.181.413-.301.136-.125.299-.188.462-.265.155-.074.272-.231.402-.348l-.229-.368v-.971l.575-.633c.286-.125.512-.096.776-.093.163.086.357.187.55.291.157.085.311.173.445.248h.683l.423-.238.656-.042.463-.254h.944l.408-.349.052-.594.427-.416h.701c.4.258.717.562.872.997.354.167.718.009 1.042.085l.386-.229.664-.046c.298-.134.518-.358.724-.599.003-.036.024-.089.008-.105-.224-.231-.269-.568-.485-.806.016-.389-.065-.796.118-1.168l.688-.052c.306.168.576.315.845.467.037.021.064.062.094.097.028.035.053.072.08.109.103.258.085.527.075.786-.199.467-.789.434-1.033.842.047.236.25.321.435.417h.404a58.4 58.4 0 0 0 .363-.212c1.07-.116 2.153.023 3.207-.047.173-.251.21-.532.452-.698.227-.154.523-.175.744.01.104.085.188.193.272.281l.103.533c.034.035.063.091.098.096.264.04.528.069.78.1l.352.21.676.039.379.221.96.038.437.236 1.774.063.386.224 1.243.049.416.222h2.558l.373-.22c.292-.058.612.034.903-.117-.188-.349-.459-.474-.801-.468-.273-.08-.42-.344-.66-.458-.202-.096-.411-.174-.616-.334h-1.396c-.291-.103-.433-.275-.563-.461.059-.414-.123-.696-.423-.852-.234-.052-.422-.062-.578-.135-.442-.208-.868-.453-1.311-.659-.157-.074-.345-.079-.555-.123-.144-.124-.299-.295-.488-.413a2.685 2.685 0 0 0-.723-.331c-.229-.058-.357-.269-.594-.305-.217-.033-.361-.287-.607-.252-.309.045-.466-.246-.735-.303-.211-.045-.408-.169-.605-.271-.315-.164-.624-.339-.937-.506-.092-.049-.246.034-.318.173-.04.079-.068.164-.109.265l-1.159.566c-.285-.23-.711-.235-.914-.69-.09-.272-.002-.63.006-1.001l.496-.615c-.02-.09-.018-.23-.06-.245-.307-.11-.535-.318-.76-.539-.287-.283-.534-.616-.948-.735l-.192-.346-.624-.349a312.13 312.13 0 0 0-.738-.053c-.19-.149-.381-.278-.454-.507-.081-.254-.295-.44-.338-.722-.018-.109-.163-.214-.272-.287-.184-.123-.417-.153-.591-.306-.061-.054-.188-.032-.25-.084a5.65 5.65 0 0 0-1.245-.775c-.464-.028-.831-.296-1.233-.483-.155-.073-.354-.045-.521-.099-.167-.055-.282-.235-.476-.238-.234-.002-.423-.125-.632-.198-.248-.088-.527-.082-.804-.119-.174-.126-.357-.258-.602-.24-.143.009-.25-.079-.368-.142-.203-.108-.24-.071-.259.223-.005.09-.014.18-.024.311l-.45.427h-.983c-.233-.128-.422-.33-.664-.332-.175-.612.014-1.16-.096-1.693-.45-.292-.989-.43-1.361-.837-.526-.227-.987-.604-1.577-.681-.648-.297-1.306-.574-1.844-1.051-.406.086-.657-.281-1.014-.328-.276-.229-.66-.287-.903-.573-.209-.245-.575-.234-.792-.49-.232-.275-.508-.514-.75-.754l-.801-.065c-.228-.203-.194-.528-.442-.693-.222-.148-.398-.356-.673-.436-.116-.033-.215-.164-.296-.27-.105-.14-.185-.299-.276-.45-.24-.03-.404-.186-.564-.348a.89.89 0 0 0-.46-.267c-.038-.007-.092-.05-.098-.083-.071-.434-.531-.434-.762-.688-.02-.022-.078-.01-.122-.01v.922l-.655.677h-.322l-.64-.631v-.846l.64-.644.416-.034c-.002-.042.005-.093-.017-.116-.346-.356-.688-.715-1.05-1.054-.126-.118-.329-.155-.449-.276-.119-.121-.151-.328-.269-.451-.47-.489-.96-.96-1.442-1.437-1-.566-1.682-1.487-2.502-2.252-.198-.185-.399-.343-.662-.444-.247-.095-.372-.4-.646-.474-.146-.039-.246-.111-.279-.253-.055-.242-.239-.374-.41-.52l-.76.704c-.32.116-.567.091-.804-.093-.136-.108-.301-.179-.463-.272v-.685l.482-.973-.827-.818c-.118-.02-.196.025-.203.132-.016.225-.005.452-.005.591-.111.244-.236.402-.246.569-.019.285-.146.513-.272.72l-.042 1.241-.247.39c-.008.185-.015.41-.028.634-.002.042-.01.098-.037.124-.248.24-.136.61-.319.87-.106.151-.188.307-.17.497.024.249-.162.409-.26.622l-.034.637-.751 1.511-.069.738-.498.632v.413c.077.063.137.146.214.17.199.06.297.182.3.385v.297l-.321.337c-.309.144-.586.052-.85.103-.18.291-.177.291-.156 1.167.155.222.402.149.65.195l.626.585c.115.419.088.774.038 1.138-.196.116-.386.232-.578.341-.151.086-.308.163-.455.24v.708c.087.244.302.443.263.744-.027.195.158.314.245.545l.043.642c.144.285.306.602.491.964.064.391-.035.847.09 1.285.008.027.05.045.079.069.129-.28.193-.607.64-.763h.428l.653.656v.561c-.213.121-.412.221-.597.341-.168.109-.348.066-.521.075-.271-.096-.413-.349-.636-.499-.022.03-.064.061-.066.096-.034.446-.063.894-.092 1.317-.091.181-.24.312-.228.508.016.243-.109.427-.229.619-.04.066-.016.172-.024.292.232.246.48.507.726.765.123.359.077.718.052 1.113l-.642.621-.562.089c-.028.03-.082.059-.087.096-.036.263-.062.527-.092.791l-.231.372c0 .29-.001.606.001.922m14.403-18.502c0 .165.091.241.249.25 0-.167-.091-.242-.249-.25m-.27-.269c.036.195.052.209.246.246-.006-.159-.092-.237-.246-.246m8.691-33.157c.314.115.477.407.701.552.171.366.321.685.459.983.187.125.368.066.541.066.116-.075.23-.148.372-.242h1.457l.489-.26h.929l.353.193.278-.166c.404-.019.851-.038 1.297-.064.039-.002.076-.046.114-.071-.05-.282-.363-.368-.455-.62-.106-.352.006-.705-.036-1.087l.363-.377h1.27c-.001-.043.009-.098-.014-.12a3.516 3.516 0 0 0-.391-.362c-.067-.051-.185-.036-.249-.088-.211-.169-.428-.339-.605-.541-.218-.248-.595-.222-.784-.499-.162-.238-.462-.264-.664-.439a2.46 2.46 0 0 1-.194-.188 2.193 2.193 0 0 0-1.061-.65l-.309.169h-.645a1.91 1.91 0 0 1-.756-.73c-.052-.297.315-.45.234-.756-.061-.232.181-.38.209-.638l-.538-.568-.644.522h-.72l-.418-.366c.066-.122.143-.227.18-.346.023-.077.019-.195-.025-.255-.265-.366-.565-.699-.984-.894-.096-.045-.211-.008-.225.083-.047.293-.229.476-.479.647-.326.116-.684.076-1.083.037-.203-.196-.43-.413-.673-.645l-.026-.495.231-.378c.005-.046.016-.091.014-.135-.007-.131.024-.29-.038-.386-.094-.145-.255-.245-.388-.364-.467.046-.801-.392-1.277-.344-.109.01-.233-.127-.349-.197l-.68-.052c-.295-.193-.653-.273-.952-.477-.095-.065-.264-.037-.397-.024-.056.006-.104.088-.156.137l.393.205c.044.186.073.406.152.608.061.162.209.294.15.509l-.722.423h-1.378c-.28-.087-.414-.268-.548-.448-.056-.364-.066-.716.167-1.035.048-.065.041-.17.055-.258.02-.132.018-.266.114-.38.055-.063.088-.146.132-.22-.853-.373-1.649-.863-2.507-1.229-.117-.05-.212-.168-.301-.269-.46-.515-.458-.518-.858-.691-.175.253.051.412.157.64l.042.906c.037.081.069.163.107.242.075.159.152.318.233.474.008.015.066.025.079.013.035-.027.072-.067.079-.107.017-.088.019-.179.023-.269.01-.302.194-.46.473-.561l.504.481c.166.261.125.44.099.653-.094.052-.206.114-.316.177-.117.068-.234.136-.351.206-.103-.048-.193-.202-.322-.122-.13.081-.087.244-.073.374a.82.82 0 0 0 .079.252c.053.122.121.239.18.358.162.317.322.634.529 1.044l.043.611.512 1.046.042.587c.113.229.218.528.391.781.186.274.046.62.278.887.169.194.31.46.344.71.04.28.095.524.29.728.012.239.174.408.277.598l.037 1.219c.199.263.219.579.31.875.089.294.275.557.458.912l.06.954.226.382.036.671c.133.466.609.479.921.702l.379-.223h2.282a3.827 3.827 0 0 1 1.24-.788c.12-.047.268-.022.404-.03l.186-.214v-.678c.147-.165.31-.322.439-.504.1-.141.141-.324.236-.469.074-.11.192-.189.309-.298zm8.493.788c.12-.06.233-.133.379-.219l.785-.08.354-.343c-.187-.323-.534-.366-.772-.561-.243-.2-.465-.426-.696-.639l-.397-.026c-.004.195.185.291.239.45.058.166.065.349.102.523.008.042.041.079.065.118.023.038.05.075.088.132l-.423.504c.09.14.177.191.276.141m-43.28 45.156v-.607c.124-.229.273-.404.256-.651-.017-.246.182-.402.291-.626v-.651l.482-.63a23.48 23.48 0 0 0-.156-.251c.116-.185.245-.367.222-.608-.024-.244.222-.385.248-.63l.047-1.715.227-.368c.01-.14-.027-.304.036-.405.192-.303.24-.678.509-.973v-1.718c.081-.141.165-.25.212-.373.047-.124.041-.267.086-.391.061-.166.149-.323.241-.519l.054-.954.236-.449v-3.071l.255-.399v-1.716c-.137-.304-.315-.573-.229-.907l.22-.37c0-1.201.005-2.423-.007-3.644-.001-.12-.115-.239-.179-.363.263-.391.248-.441-.066-.872.071-.576-.08-1.205.032-1.81l.238-.388v-1.448l.29-.508v-.621l.256-.411v-.622l.266-.481.041-.682.229-.353c.009-.133-.008-.277.032-.402.055-.167.186-.313.223-.482.048-.217.037-.447.049-.644.093-.185.267-.312.233-.507-.053-.31.211-.486.277-.741l.03-.654.225-.371.055-.959.226-.438v-1.257c-.174-.154-.22-.382-.329-.572-.132-.23-.339-.421-.532-.611-.135-.133-.168-.311-.255-.461a19.21 19.21 0 0 1-.781-1.542c-.037-.08-.065-.184-.132-.229-.362-.246-.402-.692-.647-1.008-.016-.196-.152-.314-.271-.451-.311-.364-.356-.496-.597-1.311-.049-.166-.162-.314-.262-.501v-.875l-.177-.293c.058-.146.155-.298.173-.458.025-.23.065-.438.207-.628.028-.037-.027-.159-.072-.222-.129-.176-.095-.332.034-.483.116-.138.236-.273.351-.403l-.201-.37v-.409l.472-.641c-.371-.394-.195-.752.055-1.127v-.906c.056-.102.092-.186.144-.257.162-.225.092-.42-.067-.609.062-.157.12-.315.187-.468.087-.202.181-.399.261-.576-.06-.113-.091-.202-.147-.268-.101-.118-.1-.249-.051-.375.048-.124.126-.237.182-.337l.051-2.59.216-.349c.022-.23.045-.459-.101-.653-.15-.2-.123-.423-.107-.643l.242-.406c0-.218.003-.488-.001-.759-.003-.268-.063-.539.045-.799l.16-.236-.196-.362v-.633l.271-.504v-1.176l.24-.375.041-.943.801-1.599v-.603l.239-.364c.079-.388-.035-.824.301-1.149v-.978c.396-.297.188-.857.52-1.196l.023-.407.23-.351.063-1.279c.27-.374.347-.794.681-1.065.169-.137.165-.408.348-.564.172-.147.262-.349.35-.564a.686.686 0 0 1 .496-.424c.252-.048.363-.247.507-.434.015-.123.012-.263.051-.388.039-.124.132-.231.182-.353.149-.366.427-.688.389-1.117l.23-.336c.035-.41.051-.814-.251-1.137l-.042-1.513-.24-.37-.05-.985c-.223-.373-.229-.371-.246-.803l-.219-.344c-.086-.623.032-1.259-.061-1.806L-3.825-91v-.922c-.115-.217-.279-.39-.261-.635.02-.247-.169-.406-.27-.643v-.892c-.087-.138-.16-.253-.254-.405-.015-.59-.031-1.219-.045-1.843-.157-.187-.271-.375-.265-.618a.44.44 0 0 0-.065-.253 1.055 1.055 0 0 1-.192-.632.948.948 0 0 0-.124-.514c-.136-.226-.23-.477-.347-.73l.139-.223-.181-.344c-.013-.304-.009-.621-.045-.934-.015-.124-.115-.24-.198-.402.307-.242.225-.616.239-.969l.248-.472c-.044-.422.33-.738.291-1.158.312-.328.241-.754.287-1.144l.232-.379v-1.448l.25-.431.039-1.245.251-.401v-.906l.262-.487.042-1.195c.085-.143.153-.26.227-.382l.039-2.031.241-.473.045-.934.217-.37.041-.674.226-.428.05-1.515.489-.637.039-.938.378-.76c.362-.238.429-.675.669-.995.03-.239.186-.408.344-.566.17-.172.204-.38.258-.604.06-.253.18-.505.329-.718.093-.133.286-.195.425-.282.029-.285.055-.551.079-.776l.467-.557c.117-.523.542-.924.583-1.476.137-.28.223-.605.424-.827.28-.311.41-.693.636-1.036l.035-.941c.26-.47.481-.97 1.045-1.29h1.152c.069.036.147.078.224.121.194.106.392.209.583.32.26.152.215.483.392.687.055.064.077.157.123.258l.031 3.567.226.406v.415c-.286.47-.286.47-.059.843-.131.28-.223.542.004.846.132.176.103.427-.025.638-.042.067-.059.15-.087.225l.167.26.043 3.432.25.431v1.708l.21.374-.198.336v1.217l.241.404.045 1.821.21.358.049 1.501.236.398.041 2.332.231.394.038 2.31.256.413v1.3c-.001.192.086.346.195.492l-.119.332.17.329.045 2.303.235.387.055.713.199.4.055 1.24.228.371v.407l-.2.347.206.351.049.687.206.341c.078.339-.074.733.229 1.021-.01.041-.008.087-.03.112-.122.146-.218.31-.102.487.127.193.227.383.217.621-.008.197.147.323.233.504l.073 1.276.47.92.036.903c.083.16.208.311.236.479.041.235.277.359.302.828v.267c.123.285.229.529.333.773.294.218.117.619.331.86.167.189-.034.308-.051.428.104.226.164.454.298.622.175.217.206.492.365.716.125.178.25.385.313.586.07.223.239.386.293.592.068.267.324.441.325.73.16.165.199.4.316.58.146.228.16.53.382.701.265.206.302.54.488.786.079.103.209.169.303.241l.455.028.606.484.592.1c.228.369.658.546 1.057.733.562.264 1.113.548 1.664.833.235.121.513.169.729.315.259.176.469.422.705.631.066.057.153.091.228.134l.429.049c.125.102.261.223.408.329.364.26.748.479 1.225.489l.62.504c.36.018.487.385.777.512.494.057.493.061.735.264.172.144.323.319.566.344.362.266.79.404 1.174.627.065.115.102.29.198.335.32.146.595.41.984.397.073-.002.171.068.219.132.076.104.119.23.17.335.629.027 1.102.359 1.96 1.107.438.043.435.05.637.35.049.07.104.182.166.19.3.04.445.296.67.434.265.162.558.274.767.521.054.064.15.093.223.136.179.03.369-.014.517.12l.186.349c.313.165.668.281.931.506.279.238.616.364.893.582.281.222.507.514.768.787.022.173.065.355.28.397.213.042.289.187.312.379.012.089.017.178.026.28.081.096.164.204.254.303.274.298.622.55.772.929.151.387.589.572.645 1.006.172.26.461.441.52.776l.446.281c.03.238.17.417.341.566.18.157.197.401.336.571.11.135.269.231.413.336.069.052.209.072.221.127.068.311.321.393.555.52a.644.644 0 0 1 .333.41c.047.212.193.262.369.331a.743.743 0 0 1 .451.475c.098.329.301.51.631.628.332.119.506.509.887.59.055.012.079.15.127.223.047.071.095.176.163.196.424.124.67.452.886.79.1.157.159.313.359.35.584.484 1.326.774 1.773 1.431.108.157.299.175.466.24.163.063.297.187.474.246.218.07.383.241.477.452.055.123.083.277.224.304.341.065.485.398.771.536l.545.082 1.044.985c.323.151.612.268.883.419.155.086.306.227.33.409.036.276.345.435.286.739-.017.087-.017.18-.049.26-.066.165-.15.323-.225.485-.15.325-.532.488-.599.882-.02.115-.156.218-.256.309-.23.212-.402.54-.713.603-.392.08-.509.495-.878.593-.407.109-.617.513-.949.743l-.541.105-.79.724c-.432.085-.653.455-.96.709-.14.116-.272.239-.407.36-.292.002-.457.259-.71.353-.373.138-.722.339-1.081.514-.535-.099-.713.531-1.178.576a1.07 1.07 0 0 1-.74.272c-.12.001-.24.108-.368.171-.064-.031-.138-.07-.216-.106-.075-.034-.146-.002-.226.071-.105.095-.241.116-.378.111-.246-.01-.413.157-.632.281h-.896l-.493.282h-1.216c-.195.138-.381.271-.624.259-.195-.01-.335.115-.486.212-.076-.047-.149-.096-.227-.139a.35.35 0 0 0-.377.002c-.113.067-.231.128-.309.171-.355.04-.689-.042-.947.212l-.331-.118-.889.435-.89.044c-.329.154-.663.287-.949.507-.432-.041-.767.215-1.117.394-.208.106-.4.179-.631.181a.405.405 0 0 0-.24.1c-.184.166-.411.152-.63.198-.21.045-.37.248-.618.232-.246-.016-.404.174-.605.291h-.644l-1.061.53h-.841l-.474.258-.647.028c-.312.169-.58.33-.862.461-.116.054-.26.056-.391.06-.101.003-.181.021-.24.106-.043.263-.291.443-.311.72-.004.042.013.086.021.131l.493.633v.932l.242.389.044 1.207.245.496.038 1.184.489.961.037 1.464.245.371c.047.358-.023.722.068 1.039l.208.368.042.623c.235.449.369.877.609 1.251.319.048.511.372.846.382.21.255.574.25.801.477.323.036.534.325.849.381l.246.422c.283-.059.448.312.785.327.268.248.657.279.934.52l.675.034c.202.187.497.214.701.375.238.187.536.077.788.245l.495.417c.386.102.833-.052 1.13.286l.466.041.865.761.706.037c.296.229.645.333.961.495.304.157.601.406.99.343.282.229.635.324.95.504l.666.036.602.506c.251.036.47.02.679.151.263.164.57.256.838.415.307.182.667.266.933.519.32.044.544.302.848.385.126.035.241.15.364.153.427.01.762.249 1.088.457.869.555.861.563 1.892.934.462.166.882.423 1.211.763l.563.089 1.366 1.279c.171.018.305.031.476.05.413.369.913.658 1.466.882.353.335.713.679 1.074 1.02.124.117.731.46.933.496.177.032.346.047.504.157.179.125.397.196.578.319.221.15.401.349.662.452.095.038.133.218.199.338.187.11.375.229.571.334.077.042.179.038.253.083.417.253.906.404 1.194.843.047.071.139.114.23.186l.55.079c.52.504 1.075 1.032 1.906 1.079l.786.735.417.041.371.035c1.389.726 1.389.726 1.853.791l.458.279h.652l.626.495.462.046.344.218.758.061c.372.226.371.232.798.262l.614.495c.113.009.205.005.292.026.437.104.777.421 1.208.54l.66.039c.153.136.276.274.423.374.183.125.382.226.581.324.238.119.514.18.684.407.173.232.487.218.68.418.189.194.371.425.606.535.252.118.469.255.654.451.19.201.493.206.678.423.176.206.395.374.575.576.369.415.835.667 1.377.856.206.203.44.416.656.648.22.237.524.339.775.521.254.185.464.43.695.646.262.243.477.549.854.636.243.259.578.434.682.816a.681.681 0 0 0 .462.461.913.913 0 0 1 .59.508c.057.12.089.249.186.345.227.222.443.456.684.661.132.112.316.16.461.261.108.076.237.175.275.291.076.232.177.406.439.437l.889.835c.116.108.73.422.947.475.129.033.271.027.389.079.244.109.472.248.709.371.078.04.162.066.242.099.22.038.453-.025.661.087l.279.431c.407.07.841-.031 1.142.293l.442.032.626.52h.651c.278.2.59.273.847.46.177.129.385.227.594.298.216.075.424.151.568.334.209.264.551.29.813.465.133.089.344.065.521.091l.34.23.788.069c.179.174.37.311.495.494.175.254.3.541.425.776v.898l-.348.75c-.34.33-.728.708-1.121 1.083-.028.028-.079.033-.159.064h-.612c-.138.087-.253.159-.368.233-.32.002-.605.119-.872.268l-1.757.04-.353.233c-.385.072-.827-.086-1.117.271l-.711.052c-.19.106-.365.269-.609.248-.249-.022-.408.168-.671.272h-1.134c-.296.273-.682.303-.99.534h-1.178l-.389.245-.759.063-.394.231h-1.176c-.135.085-.242.18-.367.222-.167.057-.349.068-.522.11-.117.028-.189.186-.123.215l-.525-.261c-.416-.028-.773-.016-1.066.238-.638.016-1.272.041-1.905.043-.196.001-.311.154-.485.184a22.962 22.962 0 0 0-.229-.142c-.075.046-.145.102-.224.135-.08.033-.169.044-.323.081-.315-.437-.733-.271-1.134-.075l-.245-.145c-.365.306-.732.248-1.098.007-.222.209-.483.228-.761.184a35.135 35.135 0 0 0-.3-.19c-.301-.093-.439.163-.802.226h-3.747l-.376.233c-.208.035-.347-.088-.493-.188l-.455.208c-.44-.313-.85-.357-1.279.008h-2.792c-.075.041-.119.058-.153.085-.276.22-.564.25-.874.073-.068-.039-.152-.049-.216-.068l-.352.177-1.481.039-.371.211c-1.591.015-3.174.031-4.758.043-.543.005-1.086.001-1.58.001l-.485-.276c-.217 0-.402-.022-.577.007-.126.022-.235.133-.361.166-.063.018-.149-.05-.225-.079a45.519 45.519 0 0 0-.262-.098h-1.062c-.368.179-.725.355-1.048.513l-1.193.049c-.336.179-.61.327-.887.472-.037.019-.084.021-.133.034-.174 0-.356-.004-.536 0-.224.005-.447.017-.602.023l-.422.242-2.303.039-.392.232-1.805.046-.426.24h-3.561c-.235.086-.345.266-.583.24l-.475-.243h-4.408l-.406-.238c-.932-.015-1.88-.03-2.829-.047-.042-.001-.084-.026-.126-.039l-.245-.15-.366.188h-.664a123.52 123.52 0 0 0-.425-.225h-.958l-.372.233c-.127 0-.281.042-.388-.007-.376-.174-.731-.374-1.129-.077-.066.048-.139.002-.224-.065-.159-.127-.327-.114-.492.005-.072.051-.153.091-.235.14h-.397c-.476-.264-.476-.264-.867-.052l-.362-.184-4.449-.044c-.238-.109-.502-.189-.716-.338-.352-.242-.665-.215-.99.025l-.994-.475h-.6l-.38-.249-.925-.039-.956-.467-.271.163-1.307.063-.616.512c-.189.042-.383-.033-.541.083-.188.137-.392.189-.624.217-.166.02-.321.142-.561.256h-.82c-.198.102-.356.184-.501.261-.561 0-1.104 0-1.647-.002-.044 0-.087-.017-.13-.026l-.235-.146c-.286.086-.563.23-.877.199-.245-.024-.416.145-.626.235H.454c-.221-.24-.599-.208-.806-.472-.163-.209-.388-.354-.488-.633-.102-.289-.293-.547-.272-.876a50.311 50.311 0 0 1-.232-.345l-.052-.744-.253-.397v-.892c-.103-.201-.212-.353-.257-.522-.06-.22-.3-.362-.271-.605.036-.304-.182-.502-.287-.743-.192-.446-.392-.9-.669-1.296a6.801 6.801 0 0 1-.559-.911 119.4 119.4 0 0 0-1.146-2.257c-.103-.199-.178-.408-.339-.572-.257-.261-.355-.615-.519-.929-.059-.111-.041-.263-.059-.394-.401-.432-.605-1.001-1.028-1.417-.013-.132.001-.275-.043-.398-.059-.166-.161-.316-.245-.473l-.034-.416c-.303-.438-.774-.747-1.034-1.213l-.045-.425-.506-.614a1.646 1.646 0 0 0-.164-.656c-.318-.632-.66-1.253-.904-1.799-.077-.326-.002-.557-.108-.797-.072-.084-.165-.182-.246-.291-.08-.105-.193-.213-.211-.332-.037-.234-.281-.368-.268-.61.02-.388-.29-.643-.385-.983l-.804-.834-.335-.101-.386-.724v-1.729c.103-.204.289-.367.267-.612-.023-.251.15-.413.271-.645" style="fill:#1e103b;fill-opacity:1;fill-rule:nonzero;stroke:none" transform="translate(633.559 346.63)"/><path d="M0 0c.114.102.239.232.383.336.175.126.364.23.481.303l.354.673v.934l-.799.442c-.33-.062-.564.234-.875.24-.235-.188-.62-.139-.765-.505V.749l.388-.718C-.552-.061-.291-.08 0 0" style="fill:#1e103b;fill-opacity:1;fill-rule:nonzero;stroke:none" transform="translate(654.334 352.6)"/><path d="m0 0 .475-.581c.025-.177.05-.35.076-.521l.389-.366.494-.026c.121.2.401.234.618.38.145.099.277.218.349.39.069.162.174.311.221.478.045.164.037.343.053.526l-.692.656C1.441.979.912 1.007.429.966.027.741-.127.453 0 0" style="fill:#1e103b;fill-opacity:1;fill-rule:nonzero;stroke:none" transform="translate(654.783 350.246)"/><path d="M0 0c-.181-.126-.368-.242-.548-.359-.105-.264.113-.415.195-.608l.03-.639c.086-.092.137-.198.207-.21.264-.049.534-.066.746-.265a.192.192 0 0 1 .123-.038c.133.003.291-.027.392.034.189.115.361.257.584.307.107.194.234.379.315.583.064.161.072.343.099.486l-.396.672-.679.352H.406C.282.218.146.103 0 0" style="fill:#1e103b;fill-opacity:1;fill-rule:nonzero;stroke:none" transform="translate(650.717 348.706)"/><path d="M0 0c-.086-.022-.179-.02-.269-.024-.147-.007-.236-.113-.341-.193-.252-.193-.25-.455-.214-.73l.211-.345c.06-.295-.075-.638.245-.907h.996l.897.836c.061.163.093.295.155.409.085.156.212.291.17.509-.079.083-.157.207-.268.272-.267.153-.53.319-.832.399C.454.305.253.065 0 0" style="fill:#1e103b;fill-opacity:1;fill-rule:nonzero;stroke:none" transform="translate(648.517 340.101)"/><path d="m0 0 .685-.63h.704c.316.246.764.292.988.698.068.331.088.686.033 1.041-.354.391-.355.399-.775.455-.194.027-.324.144-.48.231-.822-.27-.822-.27-1.409-.916l.196-.318L0 0" style="fill:#1e103b;fill-opacity:1;fill-rule:nonzero;stroke:none" transform="translate(678.13 347.754)"/><path d="M0 0c.004.25-.097.434-.376.449a.854.854 0 0 0-.497.17c-.164.129-.318.092-.483-.018-.146-.097-.311-.163-.467-.243l-.365-.65v-.967c.101-.121.168-.251.275-.323.219-.147.453-.272.691-.385.069-.032.186-.018.254.021.269.151.421.461.759.532.127.027.185.179.184.322 0 .184.038.357.165.496.071.079.054.137-.023.225A.535.535 0 0 0 0 0" style="fill:#1e103b;fill-opacity:1;fill-rule:nonzero;stroke:none" transform="translate(655.85 341.25)"/><path d="M0 0c-.392.023-.389.017-.653-.137-.267-.155-.588-.231-.761-.579-.066-.405-.018-.848.01-1.318l.647-.638c.116.009.232-.017.284.028.271.232.549.439.875.596.194.093.363.285.344.537-.017.24.133.407.216.608C.677-.552.37-.229 0 0" style="fill:#1e103b;fill-opacity:1;fill-rule:nonzero;stroke:none" transform="translate(650.191 334.895)"/><path d="M0 0v-1.05c.276-.475.734-.552 1.151-.752.211.173.394.398.629.494.265.108.475.237.648.529v.785l-.693.64C1.39.631 1.036.724.638.604L0 0" style="fill:#1e103b;fill-opacity:1;fill-rule:nonzero;stroke:none" transform="translate(664.258 345.664)"/><path d="M0 0c-.089-.006-.207.038-.265-.004C-.581-.238-1.03-.29-1.227-.7c-.114-.329.078-.588.214-.853l.029-.451.435-.425h.497c.129.115.287.272.464.405.139.104.344.144.44.273.1.132.119.331.236.47.132.155.084.338.091.617-.173.152-.292.336-.445.371C.469-.232.289.02 0 0" style="fill:#1e103b;fill-opacity:1;fill-rule:nonzero;stroke:none" transform="translate(647.042 347.396)"/><path d="M0 0c-.089-.003-.204.034-.263-.009-.318-.229-.751-.295-.966-.67a10.682 10.682 0 0 0-.021-.257l.21-.324c.018-.234.031-.456.053-.677.004-.039.039-.075.072-.133.213-.109.444-.23.678-.343.036-.017.088-.002.176-.002.139.125.308.267.464.422.13.13.376.065.451.245.068.163.106.337.223.475.133.155.068.339.103.612-.181.154-.3.337-.451.369C.462-.236.283.012 0 0" style="fill:#1e103b;fill-opacity:1;fill-rule:nonzero;stroke:none" transform="translate(664.979 342.236)"/><path d="M0 0c-.383-.364-.739-.643-.953-1.01-.048-.239.13-.357.18-.521.051-.167.052-.35.076-.521.132-.19.263-.372.56-.441l.611.032.641.604.342.795C1.144-.505.639-.242 0 0" style="fill:#1e103b;fill-opacity:1;fill-rule:nonzero;stroke:none" transform="translate(651.652 343.628)"/><path d="M0 0a1.03 1.03 0 0 1 .469-.474h.423c.226.203.465.409.693.626.098.093.172.209.279.345v.737c-.168.349-.506.402-.76.575-.292.197-.596.161-.908.129-.039-.004-.074-.043-.111-.066-.092-.29-.408-.49-.338-.836l.217-.364L0 0" style="fill:#1e103b;fill-opacity:1;fill-rule:nonzero;stroke:none" transform="translate(646.339 353.319)"/><path d="M0 0c-.286.104-.498.395-.88.336a163.02 163.02 0 0 1-.641-.62c-.085-.473-.025-.917.007-1.391.209-.21.43-.431.633-.637l.325.02c.289.31.666.567.912.972v.966C.248-.241.148-.054 0 0" style="fill:#1e103b;fill-opacity:1;fill-rule:nonzero;stroke:none" transform="translate(638.078 328.014)"/><path d="M0 0c.265.163.42.473.764.538.129.024.206.173.199.316-.013.244.116.423.231.617.036.062.026.196-.02.252-.112.139-.237.285-.39.365-.152.079-.351.058-.516.119-.164.059-.295.209-.504.166a4.75 4.75 0 0 1-.953-.927c.313-.296.182-.689.259-1.03C-.297.01-.297.01 0 0" style="fill:#1e103b;fill-opacity:1;fill-rule:nonzero;stroke:none" transform="translate(646.723 349.35)"/><path d="m0 0-.67-.635c.068-.128.156-.232.177-.347.047-.259.059-.525.091-.833l.324-.349h.579c.312.168.493.531.879.581l.367.4c-.062.264.094.537-.081.782L.95 0Z" style="fill:#1e103b;fill-opacity:1;fill-rule:nonzero;stroke:none" transform="translate(659.52 344.973)"/><path d="M0 0c.317-.008.672-.066 1.028.058.113.181.242.361.342.555.101.195.173.404.267.629-.216.362-.558.646-.935.908H.256c-.331-.239-.667-.528-.924-.899.026-.172.215-.28.189-.47C-.531.41-.316.197 0 0" style="fill:#1e103b;fill-opacity:1;fill-rule:nonzero;stroke:none" transform="translate(663.36 347.68)"/><path d="m0 0 .441-.432h.448c.328.118.471.533.865.582.058.008.13.126.143.203.036.187.159.316.25.468.051.084-.001.279-.094.364-.131.117-.244.263-.439.289-.175.024-.357.018-.507.139-.209.17-.384.095-.597-.031-.264-.159-.575-.24-.739-.54C-.301.791-.072.647 0 .42Z" style="fill:#1e103b;fill-opacity:1;fill-rule:nonzero;stroke:none" transform="translate(658.806 347.56)"/><path d="M0 0c.038.023.068.059.108.078.119.056.246.097.359.162.17.097.143.318.261.452A.636.636 0 0 1 .8.805c.166.323.125.565-.147.83-.063.062-.139.111-.208.164-.174.031-.355.041-.519.099-.162.057-.288.213-.493.168-.276-.208-.571-.409-.712-.732V.62c.175-.188.347-.391.539-.577C-.558-.133-.242-.143 0 0" style="fill:#1e103b;fill-opacity:1;fill-rule:nonzero;stroke:none" transform="translate(670.693 342.861)"/><path d="M0 0c.385.185.551.562.936.617.035.005.077.053.092.091.104.24.201.483.303.735-.232.431-.68.535-1.064.729h-.652c-.191-.146-.375-.273-.457-.495V.76C-.624.455-.41.174 0 0" style="fill:#1e103b;fill-opacity:1;fill-rule:nonzero;stroke:none" transform="translate(655.857 345.766)"/><path d="M0 0c.092-.083.29-.097.368-.015.247.257.541.447.878.625.029.257.069.518.023.826-.228.223-.429.525-.798.661H-.2l-.661-.657c.255-.251.177-.594.315-.937C-.393.362-.199.178 0 0" style="fill:#1e103b;fill-opacity:1;fill-rule:nonzero;stroke:none" transform="translate(639.882 353.722)"/><path d="M0 0c-.094 0-.229.006-.364-.002-.132-.009-.262-.033-.361-.046-.272-.223-.531-.407-.67-.732.075-.189.21-.389.223-.597.022-.361.205-.583.488-.78l.494-.037c.228.229.444.402.602.618.127.175.184.402.279.625C.543-.619.445-.213 0 0" style="fill:#1e103b;fill-opacity:1;fill-rule:nonzero;stroke:none" transform="translate(642.563 328.936)"/><path d="M0 0c-.005-.094-.021-.143-.007-.182.102-.289.274-.554.269-.88-.001-.063.109-.128.169-.192.177-.021.359-.068.522.042.15.099.313.168.469.249.284.146.509.382.48.749-.015.195.173.298.2.473-.36.362-.36.362-1.169.643L0 0" style="fill:#1e103b;fill-opacity:1;fill-rule:nonzero;stroke:none" transform="translate(659.382 339.973)"/><path d="M0 0c.15.062.318.113.466.2.151.089.292.204.419.326A.487.487 0 0 1 .99.765c.046.214.294.354.195.698-.363.05-.59.412-.951.619h-.43c-.243-.151-.466-.37-.699-.679.393-.261.11-.726.322-1.102L0 0" style="fill:#1e103b;fill-opacity:1;fill-rule:nonzero;stroke:none" transform="translate(640.454 334.44)"/><path d="M0 0c-.238-.048-.511.072-.774-.069-.251-.235-.588-.409-.649-.819l.213-.338-.139-.225c.091-.315.339-.496.609-.693.282.189.483.52.858.582.125.126.249.254.357.364l.032.668C.394-.275.208-.147 0 0" style="fill:#1e103b;fill-opacity:1;fill-rule:nonzero;stroke:none" transform="translate(653.173 337.624)"/><path d="M0 0c.131-.19.28-.351.526-.439h.64c.299.207.566.437.73.77v.432l-.432.423c-.315.022-.571.06-.794.239-.052.042-.167.007-.316.007l-.306-.323C-.062.703-.038.35 0 0" style="fill:#1e103b;fill-opacity:1;fill-rule:nonzero;stroke:none" transform="translate(655.015 343.49)"/><path d="M0 0c-.128-.145-.146-.309-.019-.479a.827.827 0 0 0 .163-.358c.044-.233.234-.365.419-.492.218-.046.428-.074.631.073.175.128.368.229.546.339.042.363.114.713.002 1.095-.109.104-.237.225-.386.364H.531C.37.38.176.198 0 0" style="fill:#1e103b;fill-opacity:1;fill-rule:nonzero;stroke:none" transform="translate(640.467 350.107)"/><path d="M0 0c0-.04.004-.083 0-.127-.037-.383.226-.654.365-.97.014-.033.07-.048.132-.088.322.008.679-.111 1.022.089l.356.676v.394c-.187.443-.638.489-.96.71C.861.722.729.7.665.658A2.089 2.089 0 0 1 0 0" style="fill:#1e103b;fill-opacity:1;fill-rule:nonzero;stroke:none" transform="translate(656.926 342.34)"/><path d="M0 0c.171-.202.312-.45.668-.423.113.103.235.236.379.34.176.127.368.231.548.343.019.275.098.539-.013.854l-.349.326C.896 1.288.846.946.668.697c-.284.279.043.717-.254.986-.198-.103-.396-.203-.591-.309-.035-.02-.055-.067-.083-.102C-.287 1.096-.346.9-.217.757-.016.532-.06.255 0 0" style="fill:#1e103b;fill-opacity:1;fill-rule:nonzero;stroke:none" transform="translate(650.133 352.728)"/><path d="m0 0 .599.588c.092.319.097.582.02.866-.177.101-.365.214-.558.317-.328.177-.573.147-.848-.104-.066-.059-.113-.137-.188-.231V.434C-.733.08-.461-.12 0 0" style="fill:#1e103b;fill-opacity:1;fill-rule:nonzero;stroke:none" transform="translate(639.956 339.014)"/><path d="m0 0 .38-.36c.302-.017.562-.066.934.083.043.046.165.174.294.313.018.359.095.706-.024 1.09-.095.041-.209.13-.326.133-.233.006-.414.114-.62.231L0 .851Z" style="fill:#1e103b;fill-opacity:1;fill-rule:nonzero;stroke:none" transform="translate(643.339 342.882)"/><path d="m0 0-.661-.391c-.03-.37-.053-.723.028-1.123.13-.129.282-.289.445-.438.058-.054.141-.08.212-.119.267.15.402.484.753.525.056.006.132.127.142.203.027.219.026.443.036.644C.767-.263.306-.239 0 0" style="fill:#1e103b;fill-opacity:1;fill-rule:nonzero;stroke:none" transform="translate(643.744 341.113)"/><path d="M0 0c-.119.219-.243.45-.373.677-.02.034-.069.05-.152.107C-.79.775-1.102.776-1.41.75c-.07-.006-.132-.105-.201-.165a3.082 3.082 0 0 1 .04-1.149l.273-.268c.306-.055.518-.085.72.061.176.127.369.231.551.343.008.145.017.279.027.428" style="fill:#1e103b;fill-opacity:1;fill-rule:nonzero;stroke:none" transform="translate(637.08 335.495)"/><path d="M0 0c.189.111.377.226.587.352 0 .261.087.523-.009.81-.135.155-.271.334-.516.399h-.646c-.191-.153-.379-.28-.426-.472V.381c.095-.117.17-.232.268-.324C-.545-.13-.25-.147 0 0" style="fill:#1e103b;fill-opacity:1;fill-rule:nonzero;stroke:none" transform="translate(639.47 342.312)"/><path d="m0 0-.312-.583.208-.332v-.381c.107-.21.237-.371.465-.427.245.255.535.448.849.598.091.359.117.708.031 1.058C.853.174.602.187 0 0" style="fill:#1e103b;fill-opacity:1;fill-rule:nonzero;stroke:none" transform="translate(656.462 338.063)"/><path d="M0 0h-.903c-.14-.104-.227-.2-.228-.347v-.828c.119-.123.234-.26.37-.37.059-.049.189-.086.242-.054.425.252.798.561 1.005 1.027.018.038.006.089.008.135C.368-.251.222-.086 0 0" style="fill:#1e103b;fill-opacity:1;fill-rule:nonzero;stroke:none" transform="translate(646.901 334.904)"/><path d="m0 0-.354-.655v-.414c.131-.192.263-.367.496-.453h.426c.193.197.409.414.619.637.08.083.069.272.002.365a1.978 1.978 0 0 1-.7.615C.335.079.152.143 0 0" style="fill:#1e103b;fill-opacity:1;fill-rule:nonzero;stroke:none" transform="translate(641.797 347.032)"/><path d="M0 0c-.267-.174-.496-.382-.653-.68.009-.16.019-.334.032-.531.236-.183.364-.484.717-.547.28.271.603.515.813.865.041.068.028.169.04.254C.753-.243.338-.175 0 0" style="fill:#1e103b;fill-opacity:1;fill-rule:nonzero;stroke:none" transform="translate(640.455 324.514)"/><path d="M0 0c.406-.171.194-.535.335-.858l.342-.324c.323.008.367.007.371.101.014.36.35.36.531.513l.267.606-.697.385H.472L0 0" style="fill:#1e103b;fill-opacity:1;fill-rule:nonzero;stroke:none" transform="translate(647.665 344.276)"/><path d="M0 0c.021-.063.129-.122.206-.135.127-.023.26-.006.261-.006.549.191.57.641.783.957-.347.362-.347.362-1.114.634-.177-.118-.35-.248-.43-.455C-.33.788-.158.671-.109.507-.06.342-.057.162 0 0" style="fill:#1e103b;fill-opacity:1;fill-rule:nonzero;stroke:none" transform="translate(637.135 351.364)"/><path d="m0 0-.369-.388c-.02-.293-.05-.558.057-.826.181-.102.371-.211.564-.313.025-.014.071.009.107.014.236.201.499.376.627.701v.429L.535.042 0 0" style="fill:#1e103b;fill-opacity:1;fill-rule:nonzero;stroke:none" transform="translate(638.01 332.165)"/><path d="m0 0 .343-.322c.253.161.422.354.605.528a.48.48 0 0 1 .077.106c.023.036.038.077.057.115l-.001.639-.186.213c-.3.028-.612.135-.893-.16C-.061.802-.058.455 0 0" style="fill:#1e103b;fill-opacity:1;fill-rule:nonzero;stroke:none" transform="translate(638.455 345.025)"/><path d="M0 0c.026-.022.032-.031.038-.039-.009.017-.009.043.073.053.235.195.479.384.624.682v.381c-.049.075-.088.157-.147.217-.093.093-.201.17-.313.261-.438-.042-.658-.35-.839-.672.07-.142.159-.254.177-.377C-.348.257-.165.142 0 0" style="fill:#1e103b;fill-opacity:1;fill-rule:nonzero;stroke:none" transform="translate(668.414 345.843)"/><path d="M0 0c.007-.014.012-.015 0 0" style="fill:#1e103b;fill-opacity:1;fill-rule:nonzero;stroke:none" transform="translate(668.452 345.804)"/><path d="M0 0c.339-.096.604.011.805.292l.1.143v.474c-.21.342-.494.503-.893.411l-.172-.198C-.16.817-.17.508-.153.2-.149.13-.054.066 0 0" style="fill:#1e103b;fill-opacity:1;fill-rule:nonzero;stroke:none" transform="translate(645.407 337.1)"/><path d="m0 0 .275.259v.585c-.201.152-.332.41-.648.379C-.562 1.108-.738.981-.817.76c.023-.293-.114-.623.194-.855C-.453-.112-.28-.16 0 0" style="fill:#1e103b;fill-opacity:1;fill-rule:nonzero;stroke:none" transform="translate(643.596 352.138)"/><path d="M0 0c-.22.009-.44.002-.641.002-.237-.174-.18-.404-.175-.659.098-.108.213-.241.337-.364.085-.083.28-.092.365-.016.131.119.251.248.371.369 0 .151.011.284-.002.414C.241-.112.135-.005 0 0" style="fill:#1e103b;fill-opacity:1;fill-rule:nonzero;stroke:none" transform="translate(643.888 333.002)"/><path d="M0 0a.377.377 0 0 1 .34.17c.096.146.161.313.232.474.012.029-.01.072-.02.143L.2 1.088c-.262.015-.49.054-.627-.188C-.435.599-.562.275-.266.031-.177.02-.089.005 0 0" style="fill:#1e103b;fill-opacity:1;fill-rule:nonzero;stroke:none" transform="translate(636.982 341.147)"/><path d="m0 0 .307.301v.554L.146.997c-.448.162-.705-.019-.86-.353l.208-.498C-.424-.052-.269-.072 0 0" style="fill:#1e103b;fill-opacity:1;fill-rule:nonzero;stroke:none" transform="translate(643.836 335.772)"/><path d="M0 0c.246.178.459.386.604.682l-.332.346c-.251.045-.466.094-.644-.095C-.494.687-.44.428-.415.172-.401.031-.115-.083 0 0" style="fill:#1e103b;fill-opacity:1;fill-rule:nonzero;stroke:none" transform="translate(642.132 330.33)"/><path d="M0 0c-.134.08-.401-.038-.41-.193-.014-.221-.004-.443-.004-.674.05-.05.099-.142.169-.164a.35.35 0 0 1 .361.099c.093.096.178.199.267.299v.274c-.088.094-.177.192-.271.287C.082-.042.039-.022 0 0" style="fill:#1e103b;fill-opacity:1;fill-rule:nonzero;stroke:none" transform="translate(638.047 348.724)"/><path d="M0 0c.129.116.271.229.393.36.128.14.363.077.462.244.09.153.141.328.231.479.125.209.125.42.039.696l-.624.595a5.222 5.222 0 0 1-1.38-.003l-.632-.642c-.045-.257.117-.381.172-.544.057-.166.06-.349.086-.528.183-.269.411-.445.769-.455C-.326.198-.171.075 0 0" style="fill:#1e103b;fill-opacity:1;fill-rule:nonzero;stroke:none" transform="translate(651.66 292.314)"/><path d="M0 0c-.104.078-.236.122-.357.176-.237.106-.475.21-.722.318l-.558-.522-.3-.649c.287-.283.177-.671.246-1.051l.663-.375c.081.052.151.125.234.145.379.088.608.381.856.635.183.188.196.49.37.704.036.045.005.188-.043.247A2.21 2.21 0 0 1 0 0" style="fill:#1e103b;fill-opacity:1;fill-rule:nonzero;stroke:none" transform="translate(652.656 288.978)"/><path d="M0 0a3.626 3.626 0 0 1 .043-1.087l.615-.601c.131-.007.22-.018.309-.015.193.007.335.082.387.29.034.14.135.215.281.249.08.018.201.075.214.135.048.225.194.396.282.597.029.066.008.19-.039.246-.113.137-.254.25-.354.345-.217.04-.398.051-.562.112C1.014.33.885.479.623.425.549.163.169.275 0 0" style="fill:#1e103b;fill-opacity:1;fill-rule:nonzero;stroke:none" transform="translate(655.03 293.421)"/><path d="M0 0c.07.056.146.105.21.167.161.154.361.289.463.477.102.189.157.405.289.587.037.05-.016.165-.026.248l-.703.408h-.946l-.667-.608c.112-.305.224-.581.224-.891C-.803-.121-.404-.073 0 0" style="fill:#1e103b;fill-opacity:1;fill-rule:nonzero;stroke:none" transform="translate(659.99 293.094)"/><path d="M0 0c-.266.004-.534.071-.843-.064l-.318-.337c-.029-.382-.078-.738.06-1.081.016-.039.062-.066.102-.106.434-.08.875-.1 1.366.007l.351.333c.01.312.064.576-.072.922C.425-.321.228-.135 0 0" style="fill:#1e103b;fill-opacity:1;fill-rule:nonzero;stroke:none" transform="translate(656.179 290.621)"/><path d="M0 0c-.116-.194-.396-.223-.685-.411.422-.201.112-.643.356-.921.153-.159.298-.332.607-.273.161.268.538.393.666.771v.416L.502 0Z" style="fill:#1e103b;fill-opacity:1;fill-rule:nonzero;stroke:none" transform="translate(648.37 290.626)"/><path d="M0 0c.279.031.478.075.675.072C2.192.049 3.709.017 5.227-.011c.216-.004.435-.011.649.01.541.055.767.298.774.84.022 1.6.049 3.2.051 4.8.002 2.031.002 4.062-.036 6.092-.048 2.554-.19 5.107-.189 7.661 0 2.512-.075 5.019-.194 7.527-.029.608-.101 1.196-.443 1.79l-5.209.022c-.273.784-.173 1.525-.202 2.242-.063 1.554-.139 3.114-.073 4.666.127 2.947-.109 5.885-.113 8.829-.006 3.508-.165 7.016-.276 10.524-.083 2.642-.197 5.283-.289 7.925-.014.423.016.847.028 1.349.726-.045 1.358-.093 1.991-.121 2.206-.099 4.412-.213 6.62-.281 2.853-.087 5.707-.145 8.561-.196 3.242-.059 6.484-.11 9.726-.138 2.684-.022 5.369-.006 8.054-.006.26 0 .523.04.779.011 1.632-.191 3.265-.093 4.9-.047.993.027 1.988-.061 2.982-.061 1.376 0 2.752.037 4.128.049.475.003.95-.009 1.425-.037 2.853-.169 5.71-.084 8.565-.109 2.079-.019 4.157-.028 6.236-.05.119-.001.237-.074.418-.134.072-.759.187-1.525.209-2.294.083-2.815.151-5.631.193-8.447.038-2.512.024-5.026.053-7.538.024-2.116.12-4.23.11-6.346-.015-3.159.136-6.315.142-9.474.001-.078-.053-.156-.114-.322-.205-.021-.455-.085-.699-.066-1.503.121-3.028-.19-4.518.236-.242.069-.517.037-.776.036-1.167-.006-2.334.003-3.5-.035-.777-.026-1.552-.12-2.328-.187-.758-.065-1.163-.522-1.307-1.231a4.379 4.379 0 0 1-.078-.9c.024-2.599.042-5.198.093-7.796.032-1.596.136-3.191.173-4.787.04-1.729.022-3.459.06-5.187.033-1.471.106-2.942.172-4.412.115-2.552.238-5.104.358-7.657.004-.086.002-.174.009-.26.068-.867.411-1.234 1.287-1.331a45.535 45.535 0 0 1 2.329-.205c1.73-.098 3.46-.173 5.189-.257.13-.007.264-.03.39-.008.729.124 1.454.211 2.088-.243.515.432.638.798.654 1.198.029.736.037 1.472.053 2.209.001.086-.009.173-.005.26a45.484 45.484 0 0 1-.03 4.4c-.062 1.201.152 2.415.2 3.626.022.558.007 1.134-.109 1.677-.412 1.919-.517 3.857-.472 5.81.012.549.001 1.099.001 1.707 13.992-.839 27.937-1.156 41.941-1.336.047-.232.139-.479.14-.727.004-1.685-.14-3.373.112-5.053-.176-3.285.132-6.568.001-9.855-.079-1.987.056-3.981.085-5.972.045-2.979.076-5.957.122-8.936.027-1.729.087-3.459.106-5.188.024-2.209 0-4.419.038-6.628.037-2.164.126-4.326.187-6.489.013-.431.002-.863.002-1.362-.269-.048-.509-.129-.751-.13-1.992-.016-3.985-.013-5.977-.024-2.512-.014-5.025-.046-7.537-.05-2.382-.004-4.764.03-7.147.026-3.55-.007-7.1-.035-10.651-.05-2.121-.009-4.241-.012-6.362-.016-1.903-.003-3.811.089-5.706-.029-2.207-.137-4.412-.035-6.617-.114-1.812-.065-3.63.025-5.445.027-2.032.002-4.065-.037-6.097-.024-2.075.013-4.15.079-6.224.099-1.206.012-2.412-.02-3.619-.034-1.294-.015-2.588-.04-3.882-.043-3.809-.009-7.618 0-11.427-.015a1103.02 1103.02 0 0 1-10.914-.082c-2.378-.033-4.756-.13-7.135-.189-.378-.009-.757.033-1.158.053v3.705c0 .95-.009 1.899.006 2.848.01.65.078 1.299.08 1.948.006 2.459-.014 4.917-.003 7.375.006 1.081.084 2.161.095 3.242.024 2.337.08 4.676.018 7.011C.153-8.961.223-7.233.164-5.506.114-4.039.053-2.572.001-1.104-.01-.764 0-.422 0 0m-.964-38.414c.213-.215.396-.46.603-.682.705-.759 1.423-1.506 2.119-2.273.871-.961 1.717-1.944 2.591-2.902.262-.288.59-.442 1.007-.521 1.035-.194 2.07-.184 3.108-.151 3.204.099 6.382-.46 9.595-.326 2.026.086 4.063-.05 6.099.004 1.945.052 3.895.191 5.845-.032.594-.068 1.209.051 1.815.074 1.467.06 2.934.153 4.402.161 2.808.016 5.617-.03 8.426-.022 1.08.003 2.159.109 3.238.119 1.777.015 3.562-.118 5.329.008 2.216.156 4.417-.066 6.625-.05 2.642.021 5.286-.051 7.928-.038.993.004 1.984.147 2.977.198 2.722.142 5.454-.047 8.174.229.471.048.958.06 1.425-.002 2.54-.338 5.091-.466 7.647-.32 2.128.121 4.241-.017 6.36-.154.688-.045 1.38-.069 2.069-.058 1.466.02 2.932.06 4.397.111.735.025 1.468.116 2.203.138 1.47.043 2.947.147 4.411.054 1.039-.065 2.071-.121 3.11-.083.948.035 1.891.205 2.85.028.471-.087.953.007 1.162.367 0 .616-.013 1.086.002 1.554.045 1.341.138 2.683.148 4.025.036 4.942.027 9.885.072 14.826.033 3.508.153 7.015.184 10.523.034 4.029.008 8.059.016 12.089.006 3.079-.032 6.158.069 9.233.036 1.074-.368 1.816-1.05 2.511-.272.278-.571.532-.861.792-1.806 1.616-3.618 3.224-5.415 4.849-.356.322-.748.489-1.181.306-.591-.248-1.182-.176-1.784-.15-1.557.065-3.113.14-4.671.176-1.858.042-3.724-.047-5.573.097-1.639.129-3.275-.009-4.909.111-.647.048-1.301.098-1.948.064-2.551-.138-5.103.127-7.654-.013-.172-.01-.347.019-.519.022-1.083.02-2.166.058-3.248.052-3.204-.018-6.408-.03-9.61-.096-1.122-.024-2.241-.194-3.36-.303-.593-.058-.929-.311-1.051-1.121-.038-.254-.006-.519 0-.778l.264-10.264c.019-.737-.003-1.478.071-2.209.167-1.643.015-3.282.027-4.923 0-.066-.094-.134-.149-.207h-2.569c-.12.67.021 1.267.063 1.863.064.905.156 1.808.22 2.713.045.649.065 1.298.093 1.947.065 1.516.156 3.031.185 4.546.045 2.384.043 4.768.071 7.153.012.951.02 1.906.095 2.854.047.59-.061 1.216.251 1.791.573.191 1.128-.02 1.681-.016 2.988.024 5.976.043 8.965.066.216.001.433.013.648.037.444.049.725.308.779.742.085.688.17 1.38.183 2.071.063 3.424.101 6.848.151 10.272.017 1.17.069 2.34.066 3.51-.008 2.684-.046 5.369-.058 8.053-.007 1.726.018 3.451.015 5.177-.004 2.464-.039 4.927-.021 7.391.008 1.143-.275 2.084-1.187 2.876a109.448 109.448 0 0 1-5.328 4.357c-1.036.791-2.163 1.266-3.463 1.3-.995.026-1.992.015-2.989.026-2.293.025-4.586.064-6.88.079-2.813.017-5.626.016-8.439.024-1.86.005-3.721.004-5.58.018-1.295.009-2.59.05-3.884.054-1.383.004-2.766-.033-4.148-.025-1.427.007-2.853.063-4.28.064-.864 0-1.729-.097-2.593-.093-3.855.022-7.709.079-11.564.092-1.642.006-3.287-.134-4.926-.081-2.471.08-4.933-.099-7.399-.139-.562-.01-1.122-.061-1.619-.389-.256-.679-.209-1.38-.229-2.069-.031-1.083-.032-2.167-.043-3.251-.038-4.027-.099-8.055-.104-12.081-.003-3.464.07-6.927.086-10.39.012-2.772.022-5.545-.037-8.317-.02-.935.288-1.672.825-2.385.677-.9 1.32-1.825 1.975-2.741.151-.211.269-.449.438-.644.903-1.045 1.818-2.081 2.752-3.147.082-5.942.165-11.912.243-17.881.002-.122-.061-.245-.117-.456-.361-.034-.741-.079-1.123-.102-1.425-.09-2.852-.159-4.275-.268-.282-.021-.553-.18-.762-.252 0-.696.009-1.292-.003-1.889-.007-.346-.063-.691-.071-1.036-.064-2.596-.103-5.194-.19-7.789a49.045 49.045 0 0 1 .004-3.494c.043-1.118-.061-2.24-.079-3.36-.024-1.424-.029-2.848-.039-4.273-.008-1.168-.016-2.335-.018-3.502-.002-1.86.004-3.72.001-5.579-.004-2.077-.019-4.154-.017-6.231 0-.85.244-1.616.859-2.239" style="fill:#1e103b;fill-opacity:1;fill-rule:nonzero;stroke:none" transform="translate(57.7 286.457)"/><path d="M0 0c.058-.392.047-.779.075-1.167.043-.613.063-1.238.21-1.828.222-.891.572-1.748.817-2.634a6.762 6.762 0 0 1 1.205-2.378 4.47 4.47 0 0 0 .581-1.015c.251-.588.493-1.19.831-1.729.309-.493.65-.97.968-1.459.276-.424.506-.867.754-1.303.356-.626.668-1.278 1.019-1.908.19-.34.438-.647.631-.986.458-.8 1.163-1.442 1.49-2.325.009-.026.031-.047.05-.068.513-.552.99-1.144 1.549-1.644.965-.864 1.783-1.86 2.602-2.845.97-1.168 2.182-2.09 3.144-3.258.085-.104.229-.16.342-.243 1.107-.812 2.32-1.441 3.535-2.07.174-.09.359-.166.515-.282.815-.601 1.736-1 2.661-1.386.279-.118.58-.214.879-.247.915-.1 1.833-.178 2.752-.239 1.169-.077 2.331-.248 3.509-.219.473.011.966-.013 1.418-.136.984-.269 1.988-.257 2.987-.313.614-.034 1.232-.006 1.848-.006a.575.575 0 0 0 .001-.041c.36 0 .721-.012 1.081.002.804.033 1.616-.044 2.411.154.462.116.925.24 1.394.316.498.081.981.192 1.46.356.368.126.766.164 1.15.239.11.021.235.008.328.058.72.384 1.532.503 2.283.795.234.091.455.232.696.287a8.373 8.373 0 0 1 2.178.832c.438.237.867.492 1.31.721.87.453 1.753.864 2.691 1.145 1.046.313 2.031.778 3.012 1.236.651.304 1.344.552 1.909 1.029.124.106.294.162.45.224.464.186.934.355 1.392.562.658.296 1.357.496 2.005.834.638.332 1.341.523 2.004.811 1.154.5 2.336.934 3.459 1.507.346.177.703.322 1.021.559.333.25.68.527 1.066.647.609.189 1.071.597 1.597.904 1.175.687 2.32 1.426 3.506 2.094.438.247.892.458 1.285.778.086.07.193.115.29.17.503.291 1.007.579 1.509.872.788.462 1.611.866 2.374 1.37a.851.851 0 0 0 .148.081c1.021.413 1.884 1.094 2.815 1.659.691.419 1.288.975 1.998 1.374.359.201.695.46 1 .738.335.306.719.523 1.1.756.497.303.99.604 1.455.967.397.31.74.675 1.136.979.465.358 1.013.625 1.421 1.035.634.636 1.409 1.06 2.133 1.554 1.058.723 2.162 1.376 3.246 2.061.118.075.227.163.343.241.46.31.85.715 1.365.955.221.103.408.291.589.465.661.634 1.31 1.281 1.971 1.916.119.114.275.19.414.285.137.095.288.178.409.29.577.534 1.164 1.049 1.855 1.436.143.08.257.214.379.33.242.229.489.454.721.694.657.684 1.432 1.24 2.077 1.943.241.264.456.557.72.8.452.414.876.855 1.287 1.308.356.393.767.746 1.064 1.177.352.51.753.957 1.21 1.367.207.186.377.414.568.62.19.205.353.459.585.599.803.485 1.193 1.4 1.994 1.878.583.738 1.217 1.441 1.593 2.321.032.076.064.183.125.212.5.237.629.771.934 1.16.449.573.834 1.193 1.074 1.891.053.156.137.305.225.446.434.678 1 1.273 1.275 2.051.037.101.127.184.196.272.48.616.983 1.217 1.436 1.852.272.381.796.535.908 1.046.601.834 1.236 1.645 1.794 2.507.546.842 1.216 1.594 1.729 2.457.299.504.665.988.857 1.533.277.786.383 1.632.638 2.428.28.876.17 1.836.608 2.673.024.047.018.111.019.166.011.624.173 1.216.339 1.812.127.456.244.929.257 1.397.015.532-.015 1.058.182 1.567a.274.274 0 0 1-.003.165c-.154.482.051.943.079 1.413.008.137.082.273.074.406-.063 1.029.014 2.058-.031 3.09-.079 1.818-.247 3.622-.596 5.408-.069.355-.186.701-.291 1.049-.377 1.254-.473 2.576-.939 3.812-.219.58-.457 1.148-.866 1.611a5.255 5.255 0 0 0-.46.574c-.51.763-.98 1.556-1.578 2.259-.288.338-.565.679-.929.952-.777.584-1.527 1.205-2.288 1.811-.107.085-.206.186-.324.251-.541.296-1.083.589-1.632.87-.198.1-.411.177-.625.236a68.88 68.88 0 0 1-1.787.463c-.216.054-.439.13-.656.121-1.06-.046-2.127-.029-3.159-.353a1.024 1.024 0 0 0-.57.01c-.319.1-.614.253-.837.533-.133.168-.317.336-.512.405-.838.293-1.708.329-2.573.158-.766-.152-1.516-.395-2.307-.412a.89.89 0 0 1-.329-.061c-.807-.341-1.679-.433-2.52-.628a27.526 27.526 0 0 1-3.199-.928c-.71-.258-1.36-.657-2.112-.822-.513-.112-.999-.347-1.492-.542-.309-.123-.603-.286-.912-.412a48.266 48.266 0 0 1-3.125-1.401c-.176-.087-.349-.226-.531-.241-.475-.038-.837-.316-1.234-.513a85.217 85.217 0 0 1-3.181-1.64c-.832-.457-1.643-.95-2.525-1.309-.051-.02-.09-.067-.138-.096-.836-.506-1.683-.993-2.501-1.526-.295-.191-.658-.342-.807-.704a88.103 88.103 0 0 1-.96-2.419c-.086-.23-.108-.49-.131-.738a.793.793 0 0 1 .331-.737c.313-.225.622-.441 1.04-.508.558-.088 1.117-.064 1.669-.123.911-.098 1.728.191 2.527.517.654.266 1.331.423 2.001.613.593.167 1.197.29 1.794.442.161.042.34.085.464.185.633.514 1.415.637 2.163.83.647.167 1.32.234 1.967.402 1.027.266 2.055.541 3.06.882 1.071.364 2.19.448 3.288.649.233.043.492-.044.736-.089.599-.111 1.169-.379 1.805-.278.125.02.27-.051.399-.098.157-.056.301-.169.462-.194.964-.153 1.41-.848 1.667-1.67a6.068 6.068 0 0 0 .286-1.736c.008-.666.013-1.343.179-1.995.137-.537.267-1.088.829-1.387.138-.073.237-.229.339-.358.349-.441.422-.979.42-1.506-.002-.86.057-1.737-.342-2.548-.035-.071-.025-.165-.036-.249a19.478 19.478 0 0 0-.618-3.025c-.195-.662-.416-1.322-.735-1.956-.436-.869-.978-1.683-1.336-2.595-.117-.3-.432-.516-.595-.805-.162-.286-.195-.649-.373-.922-.517-.795-1.076-1.563-1.624-2.337-.08-.113-.191-.204-.29-.302-.458-.449-.912-.906-1.196-1.491-.392-.804-1.166-1.355-1.454-2.229-.039-.117-.222-.179-.291-.294-.168-.283-.512-.443-.544-.823-.009-.094-.114-.189-.19-.267-.358-.37-.569-.82-.749-1.295-.177-.466-.322-.96-.589-1.372-.333-.513-.617-1.05-.923-1.577-.281-.482-.554-.976-.9-1.411-.366-.459-.415-1.108-.925-1.468-.124-.473-.445-.82-.721-1.206-.452-.63-.806-1.328-1.395-1.858-.099-.088-.144-.236-.206-.362-.384-.781-.819-1.525-1.446-2.146-.177-.175-.31-.396-.45-.605-.325-.487-.61-1.007-.973-1.465-.536-.678-1.128-1.313-1.692-1.97-.126-.147-.224-.318-.35-.463-.451-.52-.762-1.17-1.415-1.504-.118-.06-.21-.178-.306-.278-.527-.538-1.066-1.065-1.572-1.623-.58-.639-1.392-1.035-1.861-1.79-.054-.087-.178-.132-.274-.188-.143-.085-.312-.14-.433-.249-.499-.448-1.194-.624-1.615-1.179-.046-.061-.139-.1-.218-.121-.716-.202-1.257-.721-1.904-1.046-.918-.462-1.716-1.154-2.743-1.412-.295-.074-.576-.221-.849-.362-.738-.384-1.395-.94-2.26-1.055-.051-.006-.098-.051-.144-.082-1.044-.727-2.283-1.021-3.422-1.535-.275-.124-.56-.258-.853-.308-.898-.15-1.638-.684-2.478-.969-.478-.425-1.107-.514-1.675-.729-.879-.332-1.806-.54-2.673-.898-.871-.359-1.795-.582-2.625-1.042-.193-.107-.414-.206-.629-.225-.767-.072-1.427-.479-2.153-.683-.557-.157-1.093-.395-1.679-.466a4.103 4.103 0 0 1-.576-.123c-.856-.225-1.691-.528-2.569-.68a4.988 4.988 0 0 1-1.188-.392 6.735 6.735 0 0 0-1.986-.579c-.468-.058-.939-.098-1.406-.16a38.765 38.765 0 0 1-2.222-.358c-.766-.148-1.548-.21-2.295-.478-.417-.149-.871-.207-1.313-.266a22.028 22.028 0 0 0-1.756-.162c-.496-.024-.999-.049-1.488.016a15.21 15.21 0 0 1-1.491.098 5.946 5.946 0 0 0-1.247.165c-.231.057-.51.195-.628.383-.241.387-.595.661-.861 1.016-.334.447-.665.897-.976 1.36-.137.204-.286.436-.317.669-.085.634-.266 1.262-.183 1.911.049.388.13.775.137 1.163.02.94.394 1.798.614 2.69.151.617.472 1.194.722 1.787a34.423 34.423 0 0 0 1.534 3.165c.254.464.549.906.832 1.354.296.468.453 1.015.853 1.43.145.15.183.401.278.601.096.201.17.424.31.588.492.572.879 1.215 1.287 1.843.286.441.53.909.822 1.346.231.347.529.65.754 1 .182.282.337.575.598.799.542.465.777 1.15 1.192 1.709.186.25.228.624.281.951.045.273-.01.561.019.839.025.246.046.523.171.723.473.753.856 1.574 1.574 2.154.237.192.449.429.629.677.575.795 1.277 1.478 1.945 2.187.591.628 1.162 1.273 1.803 1.861.753.69 1.412 1.496 2.031 2.313.702.926 1.627 1.594 2.466 2.363.512.47 1.147.801 1.558 1.387.046.065.124.109.188.16 1.434 1.139 2.901 2.238 4.219 3.514l1.565 1.515c.2.192.395.391.604.572.61.528 1.245 1.03 1.835 1.579.388.36.678.83 1.08 1.168.711.6 1.206 1.391 1.893 2.013.32.29.633.636.877.993.295.432.688.721 1.064 1.048a.995.995 0 0 0 .603.263c.415.029.818.134 1.247.047.497-.101.996.018 1.487.119.345.071.68.266.826.53.284.512.706.928.925 1.492.223.571.532 1.107.605 1.729a.39.39 0 0 0 .059.157c.317.486.254 1.1.502 1.592.266.526.212 1.089.342 1.626.085.351.078.723.147 1.08.199 1.027.254 2.045-.113 3.051-.172.47-.309.957-.512 1.413-.339.761-.922 1.309-1.599 1.785-.543.383-1.007.877-1.651 1.11-.051.018-.091.065-.139.095-.988.63-1.892 1.374-2.785 2.126-.305.257-.607.477-.982.614-.528.193-.99.512-1.468.806-.459.283-.799.688-1.204 1.024-.686.569-1.344 1.172-2.011 1.764a1.274 1.274 0 0 0-.216.253c-.232.347-.449.704-.688 1.046-.635.913-1.279 1.821-1.919 2.732-.08.112-.173.221-.224.347a8.913 8.913 0 0 1-1.645 2.607c-.222.247-.508.436-.748.669-.298.288-.706.322-1.061.465-.514.208-1.059.347-1.6.481a1.583 1.583 0 0 1-.668.006c-1.155-.231-2.247-.665-3.345-1.078-.076-.028-.137-.095-.205-.145-.474-.343-.946-.688-1.422-1.027a.614.614 0 0 0-.228-.101c-.626-.116-1.049-.634-1.641-.823-.115-.037-.196-.189-.284-.295-.48-.581-1.062-1.074-1.476-1.712-.803-.58-1.299-1.448-1.991-2.131-.996-.981-1.796-2.14-2.852-3.072-.426-.378-.859-.797-1.096-1.356-.051-.12-.174-.216-.278-.307-.545-.48-1.096-.952-1.638-1.435a1.294 1.294 0 0 1-.26-.328c-.552-.967-1.327-1.727-2.183-2.422-.302-.245-.602-.52-.816-.84-.612-.912-1.334-1.726-2.047-2.556-1.865-2.168-3.5-4.508-4.948-6.975-.413-.703-.851-1.381-1.379-2.004a4.308 4.308 0 0 1-.567-.828c-.457-.907-1.08-1.698-1.693-2.496-.357-.464-.743-.906-1.098-1.371-.254-.332-.482-.686-.72-1.031-.237-.343-.481-.681-.705-1.032-.434-.68-1.055-1.235-1.341-2.014-.494-.32-.657-.897-1.022-1.317-.546-.632-.946-1.37-1.494-2.008-.523-.609-.898-1.345-1.347-2.019a12.27 12.27 0 0 0-.594-.805c-.328-.415-.669-.82-1-1.232-.575-.715-1.207-1.386-1.691-2.173-.276-.449-.584-.881-.854-1.334-.431-.722-.886-1.43-1.436-2.065-1.084-1.25-1.984-2.61-2.61-4.146a1.302 1.302 0 0 0-.167-.289c-.428-.566-.651-1.23-.908-1.877-.124-.311-.221-.632-.35-.941-.227-.542-.488-1.07-.7-1.617-.618-1.585-1.22-3.177-1.825-4.766-.049-.13-.073-.268-.115-.401C.93 8.207.825 7.86.707 7.518.396 6.622.017 5.742.132 4.756c.016-.136-.031-.278-.041-.419-.034-.471-.144-.956-.074-1.413.083-.541.031-1.053-.022-1.582A5.477 5.477 0 0 1 0 0" style="fill:#1e103b;fill-opacity:1;fill-rule:nonzero;stroke:none" transform="translate(233.252 299.813)"/><path d="M0 0a32.489 32.489 0 0 0-1.383-2.514 81.29 81.29 0 0 0-1.801-2.851C-3.76-6.248-4.52-6.948-5.386-7.55c-.565-.391-1.08-.352-1.617.009-.068.047-.14.091-.204.144-1.127.922-2.273 1.822-3.372 2.777-.696.606-1.394 1.179-2.252 1.55-.415.179-.806.441-1.164.721-1.396 1.092-3.004 1.349-4.711 1.275-1.065-.047-2.034-.379-2.949-.914-1.008-.589-2.009-1.176-2.782-2.082-.413-.482-.755-.986-.924-1.608a26.007 26.007 0 0 0-.531-1.667c-.373-1.078-.422-2.202-.499-3.325-.13-1.954-.097-3.907.002-5.859.054-1.046.027-2.081-.14-3.116a2.007 2.007 0 0 1 .014-.737c.089-.399.449-.658.832-.592 1.081.187 2.15.079 3.232-.006 1.327-.105 2.664-.08 3.996-.112.958-.023 1.916-.051 2.873-.071.291-.006.591-.037.872.019 1.079.216 2.153.135 3.236.04.703-.062 1.42-.088 2.12-.019.891.089 1.745-.034 2.589-.256.266-.069.616-.212.722-.424.408-.814.799-1.656.466-2.617-.231-.669-.402-1.36-.667-2.014-.705-1.746-1.823-3.161-3.477-4.108a1.875 1.875 0 0 0-.701-.237c-1.111-.126-2.219-.279-3.348-.179-1.119.099-2.243.13-3.365.19a4.34 4.34 0 0 0-.004-.114c-1.414.031-2.829.088-4.243.083-.873-.003-1.746-.096-2.619-.154-.581-.039-1.164-.075-1.743-.137-.728-.078-.925-.263-1.043-.997-.233-1.444-.246-2.901-.226-4.358.018-1.205.066-2.41.06-3.615-.004-1.121-.085-2.242-.086-3.363-.001-.748.092-1.496.118-2.244.136-3.832.055-7.665.031-11.497-.021-3.542 0-7.083-.01-10.624-.002-.54-.099-1.078-.111-1.618-.045-2.171.144-4.333.412-6.48.141-1.127.187-2.229.1-3.35a9.799 9.799 0 0 1-.035-.999c.054-1.997.121-3.994.172-5.992.012-.497-.033-.996-.027-1.493.022-1.874.066-3.747.078-5.621.012-1.701-.001-3.402-.015-5.104-.008-.999-.024-1.998-.06-2.997-.046-1.289-.127-2.578-.175-3.867-.044-1.206-.1-2.412-.087-3.618.025-2.552-.291-5.063-.845-7.549-.272-1.214-.381-2.469-.853-3.636-.264-.655-.471-1.35-.847-1.937-.833-1.303-1.494-2.689-2.189-4.064-.984-1.951-.976-1.977-2.69-3.355-1.424-1.144-2.875-2.271-4.409-3.258-1.854-1.191-3.826-2.185-5.935-2.88a81.57 81.57 0 0 1-3.991-1.424c-1.075-.419-2.178-.554-3.31-.483-1.337.085-2.658-.112-3.983-.193-2.799-.171-5.571.012-8.334.441-1.11.173-2.218.35-3.32.555a3.3 3.3 0 0 0-.931.346 161.194 161.194 0 0 0-3.832 2.093 48.9 48.9 0 0 0-2.55 1.566c-.962.63-1.369 1.526-1.175 2.68.229 1.358.525 2.693 1.127 3.949.629 1.311 1.12 2.684 1.833 3.96.67 1.198 1.293 2.422 1.924 3.641.152.294.244.619.377.923.317.726 1.205 1.469 2.359 1.184.741-.184 1.401-.476 1.95-1.041.761-.787 1.416-1.638 1.834-2.655.39-.949.979-1.73 1.824-2.325.408-.286.762-.648 1.169-.936 1.288-.916 2.788-1.321 4.305-1.568 1.014-.164 2.077-.147 3.038.406.36.206.754.353 1.137.517 1.552.663 2.537 1.878 3.147 3.388.325.803.399 1.705.709 2.516.314.819.598 1.628.763 2.496.166.87.211 1.739.168 2.612-.079 1.629.096 3.241.216 4.861.115 1.577.134 3.164.112 4.746-.023 1.79-.254 3.583-.179 5.367.069 1.674-.172 3.324-.153 4.989.014 1.126-.011 2.246.192 3.362.081.445.053.914.042 1.37-.061 2.373-.152 4.745-.193 7.118a224.49 224.49 0 0 0-.007 5.626c.006.914.094 1.826.09 2.739-.009 2.83-.051 5.66-.07 8.49-.023 3.541-.018 7.082-.061 10.623-.023 1.832-.143 3.664-.184 5.496-.044 1.959.067 3.913.146 5.87.104 2.579.024 5.165-.002 7.748-.007.832-.07 1.664-.143 2.493a1.621 1.621 0 0 1-1.658 1.494c-.291-.008-.58-.061-.87-.082-.87-.063-1.73-.176-2.613-.038-.566.089-1.164.017-1.744-.03-1.125-.09-2.138.294-3.13.729-.234.103-.462.381-.551.629-.192.545-.38 1.116-.415 1.687-.067 1.121-.043 2.248-.031 3.373.016 1.499.816 2.326 2.232 2.555.817.132 1.658.115 2.486.186 1.036.088 2.073.181 3.105.303.662.078 1.303.189 1.983.049.692-.142 1.234.255 1.405.932.122.482.17.97.077 1.482-.564 3.124-.348 6.22.373 9.296.304 1.293.555 2.599.889 3.884a14.08 14.08 0 0 0 2.218 4.723c.704.98 1.326 2.022 2.067 2.971a14.038 14.038 0 0 0 1.897 1.98c2.874 2.463 6.13 4.318 9.645 5.677 1.861.719 3.835 1.097 5.807 1.448 2.512.449 5.038.612 7.581.542 2.543-.07 5.096-.192 7.563-.836 2.915-.761 5.678-1.928 8.179-3.644.304-.209.597-.466.815-.76.695-.928 1.47-1.819 1.557-3.068C.577 2.241.521 1.078 0 0m6.515 5.337c-.626.669-1.194 1.392-1.812 2.068-.59.646-1.15 1.338-1.831 1.872-.881.692-1.87 1.244-2.81 1.861-.906.595-1.902 1.034-2.828 1.584-1.597.95-3.262 1.636-5.098 1.94-.9.149-1.775.455-2.675.596-1.726.271-3.453.568-5.215.48-.207-.01-.425-.016-.621.037-.943.26-1.903.189-2.858.154-2.714-.102-5.375-.6-8.035-1.107-.736-.141-1.487-.23-2.208-.429-3.667-1.012-7.145-2.494-10.482-4.311-.433-.236-.829-.559-1.197-.892a316.736 316.736 0 0 1-3.765-3.469 5.744 5.744 0 0 1-.578-.657c-.773-.979-1.554-1.953-2.303-2.95-.273-.363-.48-.778-.695-1.181-.629-1.178-1.021-2.448-1.455-3.705-.767-2.215-1.324-4.475-1.514-6.809-.131-1.616-.144-3.243-.197-4.865-.031-.957-.038-1.914-.055-2.871-.005-.233-.006-.465-.01-.737-.915-.083-1.739-.013-2.563.101-1.512.21-3.001.093-4.408-.506-.836-.355-1.716-.722-2.181-1.591-.829-1.553-1.555-3.165-1.595-4.952-.039-1.746.036-3.498.141-5.242.06-.995.282-1.98.848-2.843.41-.627.835-1.246 1.222-1.886.334-.55.773-.975 1.327-1.291.434-.246.897-.457 1.293-.755.985-.74 2.054-1.239 3.277-1.443.336-.056.636-.113.971-.012.349.104.713.248 1.177-.01-.037-.51-.102-.965-.099-1.42.017-2.161.046-4.323.086-6.484.034-1.915.093-3.83.13-5.744.02-.958.012-1.917.021-2.875.01-1.082.001-2.165.042-3.246.082-2.124.211-4.244.108-6.373a89.947 89.947 0 0 1-.08-5.373c.027-2.25.132-4.498.18-6.748.033-1.582.031-3.165.038-4.748.006-1.458.001-2.915.005-4.373.003-1.414.086-2.833-.002-4.241-.135-2.168-.117-4.331-.051-6.498.033-1.082.104-2.165.09-3.247-.021-1.583-.107-3.164-.158-4.745-.028-.874.012-1.754-.068-2.623a76.459 76.459 0 0 1-.312-6.733c-.006-1.509-.188-2.991-.62-4.44-.295-.984-.796-1.825-1.649-2.438-.316-.229-.636-.361-1.033-.37-1.967-.048-2.168.004-3.848 1.095-.21.136-.441.244-.637.396-.227.176-.47.358-.63.589-.473.685-.948 1.373-1.35 2.101a17.732 17.732 0 0 1-2.54 3.536c-1.035 1.116-2.282 1.651-3.733 1.784-.614.056-1.245-.012-1.864-.071-1.508-.145-3.088-1.138-3.842-2.445a31.948 31.948 0 0 1-1.193-2.331 54.236 54.236 0 0 1-1.211-2.736c-.392-.961-.907-1.863-1.205-2.874-.28-.952-.727-1.86-1.137-2.77a54.824 54.824 0 0 0-1.299-2.699c-1.001-1.936-.562-3.885-.085-5.838.019-.08.053-.158.091-.231a20.715 20.715 0 0 1 3.895-5.312c1.089-1.073 2.432-1.743 3.809-2.334 1.491-.638 3.01-1.214 4.521-1.803.309-.121.639-.188.962-.267 1.253-.306 2.508-.601 3.76-.911 2.019-.5 4.009-1.084 6.097-1.317 2.006-.223 3.992-.186 5.977.025.827.088 1.65.176 2.483.219.827.043 1.659.158 2.469.334 1.342.29 2.676.623 3.998.994 1.561.437 3.148.816 4.499 1.8.33.241.743.38 1.133.522 1.824.658 3.441 1.72 4.947 2.874 1.707 1.309 3.352 2.738 4.658 4.494.322.434.679.852 1.072 1.221.834.782 1.435 1.724 1.982 2.71.385.691.738 1.406 1.174 2.064.535.809.905 1.684 1.218 2.591.286.826.58 1.649.855 2.48.169.513.325 1.032.463 1.553.333 1.255.387 2.546.52 3.83.141 1.368.212 2.737.267 4.107a56.265 56.265 0 0 1-.073 5.616c-.045.745.013 1.499.056 2.247.057.998.144 1.994.22 2.991.114 1.533.227 3.067.056 4.604-.008.081.019.166.014.249-.143 2.284.277 4.561.031 6.852-.165 1.529-.225 3.072-.269 4.61-.062 2.12-.219 4.245.163 6.357.059.325.043.664.054.997.051 1.414.101 2.828.148 4.241.024.75.063 1.5.056 2.249-.019 1.624-.148 3.252-.078 4.872.121 2.75.071 5.497.013 8.244-.056 2.663-.099 5.328-.284 7.983-.136 1.956-.113 3.907-.138 5.861-.025 2-.028 4-.03 6 0 .323.06.646.094.989.299.079.533.185.771.195.832.037 1.667.064 2.5.052 3.579-.052 7.16-.07 10.739.03.817.022 1.662.219 2.43.507.642.241 1.234.681 1.766 1.131.436.369.776.863 1.113 1.335.313.438.614.897.832 1.386.475 1.065.8 2.177.905 3.351.068.745.248 1.479.316 2.224.042.449.016.92-.07 1.363a13.493 13.493 0 0 1-.514 1.928 8.232 8.232 0 0 1-2.725 3.808c-.85.668-1.691 1.35-2.526 2.039-.523.431-1.092.801-1.752.918-.817.144-1.653.229-2.483.249-1.332.032-2.665-.002-3.997-.023-2.2-.034-4.392.335-6.596.119-.337-.033-.551.184-.555.529-.007.624.04 1.249.021 1.873-.037 1.094.145 2.156.372 3.219.285 1.341 1.143 2.295 2.128 3.146.264.228.669.319 1.026.41 1.25.317 2.478.036 3.702-.193.239-.044.47-.165.69-.278.555-.286 1.112-.572 1.651-.886 1.476-.857 2.951-1.718 4.125-2.996.689-.75 1.596-1.18 2.471-1.668 1.246-.694 2.431-.534 3.535.213 1.674 1.133 3.063 2.562 4.013 4.371.619 1.178 1.267 2.346 1.793 3.566.722 1.675 1.77 3.198 2.259 4.985.315 1.149.463 2.274.077 3.429-.48 1.439-1.175 2.748-2.221 3.866" style="fill:#1e103b;fill-opacity:1;fill-rule:nonzero;stroke:none" transform="translate(516.586 337.66)"/><path d="M0 0c-.021.79-.03 1.583-.002 2.372.029.788.151 1.574.164 2.361C.185 6.107.147 7.481.146 8.855c-.001 3.625.003 7.25 0 10.876 0 .327-.028.654-.047 1.063-.245.054-.372.119-.486.101-1.023-.169-2.058-.277-3.02-.734-.56-.266-1.163-.446-1.758-.631-.634-.195-1.287-.328-1.919-.531-.831-.267-1.645-.586-2.473-.864-2.089-.7-4.174-1.409-6.276-2.071-.66-.208-.958-.616-1.018-1.253-.03-.332-.021-.666-.033-.999-.03-.874-.085-1.748-.089-2.621-.006-1.622-.154-3.24.003-4.869.12-1.236.07-2.49.067-3.737-.002-.705-.177-1.428-.074-2.112.242-1.589.064-3.165-.011-4.742a97.704 97.704 0 0 1-.046-8.244 39.245 39.245 0 0 0-.048-3.987c-.11-1.712-.149-3.412.085-5.113.244-1.759.041-3.483-.359-5.199-.274-1.172-.512-2.353-.757-3.533-.12-.573-.282-1.12-.596-1.629-.685-1.11-1.514-2.004-2.672-2.699-1.479-.89-3.003-1.614-4.645-2.098-.721-.211-1.466-.252-2.211.012-1.059.376-2.15.666-3.198 1.071-1.379.531-2.561 1.348-3.42 2.594a196.076 196.076 0 0 1-2.959 4.167c-.689.943-1.306.955-2.171.169-.684-.621-.974-1.451-1.264-2.268-.779-2.198-1.52-4.408-2.485-6.535-.152-.335-.211-.718-.268-1.086-.257-1.677.651-3.173 2.131-3.67.787-.265 1.538-.638 2.308-.953.308-.125.619-.251.94-.329 1.255-.299 2.51-.601 3.772-.862 2.99-.618 5.993-1.032 9.046-.498.286.05.581.048.872.071.829.067 1.664.092 2.486.212 1.275.187 2.553.381 3.805.681.841.202 1.693.496 2.436.928.583.339 1.189.586 1.795.852.265.117.562.17.817.305 1.991 1.052 3.896 2.244 5.585 3.743.933.828 1.808 1.721 2.719 2.574 1.07 1.002 2.004 2.085 2.51 3.506.292.819.715 1.594 1.096 2.379.551 1.131.888 2.327 1.087 3.562.173 1.067.326 2.138.449 3.211.127 1.109.438 2.214.059 3.339-.075.227-.026.496-.023.746.026 2.081.15 4.16.232 6.238.109 2.786.042 5.579.02 8.369C.128-2.829.037-1.415 0 0" style="fill:#1e103b;fill-opacity:1;fill-rule:nonzero;stroke:none" transform="translate(487.306 247.378)"/><path d="M0 0c.018-.534.053-1.068.08-1.604.551-.355 1.074-.156 1.583-.001 1.233.372 2.463.751 3.685 1.155 2.564.846 5.173 1.568 7.657 2.647.299.13.641.198.968.213.813.04 1.525.372 2.256.675.547.227.727.631.719 1.183-.015.998-.001 1.997-.035 2.994-.014.402.027.838-.334 1.245-.243-.023-.532-.013-.802-.081-2.58-.652-5.126-1.405-7.626-2.329-2.101-.777-4.16-1.695-6.392-2.082-.323-.056-.627-.221-.947-.313-.616-.177-.856-.608-.856-1.214 0-.208.004-.415.008-.623C-.025 1.243-.021.622 0 0" style="fill:#1e103b;fill-opacity:1;fill-rule:nonzero;stroke:none" transform="translate(470.25 267.005)"/><path d="M0 0c-1.76-.576-3.488-1.156-5.226-1.708-1.782-.565-3.524-1.247-5.348-1.694-1.33-.326-2.618-.819-3.919-1.257-.393-.132-.76-.337-1.145-.493-.532-.217-.753-.608-.735-1.175.019-.665-.012-1.332.022-1.996.014-.279.136-.552.247-.97.443.036.779.017 1.09.098 1.046.269 2.101.525 3.12.879 1.689.585 3.357 1.233 5.027 1.872 1.361.521 2.737.973 4.174 1.254.811.158 1.598.452 2.384.718.597.202.947.612 1.017 1.28.093.884-.029 1.747-.2 2.601C.468-.388.205-.229 0 0" style="fill:#1e103b;fill-opacity:1;fill-rule:nonzero;stroke:none" transform="translate(486.62 282.066)"/><path d="M0 0c-2.482-.696-4.968-1.385-7.435-2.135-2.307-.702-4.594-1.475-6.886-2.228-.391-.129-.763-.316-1.099-.456-.311-.801-.137-1.557-.135-2.299.002-.489.238-.638.756-.516 1.661.392 3.32.817 4.894 1.475 2.158.903 4.387 1.569 6.628 2.216 1.158.334 2.315.679 3.485.967.836.206 1.168.719 1.144 1.535-.004.124.014.25.013.374C1.355.052 1.062.298 0 0" style="fill:#1e103b;fill-opacity:1;fill-rule:nonzero;stroke:none" transform="translate(485.924 287.259)"/><path d="M0 0c.202.041.396.125.597.179 1.484.397 2.931.905 4.376 1.431 1.676.611 3.385 1.133 5.085 1.68.474.152.961.335 1.448.359 1.356.071 2.573.616 3.835 1.013.46.146.65.477.731.914.078.42.02.82-.163 1.294-.56.1-.997-.029-1.434-.159-.518-.154-1.031-.332-1.556-.449-1.545-.345-3.041-.836-4.526-1.378-1.441-.527-2.903-.977-4.413-1.286C2.359 3.265.757 2.841-.77 2.117c-.226-.524-.234-1.055-.094-1.589A.726.726 0 0 1 0 0" style="fill:#1e103b;fill-opacity:1;fill-rule:nonzero;stroke:none" transform="translate(471.177 286.174)"/><path d="M0 0c.243.017.485.104.722.178 1.784.559 3.575 1.093 5.344 1.693 1.573.531 3.11 1.147 4.747 1.49 1.664.349 3.296.847 4.94 1.287.114.031.212.123.371.219.015.258.064.544.04.824-.034.399-.281.569-.694.501a8.13 8.13 0 0 1-1.096-.237c-2.297-.722-4.589-1.459-6.885-2.183a66.117 66.117 0 0 0-2.39-.707c-1.32-.361-2.648-.694-3.967-1.058a6.209 6.209 0 0 1-1.164-.44c-.245-.125-.491-.324-.631-.554A.96.96 0 0 1-.738.312C-.637-.021-.284-.019 0 0" style="fill:#1e103b;fill-opacity:1;fill-rule:nonzero;stroke:none" transform="translate(471.012 292.522)"/></g></svg>