<svg xmlns="http://www.w3.org/2000/svg" xml:space="preserve" width="1122.52" height="793.701"><defs><clipPath clipPathUnits="userSpaceOnUse" id="a"><path d="M0 595.276h841.89V0H0Z"/></clipPath></defs><path d="M0 0v-37.104h-177.208v250.307H0zm-183.208-61.369h-177.208v250.306h177.208zm-183.208 47.678h-177.209v250.306h177.209zM-549.625-37.53h-177.208V212.776h177.208zM0 219.203h-177.208v20.838h-6v-45.104h-177.208v68.942h-6v-21.265h-177.209v22.947h-6v-46.785h-177.208v21.265h-6v-304.41h6v20.839h177.208v-21.329h6v45.168h177.209v-68.516h6v20.838h177.208v-20.838h6v45.103H0v-21.265h6V240.041H0Z" style="fill:#1e103b;fill-opacity:1;fill-rule:nonzero;stroke:none" transform="matrix(1.33333 0 0 -1.33333 1005.371 515.087)"/><g clip-path="url(#a)" transform="matrix(1.33333 0 0 -1.33333 0 793.701)"><path d="M0 0c-.001-.021-.006-.042-.008-.063a5.36 5.36 0 0 0-.254-1.178c-.001-.002.002-.003.001-.006-.215-.863-.895-1.691-1.501-2.944-.604-1.253-.596-3.021-.596-3.021v-12.212a.807.807 0 0 0-.807-.807h-19.417a.805.805 0 0 0-.806.805v12.214s.009 1.768-.595 3.021c-.606 1.253-1.288 2.081-1.501 2.944-.001.003.001.004.001.006-.13.384-.215.777-.254 1.178l-.009.063a5.187 5.187 0 0 0-.019.433c0 4.305 2.99 6.582 7.311 7.525 1.69.37 3.579.542 5.581.542h.001c2.002 0 3.89-.172 5.581-.542C-2.97 7.015.02 4.738.02.433.02.287.013.144 0 0m-1.005 13.776c-1.866.409-3.941.624-6.162.663l-.434.01c-.086.001-.17.006-.257.006-.098 0-.192-.005-.289-.005l-4.516.001c-.07.001-.139.004-.21.004-.06 0-.116-.003-.175-.004l-.376-.009c-2.274-.031-4.396-.249-6.302-.666C-27.349 12.111-31.72 7.248-31.72.433c0-.316.013-.628.039-.94l.019-.179.011-.09a11.23 11.23 0 0 1 .433-2.082c.342-1.267.909-2.233 1.369-3.017.167-.285.316-.537.441-.783.032-.148.062-.408.065-.554v-12.212a6.764 6.764 0 0 1 6.763-6.763H1.853a6.76 6.76 0 0 1 6.759 6.761v12.179c.003.176.034.44.066.589.126.246.273.498.44.783.463.788 1.033 1.759 1.373 3.026.211.686.356 1.392.434 2.105.01.08.018.165.025.237.026.311.04.624.04.94 0 6.815-4.372 11.678-11.995 13.343" style="fill:#1e103b;fill-opacity:1;fill-rule:nonzero;stroke:none" transform="translate(809.704 413.753)"/><path d="M0 0c.002.08.002.16.011.239.002.024.029.053.051.063C.103.319.147.288.159.22.181.096.151.063 0 0m-.746 45.51c.039.128.067.162.11.118.012-.013.017-.046.01-.064-.021-.045-.067-.055-.12-.054m-.083-.159c-.06-.023-.096.014-.074.075.02.055.074.073.138.064.008-.064-.008-.118-.064-.139m-.289-.779c0 .049.007.095.05.116.016.008.049.005.062-.007.045-.041.01-.07-.112-.109m-.082.602c-.047-.022-.08 0-.078.054.001.018.035.035.053.052l.052-.057c-.009-.017-.014-.043-.027-.049m13.21 4.442c-.001-.049-.009-.095-.052-.117-.015-.009-.049-.004-.061.008-.043.043-.007.072.113.109m.759-62.428c-.04-.129-.072-.167-.12-.122-.048.048-.008.083.12.122m-32.144-33.511.167-.252c.102-.184-.104-.435.127-.59.054.034.104.073.161.099.105.046.21.025.246-.048.041-.082.061-.177.112-.25.072-.103.172-.184.246-.284.07-.097.121-.207.172-.299.203-.048.397.03.57-.07.238-.44.238-.44.587-.636l.165.313.367-.024.558-.528c.077.009.139.012.197.026.028.007.051.035.076.053.108.078.228.126.336.021.144-.143.456-.089.46-.396 0-.021.04-.046.067-.062a.185.185 0 0 1 .086-.027c.155-.016.312-.025.435-.139.152.011.25.169.416.145a.312.312 0 0 1 .261.072c.056.051.117.078.155.037.114-.122.304-.087.411-.201.178-.188.361-.335.646-.314.072.006.151-.087.23-.136l.344.312c.191.067.295-.07.456-.176h.505c.216-.262.492-.383.779-.485.055.043.066.099.066.168.001.089.019.178.032.282.158-.051.293-.128.43-.13.164-.002.266-.132.398-.147.092.053.171.1.253.149h.62l.258.135c.112-.09.216-.149.35-.148.562.007 1.124.025 1.675-.013.045-.064.099-.11.109-.163.032-.161.141-.185.274-.181.077.056.154.109.245.174h.432l.337.176h.287l.208-.141c.175-.064.262.04.375.113l.26-.15c.46.01.958-.022 1.419.015.141.085.228.186.379.165l.252-.171H.448l.421.365h.484l.326-.193h.631l.304-.189c.21.123.452.24.681.334.103-.049.183-.101.27-.126.116-.032.253.008.315-.071l.141-.279a3.48 3.48 0 0 1 .943-.023l.353.311c.055-.021.118-.028.158-.061.084-.068.173-.066.26-.032.086.034.163.09.236.132h.465l.244-.138c.11.071.201.173.338.154.167-.023.281.097.419.141.165-.096.248-.289.446-.336.205-.048.366-.25.609-.175l.31.184.281-.016c.083-.057.16-.11.246-.171.241 0 .49.005.74-.001.136-.004.231.073.337.137.048.028.117.022.176.032l.235-.137.155.107.226-.103.237.15h.84l.24.147.172-.319h.951l.243.261-.115.178c.107.162.263.081.403.084l.24-.15.715-.028.198-.142.6.529h.495l.235-.164c.217-.011.419-.074.611-.212h.636l.258-.16c.237-.025.484-.053.715.006.139.067.082.242.198.304l.224-.106c.109.104.21.169.352.119l.422-.341h.485l.249.175h.641l.779-.396c.111.117.28.186.443.263.161.075.288.224.403.319h.999c.186-.054.252-.194.401-.168l.328.172h.453l.251.173c.3.053.609.017.877.002.121-.07.205-.159.282-.155.236.016.41-.118.605-.203l.302-.138.169.099c.08-.049.159-.096.218-.134.168-.025.238.132.348.147.155.021.255.156.402.163l.144-.1.578.297c.208-.118.424-.23.652-.319.025-.01.06.003.092.006l.419.342h.675l.246-.158c.219-.003.42-.068.604-.194h.284c.128.078.247.198.417.171.205-.032.306.227.52.172.26-.115.395-.391.666-.548h.443l.094.003c.127.001.218.056.192.119-.024.057-.066.106-.109.174l.243.262.235-.171.285-.017.285-.166h.491c.094.063.173.113.25.164h.294c.071-.046.145-.105.228-.143.085-.04.175-.045.257.029.041.038.099.058.153.089l.363-.318h.532l.246.163c.063.003.126.007.188.008.142.004.226.066.254.213.01.053.069.096.105.143.186.026.371.031.547-.024l.243-.143h.641l.257.161c.095.008.192.001.279.027.108.032.206.093.297.136l.2-.143h.691l.447-.368h.68l.429.351c.19.002.377.053.559-.031l.35-.306.234.159.291.018.235.141.406-.336c.215.015.407-.06.586.071l-.108.228c.023.015.047.042.076.048.34.067.685.009 1.027.02.029.001.058-.017.105-.034.055-.051.135-.107.186-.183.063-.093.101-.203.146-.298l.473.229c-.039.193.119.304.305.465.106-.153.286-.154.463-.183.115-.019.218-.11.345-.178h.819l.255-.158c.112.1.223.21.347.303.042.034.115.027.191.041l.433-.374c.228.026.477-.038.724.048l.446.355c.177-.069.377.049.557-.135.011-.096.022-.217.042-.337.005-.024.042-.044.076-.077.23-.076.478-.036.723-.023.15.185.19.464.49.543h.436l.244.172c.231.061.503-.046.708.155.08-.038.16-.106.241-.107.227-.003.419-.081.6-.213h.273l.245.153.513.048.271.166h.299l.419-.356c.036 0 .072-.011.097.001.166.077.333.151.489.243.038.023.036.109.056.178l-.347.422c.184.186.357.367.537.542.043.042.105.063.156.092l.283.019c.179.134.196.378.372.521.169.137.311.308.455.455.086.274.298.49.258.797.059.066.124.132.184.205.084.099.247.055.317.175.082.243.025.494.06.733l.137.224c-.109.129-.248.234-.301.371a2.769 2.769 0 0 1-.219.425v.671l.344.406c.003.032.015.064.008.091-.054.204-.216.377-.177.61-.166.187-.188.458-.359.635l-.035.373c-.268.2-.355.51-.537.775v.447c-.134.187-.17.409-.305.581-.036.047-.076.116-.067.166.04.215-.131.339-.201.512v.283c-.09.122-.183.244-.217.403-.009.042-.092.085-.147.096-.108.022-.169.087-.181.183-.028.217-.057.437.109.623.039.044-.005.088-.04.151-.101.189-.167.397-.345.537-.046.037-.07.103-.105.157a31.82 31.82 0 0 0-.021.288l-.138.23c.03.078.132.127.081.265a18.32 18.32 0 0 0-.238.201l-.327.018c-.088.15-.178.306-.27.461l.116.166a32.46 32.46 0 0 1-.147.252c-.019.4.01.836-.011 1.229l-.185.279v.292c-.099.11-.223.214-.301.346-.092.157-.151.334-.265.497v.639l-.168.272-.031.705-.183.267c0 .134.002.29-.002.446-.001.027-.025.055-.058.117l-.453.459c-.201.152-.337.109-.369.206-.06.182-.157.331-.289.466-.156.158-.175.393-.306.565.009.122-.041.252.059.357.058.021.117.037.17.065.126.067.156.18.081.304-.032.054-.075.101-.107.144l.115.216-.316.362c.01.245-.089.434-.212.628v.475c-.102.109-.203.228-.316.335a1.348 1.348 0 0 0-.295.461c-.06.134-.195.236-.29.344l.147.238v.502l-.235.253c-.185-.031-.096-.216-.23-.297-.141.094-.277.196-.257.418l.3.37c-.072.157-.132.325-.222.475a.598.598 0 0 0-.099.35c.005.094.001.188.001.254-.074.134-.153.236-.19.35a.554.554 0 0 1-.375.379c-.106.032-.158.088-.177.183-.024.122-.008.249-.089.358-.184.249-.242.563-.422.817-.119.17-.101.356.024.516.116.149.106.28-.014.414-.068.075-.063.168-.075.26-.011.084-.048.164-.076.252-.071-.047-.121-.085-.177-.115-.14-.074-.231-.045-.295.089-.065.138-.128.277-.21.456v.779l-.18.268v.438l-.47.898c-.154.063-.335-.008-.44.148l-.06.335c-.108.186-.29.283-.356.53v.76c-.35.63-.35.63-.378.958l-.164.233-.034.649c-.101.222-.152.37-.233.498-.083.129-.198.241-.297.36v.332c.111.223.385.3.346.57-.095.122-.184.252-.348.304-.152-.005-.299.006-.433.116-.09.075-.209.115-.313.17-.034.45.019.889-.045 1.263l-.227.461c-.08.037-.162.073-.241.114-.012.007-.019.057-.01.064.115.1.281.103.387.234.118.143.267.263.379.37.269.081.452-.042.65-.157h.648c.025.016.058.028.076.051.172.226.496.058.681.26.014.017.1-.028.15-.051.16-.072.318-.147.462-.213l.256.145h1.017l.224.151c.101-.146.286-.128.455-.174.201-.054.384-.178.575-.271l.486-.232.155.105c.102-.028.184-.166.312-.044.099.095.235.07.356.084.161.018.185.136.208.262.005.025.04.046.054.06.037.017.064.039.091.039.282.003.563.002.833.002l.27-.173h.467l.314.19h1.945c.052.054.101.092.132.141.032.051.04.117.072.17a.603.603 0 0 0 .121.141c.047.039.104.066.167.105h.451c.146.086.28.183.319.338.042.167.147.272.272.364a.224.224 0 0 0 .173.029c.085-.026.162-.083.271-.143.022.2.124.35.263.48a.493.493 0 0 1 .116.146c.039.087.042.174-.024.259-.034.042-.042.104-.079.202.059.044.128.115.21.157.164.084.329.171.504.224.167.051.296.161.337.298.071.234.272.417.243.691-.008.075.083.16.132.245-.127.232-.206.505-.441.68-.044.033-.058.105-.099.184v.606c-.119.21-.231.396-.329.587a.225.225 0 0 0 .026.26c.036.043.056.1.07.127-.069.154-.116.304-.198.43-.084.13-.203.237-.301.346-.002.302-.001.302.154.539-.056.067-.104.15-.174.203-.188.139-.172.394-.327.555-.051.053-.029.177-.039.268-.016.152-.014.154-.257.189l-.417-.358h-.46c-.187.077-.325.227-.534.19-.052-.008-.114.038-.168.065-.165.081-.33.165-.501.252-.039-.02-.099-.037-.14-.075-.083-.077-.173-.066-.257-.029-.084.038-.158.099-.226.143l-.358.023c-.049.059-.135.151-.206.253-.066.096-.051.247-.245.295h-.625l-.413-.367c-.18-.042-.277.114-.434.183h-1.186l-.298.177h-.483l-.255-.166h-.287l-.323.185c-.239-.059-.499.093-.723-.087.047-.081.099-.159.138-.243.034-.072-.036-.214-.111-.221a.483.483 0 0 0-.175.028c-.026.008-.057.042-.059.068-.025.209-.168.326-.337.437h-.46l-.307-.175h-.47c-.088.06-.165.114-.241.168-.203-.029-.201-.03-.271-.18-.025-.054-.066-.1-.1-.152-.152-.028-.298-.047-.445.044-.156.097-.325.174-.497.264-.059-.029-.135-.065-.205-.101l-.185.122h-.71c-.151-.173-.177-.42-.398-.513-.106.06-.193.165-.336.141l-.232-.135-.238.152h-.826c-.232.13-.448.249-.674.374-.207 0-.426.005-.645-.005-.037-.002-.071-.068-.107-.104l.098-.166c-.047-.102-.142-.102-.222-.077-.081.024-.151.084-.219.124l-.173-.11-.158.102c-.184-.099-.4-.128-.566-.268-.106-.09-.239-.046-.363-.066-.049-.031-.105-.06-.153-.099-.113-.089-.221-.092-.335-.002-.049.038-.104.069-.16.105h-.692c-.134-.175-.342-.204-.572-.155a23.4 23.4 0 0 1-.233.156c-.181-.009-.37.037-.545-.05-.182-.348-.181-.351-.481-.513-.169-.091-.307-.2-.359-.399-.042-.161-.18-.247-.301-.334l-.364-.045c-.125-.12-.251-.219-.348-.34-.125-.156-.335-.161-.468-.287-.317-.302-.625-.614-.915-.901l-.052-.248c-.071-.067-.155-.163-.256-.233-.072-.049-.168-.063-.262-.096l.15-.26v-1.013l-.179-.319v-.281l.169-.236a.994.994 0 0 0-.127-.768 9.68 9.68 0 0 1 .123-.16l-.164-.231v-.465c.096-.169.2-.313.41-.35.127-.022.21-.13.278-.234.031-.047.03-.114.044-.173l-.181-.321.021-.467c.064-.075.114-.163.188-.214.098-.067.216-.105.333-.159l-.145-.233.02-.184c.125-.129.251-.269.388-.396.163-.154.148-.416.342-.546.169-.115.189-.316.277-.476.1-.184.246-.355.257-.59l-.14-.233c.179-.186.174-.375.011-.552.07-.144.134-.282.205-.419.085-.163.179-.321.263-.485.069-.136.128-.277.199-.432-.023-.077-.155-.147-.042-.287.132-.162.132-.423.384-.511l.168.303c.156-.105.067-.285.13-.418.022-.023.039-.057.065-.066.113-.045.25-.064.263-.219.012-.158.039-.308.14-.438.035-.045 0-.097-.04-.159a.444.444 0 0 1 .003-.522c.062-.091.052-.156-.008-.237a.494.494 0 0 1-.074-.165c-.057-.208.072-.353.177-.505l.012-.282c.068-.136.195-.243.179-.418-.021-.235.194-.378.244-.591.021-.094.167-.057.242-.107.101-.067.194-.147.225-.274-.198-.21-.126-.466-.123-.733.097-.101.207-.212.311-.328.082-.092.202-.184.221-.29.03-.164.177-.256.199-.418 0-.276-.001-.558.002-.84 0-.06.017-.122.024-.162l.361-.678v-.446c.147-.247.341-.381.633-.336l.288-.48c.046-.294-.024-.609.035-.905.17-.169.173-.406.312-.583.092-.118.069-.296-.038-.434-.037-.048-.064-.105-.117-.191.02-.161.2-.281.224-.472.013-.099.14-.098.25-.094.054.096.103.207.176.299.028.036.118.049.168.033.047-.015.105-.079.109-.125.013-.156.005-.313.005-.5-.276-.254-.19-.533.015-.817v-.272c.086-.141.182-.277.337-.315.204-.051.315-.183.416-.371v-.436c.061-.093.142-.166.158-.251.031-.165.12-.28.234-.391.066-.064.119-.14.177-.209v-.664l.171-.272.019-.701c.114-.128.225-.239.319-.363.054-.072.065-.177.123-.243.077-.086.239-.068.291-.246v-.632c-.047-.126-.213-.219-.153-.408.112-.174.329-.279.372-.518.018-.097.124-.118.214-.149.092-.031.142-.106.135-.215a.541.541 0 0 1 .106-.348c.049-.073.063-.168.09-.243l-.195-.274c.014-.281-.022-.592.041-.892.11-.123.191-.259.369-.281.056-.007.106-.058.161-.085.082-.04.171-.067.247-.116.047-.03.076-.089.114-.135l.02-.281.169-.25.022-.688.18-.287v-.44c.092-.146.158-.283.221-.424.074-.164.227-.291.327-.412.008-.129-.019-.245.027-.311.106-.154.155-.337.273-.48.017-.02.056-.027.086-.031.157-.023.185-.137.201-.269.02-.166-.116-.272-.156-.418.077-.099.151-.198.148-.334-.002-.092-.004-.189.069-.263.091-.092.097-.227.158-.327.08-.132.201-.239.3-.351l-.102-.214.122-.226v-.486c-.101-.141-.24-.097-.352-.133-.116-.037-.22-.109-.346-.174-.232 0-.483-.002-.733.002-.059.001-.118.029-.189.047l-.51.492c-.263.051-.452-.053-.66-.171h-.433l-.245-.161c-.151.133-.301.245-.482.049-.072-.077-.164-.071-.258-.056l-.406.352h-.665c-.103-.055-.128-.138-.165-.226-.057-.138-.165-.173-.297-.089-.137.087-.27.145-.434.135-.092-.006-.186.009-.27.015l-.246.164h-.279l-.304-.177h-.288l-.244.168h-.366l-.54-.527h-1.314c-.14.084-.139.081-.396.01a.287.287 0 0 0-.179.006c-.084.038-.157.1-.239.155h-.463l-.235-.156-.214.109-.193-.136c-.162.279-.351.175-.542.022l-.418.342h-.69c-.138-.12-.279-.243-.417-.361-.161 0-.318-.011-.473.004-.095.009-.153.08-.171.188-.008.052-.063.098-.103.159h-.552l-.545-.524a53.5 53.5 0 0 1-.277.176c-.526 0-1.09.003-1.654-.002-.138-.002-.232.075-.33.136l-.589-.292-.231.135c-.088 0-.182-.002-.276.001-.125.004-.25.012-.376.02-.424.239-.424.239-.854-.014h-2.122c-.237.12-.45.227-.643.326-.103-.054-.181-.119-.267-.133-.14-.021-.212-.124-.307-.2-.072-.059-.142-.121-.212-.18h-.294l-.232.15a23.1 23.1 0 0 1-.234-.148h-.279c-.256.116-.376.403-.634.52-.155-.16-.397-.151-.557-.29l-.224.136h-.818c-.151-.069-.264-.166-.375-.163-.209.006-.344-.129-.519-.197h-.468l-.234.156c-.212.026-.422.067-.603.205h-.647l-.239-.158-.233.161-.289.015c-.13.05-.228.21-.408.149l-.427-.349h-1.977l-.264-.171c-.136-.007-.292-.014-.446-.023-.03-.002-.059-.014-.083-.02l-.244-.151h-.272c-.223.122-.437.243-.653.357-.025.013-.062.002-.118.002l-.419-.35h-.347l-.442.353h-.477c-.141.09-.263.183-.33.408.155.175.204.455.384.688v1.005l.169.309v.663l-.174.268v.62l.33.674c-.217.153-.048.443-.236.594-.06.012-.119.023-.178.036l-.277.07.361.447v.477c-.232.28-.255.559-.007.843v.559c-.05.277-.296.202-.355.388v.275c.042.07.108.145.132.231.045.161.106.277.291.314.09.017.138.125.125.223-.024.169.077.289.149.418l-.347.429v.466l-.165.254-.015.296c-.045.066-.101.139-.148.22-.067.116-.03.234.116.288.089.033.198.057.207.153.018.205.188.214.313.285.016.009.03.049.023.063a.146.146 0 0 1-.067.063c-.29.126-.301.158-.166.377l.1.166v.272l.162.231-.158.238v.656c.015.025.027.054.046.077.187.222.194.444.011.674-.035.046-.04.115-.068.168-.087.169-.195.312-.395.364-.152.039-.171.152-.119.305l.5.522-.133.176.12.219c-.102.054-.209.109-.325.168-.053.317.008.625.012.92l.15.242v.291l-.139.248.119.19c-.222.206-.181.478-.136.741l.163.245v.651l-.176.301v1.216l.139.25c-.036.027-.059.049-.087.062-.235.105-.293.175-.189.31.127.166.118.348.145.531l.164.241v.273l-.179.323v1.211c.059.083.113.16.173.242.088.205-.219.297-.154.512l.338.417c-.001.256.077.515-.138.729l.147.244c0 .134.009.29-.003.445-.008.093-.075.155-.173.172v.243l.191.272c-.046.232.052.486-.065.725-.164.082-.339.153-.444.317-.011.018-.005.049-.007.073l.272.318c.091.24.051.409-.088.562-.034.038-.024.113-.035.172l.164.3v.655l-.178.258v.28l.171.29c.054.225-.062.377-.129.542l.125.188.029.895.162.229c.023.141-.058.238-.137.344l.142.235c.023.301.029.611.007.905-.125.132-.239.239-.336.36-.032.041-.019.117-.027.18l.331.41-.119.174c.034.051.081.099.098.155.03.104-.063.155-.12.217a.357.357 0 0 1-.246.117c-.026.002-.051.028-.075.045-.061.042-.06.186-.023.255.11.207.383.196.51.398v.668l-.344.412c-.053.182.101.283.157.423v.28l-.149.237c.101.106.176.246.339.276v.188c-.049.024-.11.042-.137.083a.23.23 0 0 0-.02.174c.029.082.086.154.125.219l-.149.246v1.034l-.325.379c.044.097.11.199.132.309.025.12.008.249.012.374.004.093.013.185.019.262l.17.269v.454c0 .031.004.063-.003.093-.014.058-.018.139-.057.167-.093.066-.149-.045-.233-.082-.063.057-.133.116-.198.179-.075.073-.094.188-.04.254.13.157.122.344.173.52.049.173.189.312.181.517-.003.08.073.166.121.244a.228.228 0 0 1 .005.257c-.031.054-.09.097-.108.153-.062.201-.039.429-.193.607-.027.03 0 .12.022.175.033.084.084.162.128.245-.076.174-.146.342-.223.507-.026.056-.069.105-.107.16.047.077.133.153.136.232.007.193.034.369.163.524.035.042.046.12.037.175-.027.167.105.277.141.416-.198.216-.145.466-.116.707.051.116.181.187.15.377l-.327.394c-.003.061-.034.143-.005.178.125.154.164.323.177.518.007.111.108.216.161.313v.794l-.357.712-.02.457-.137.242c.161.149.153.341.165.537l.351.416c.002.318.043.629-.026.919l-.335.192c0 .168-.01.325.004.48.008.096.078.155.183.177.055.012.101.064.154.1.018.118.02.245.058.359.038.114.16.194.13.362l-.342.414v.648l.18.346v.628l.18.274c0 .101.004.225-.001.349-.002.06-.022.119-.03.157-.064.153-.247.088-.335.264-.031.319.004.691.001 1.018.068.154.195.228.17.373l-.168.3v.468l.17.249c.014.186-.003.38.154.522l-.083.147c-.084.151-.276.124-.405.247.106.061.204.114.297.173.023.014.031.05.051.084v.663l-.358.4.157.233.022.293.162.261.021.879c.149.151.157.28.022.406.074.105.167.196.141.342l-.321.413.121.193-.302.164c.039.115.154.2.128.34-.116.181-.227.365-.165.599l.366.411v.667l-.174.308c-.05.215.049.37.143.533-.084.091-.174.18-.252.277-.038.046-.055.108-.08.158v.269c.11.18.244.299.447.33.065.01.118.174.085.243-.037.078-.087.15-.128.219l.117.167c-.137.245-.415.373-.524.64l.019.277c.036.057.064.114.103.163a.23.23 0 0 1 .03.258c-.04.083-.099.157-.146.228.012.131-.025.253.052.372.1.155.174.327.268.486.07.118.037.241.035.376-.116.08-.236.163-.359.25v.86c.055.096.121.2.177.309.07.136.132.276.198.415-.02.156.022.314-.078.54-.012.01-.08.076-.159.126-.101.063-.21.112-.307.162.004.231-.109.458.094.637.15.023.319-.019.426.136-.014.202.112.422-.074.604l-.082-.052c-.122-.069-.197-.056-.199.036-.003.156-.001.313-.001.498.072.073.162.158.243.251.073.082.254 0 .261.173l-.108.158.113.154a2.273 2.273 0 0 1-.32.633v.293c.048.071.104.145.149.226.065.119-.002.263-.126.285-.119.021-.253-.032-.366.094l.336.421c.01.186-.003.378.16.517l-.149.24v.468l.143.24c-.045.072-.127.147-.134.228-.015.19-.046.359-.16.523-.062.09-.043.236-.057.335.073.1.129.175.205.275-.012.348.023.721-.038 1.104l-.312.342c.003.199-.191.315-.217.545v.147c0 .063.006.126.003.188-.01.252.012.497.173.708a.755.755 0 0 0 .179.516c-.006.21.097.434-.087.624l-.262.023-.023.61-.311.596c.097.19.199.377.287.571a.225.225 0 0 1-.041.258c-.042.045-.073.101-.109.152-.019.184.027.374-.047.56-.097.114-.2.231-.298.352-.018.022-.018.057-.031.099v.626c-.361.602-.361.602-.357.942l.162.232c.061.231-.045.416-.177.6v.28c.034.046.063.105.109.144.141.121.902.543 1.055.532.217-.015.334.155.508.201.101.027.176.074.194.168.018.09.02.192-.005.278-.025.085-.093.157-.141.236.058.027.111.062.169.077.102.025.166.08.18.184.015.107.082.172.181.179.217.014.435.014.597.019.185.094.323.161.456.235a.13.13 0 0 1 .059.165c-.033.083-.089.157-.131.238-.051.097-.035.213.032.248.108.057.228.08.329.16.165.13.344.097.519.001.048-.025.101-.04.153-.061.072.065.147.124.21.192.089.097.206.132.323.174.07.026.103.17.06.246-.03.054-.081.098-.106.154-.024.053-.045.12-.032.173.023.101.113.127.208.144.075.014.106.06.094.114l-.1.161a.865.865 0 0 0 .353.284c.309.131.614.285.836.558.059.071.139.125.203.181l.379.037c.135.142.273.27.391.414.055.067.064.169.107.248.031.057.099.076.165.051.086-.032.167-.077.255-.119.028.034.083.07.092.116.022.103.072.171.171.194a.497.497 0 0 1 .389.362c.047.168.154.269.282.356.073.048.168.064.16.061l.46.39c.09.307.113.334.301.348.062.005.125.007.209.011.145.14.304.291.46.444.156.154.309.31.461.463l.394.039.554.508.233-.124c.191.196.39.395.58.603.035.038.03.113.051.208-.259.187-.198.471-.153.823l.151.146c.242.108.409.048.547.149.122.089.257.158.378.231l.047.534c.143.209.358.325.369.571.109.116.143.273.225.402.083.131.198.241.289.348.086.273-.053.563.124.807l.173-.099c.165.098.139.321.278.441.047.041-.018.212-.083.24-.084.037-.168.072-.262.112v.353l.162.23c0 .176.005.332-.002.489-.006.124-.15.184-.284.122-.028-.013-.049-.04-.076-.055-.109-.061-.181-.039-.182.056-.002.219 0 .438 0 .619-.074.118-.123.198-.172.279l-.045.551c-.179.188-.352.368-.526.553l-.027.557c-.137.174-.279.34-.475.447-.026-.055-.069-.107-.074-.163-.02-.215-.02-.433-.042-.648-.008-.07-.08-.09-.151-.075-.183.04-.321.177-.5.224-.023.007-.049.044-.054.07-.062.304-.315.449-.52.639h-.461c-.197.116-.389.213-.62.159-.076-.052-.155-.104-.246-.164h-.848c-.202-.255-.508-.152-.775-.206l-.249-.16-.448-.025-.249.156c-.022-.008-.049-.014-.072-.028-.081-.044-.146-.12-.252-.108-.258.028-.397-.14-.525-.323-.054-.203.087-.446-.144-.62h-.447l-.503-.272c-.064-.118-.086-.266-.277-.315-.177-.046-.179-.167-.054-.363.017-.026.039-.049.059-.073-.112-.299-.435-.286-.636-.445-.036.024-.061.042-.089.057-.24.135-.289.118-.387-.21l-.629-.622c-.314.037-.5-.114-.653-.33l-.039-.343c-.095-.127-.242-.097-.341-.181-.09-.077-.214-.114-.324-.169l-.164-.302c-.169-.031-.34.027-.448-.133a63.022 63.022 0 0 1-.021-.334c-.137-.076-.153-.275-.287-.477-.244.105-.42-.116-.646-.199-.108-.04-.21-.094-.302-.136l-.202.117-.584-.584.117-.258a.889.889 0 0 0-.361-.277c-.223-.092-.464-.175-.637-.357-.111-.116-.243-.178-.386-.244-.136-.063-.228-.222-.363-.289-.144-.069-.282-.109-.313-.295-.007-.044-.082-.093-.135-.107-.09-.024-.186-.021-.341-.035-.035-.147-.094-.33-.246-.439-.163-.116-.167-.327-.303-.461-.09-.008-.182-.012-.275-.023-.127-.016-.21-.151-.16-.268.033-.078.083-.148.123-.217-.114-.12-.249-.06-.406-.095-.066-.056-.175-.124-.252-.218-.109-.131-.289-.113-.402-.22-.068-.064-.166-.127-.185-.206-.041-.171-.108-.284-.298-.289-.131-.143-.322-.179-.485-.264-.188-.1-.369-.222-.575-.285-.163-.049-.251-.174-.342-.297l-.041-.564-.257-.247-.361-.05c-.146-.088-.111-.239-.193-.338-.093-.113-.154-.253-.21-.349-.275-.085-.532.026-.771-.081-.165-.142-.346-.269-.437-.473l-.02-.337c-.129-.077-.317-.118-.442-.261-.144-.164-.307-.311-.44-.444-.091-.286-.128-.325-.296-.327H.48l-.455-.44.116-.241-.314-.174c-.04-.17.02-.343-.14-.449l-.334-.018c-.077-.143-.282-.147-.434-.253a.668.668 0 0 0-.322-.435.212.212 0 0 0-.258.018c-.044.035-.103.05-.155.074-.187-.157-.469-.179-.6-.419-.021-.219-.02-.218.138-.28.055-.023.109-.053.163-.08-.01-.026-.012-.058-.03-.076-.196-.201-.395-.4-.575-.582-.093-.009-.155-.022-.216-.02-.196.009-.274-.106-.298-.278-.189-.104-.366-.223-.569-.299a.55.55 0 0 1-.357-.399c-.023-.098-.102-.141-.198-.169-.054-.015-.13-.061-.14-.106-.058-.269-.294-.394-.448-.581-.088-.033-.175-.06-.257-.098-.083-.039-.156-.111-.243-.131-.207-.05-.304-.2-.389-.37-.027-.054-.045-.137-.088-.153-.147-.057-.27-.153-.407-.219-.104-.051-.24-.034-.353-.046-.125-.111-.249-.199-.284-.371a.461.461 0 0 0-.302-.334.984.984 0 0 1-.386-.246l-.318-.31c-.144-.042-.279-.054-.302-.212-.023-.155-.125-.198-.264-.196-.062.001-.124-.006-.212-.011l-.449-.432a88.01 88.01 0 0 0-.047-.413c-.07-.03-.162-.049-.231-.1a5 5 0 0 1-.865-.855c-.007-.195-.174-.219-.297-.306-.131-.093-.288-.113-.411-.202-.126-.091-.238-.202-.349-.298-.15-.033-.241.057-.339.134-.171-.085-.329-.199-.294-.408.038-.224-.201-.309-.203-.503-.002-.101-.074-.168-.142-.232-.068-.063-.131-.122-.232-.144a.484.484 0 0 1-.375-.371c-.044-.165-.176-.25-.288-.346-.244-.098-.419.052-.607.149-.559-.238-.559-.238-.765-.466l-.047-.348c-.111-.203-.357-.295-.366-.547-.1-.119-.212-.23-.296-.359-.102-.153-.146-.34-.293-.469-.068-.058-.109-.146-.166-.228v-.613l-.322-.624.324-.412v-.48c-.127-.19-.249-.373-.153-.613.115-.14.235-.282.341-.41 0-.086.008-.15-.002-.211a.413.413 0 0 0-.061-.17c-.13-.175-.169-.395-.29-.574-.015-.022-.003-.062-.003-.116.09-.107.193-.223.289-.345.093-.12.086-.294.223-.398.123-.095.231-.21.332-.305.174-.018.339.014.465-.106.116-.11.295-.088.409-.208.037-.04.109-.047.139-.059.179-.03.337.021.469-.036l.246-.158.432-.022c.287-.136.552-.232.782-.38.234-.151.434-.353.658-.541.241 0 .491-.003.741.002.059.001.118.024.191.04l.45.417c.298.18.538.024.73.187.162.136.42.134.526.356-.004.025-.001.053-.012.076-.024.054-.055.106-.087.166.3.139.621.019.948.085.087.049.194.109.303.168.053.029.149.048.154.083.045.273.308.385.424.602.007.062.017.124.019.185.004.098.027.207.118.231.163.042.272.144.384.253.113.109.231.211.347.316.249.011.341.28.535.344.254.084.396.297.612.417l.366.046c.094.091.182.179.273.266.114.11.29.086.41.203.082.081.21.114.296.158.091.265-.021.523.093.798l.245.23h.489c.094-.051.199-.111.307-.165.025-.012.062.001.094.003.133.083.254.178.312.346v.461c.063.069.116.153.192.203.1.067.22.105.328.161.08.041.157.091.216.127l.215-.001.176-.005c.004-.027.005-.056.018-.077.032-.053.073-.1.11-.15.002-.003.407-.432.413-.436.008-.246.041-.493-.005-.733l-.157-.24v-1.216l-.184-.281c.02-.205-.038-.45.015-.704l.35-.414v-.321l-.348-.424v-.527l.161-.251.013-.284.168-.26c.002-.098.007-.221.008-.345.002-.186.001-.372.001-.537l-.181-.275c0-.201-.006-.42.003-.638.003-.072.058-.105.11-.104l.159.094c.099-.053.108-.167.066-.224-.107-.147-.102-.263.009-.4.03-.037.005-.118.005-.178l-.349-.408v-.488l.157-.237c-.072-.104-.149-.194-.178-.324-.027-.115-.116-.214-.184-.333.013-.271.026-.55.044-.829.001-.025.036-.046.062-.078l.355.303c.157-.094.315-.187.29-.411l-.157-.234-.025-.284a73.922 73.922 0 0 0-.181-.34v-.43l-.143-.224.288-.586c-.186-.209-.151-.463-.141-.71.054-.078.107-.156.167-.24v-1.513c-.29-.161-.143-.349-.001-.554v-.515c-.059-.131-.182-.209-.152-.354.029-.051.054-.108.091-.156.086-.114.085-.22.001-.337-.051-.071-.079-.158-.11-.224l.197-.348v-.627l.136-.25c-.139-.219-.386-.329-.482-.577a.387.387 0 0 0 .128-.329c-.047-.113-.17-.19-.154-.332.117-.214.183-.455.345-.645.016-.02.012-.059.017-.089.047-.277-.045-.561.031-.831l.114-.168c-.032-.141-.16-.249-.162-.405-.142-.127-.092-.238-.017-.391.079-.162.056-.363.009-.534-.067-.14-.249-.068-.34-.257-.024-.119-.004-.306-.024-.474l-.119-.22c.052-.146.249-.041.272-.207l-.103-.16.136-.222c.009-.226.011-.445.03-.662.005-.051.062-.133.102-.139.213-.026.319-.178.427-.327.021-.141-.055-.236-.141-.329-.083-.091-.186-.169-.212-.329l.013-.237.181-.263c-.055-.227.041-.48-.058-.723l-.103-.156.14-.235v-.281l-.171-.326v-1.202l.183-.268c-.03-.073-.055-.16-.099-.236-.048-.082-.097-.16-.082-.258.024-.168-.099-.28-.157-.415.152-.145.157-.333.165-.519l.149-.234v-.352l-.343-.436v-.844l.151-.244-.121-.158c.093-.157.192-.312.145-.532l-.176-.288v-.282l.183-.268v-.72c.096-.041.186-.065.259-.113.064-.043.256-.446.284-.563.006-.026-.011-.058-.024-.114l-.495-.512c.058-.093.106-.174.162-.263v-.44l.147-.256-.106-.16.096-.237-.311-.353v-.516l.287-.498c.042-.011.075-.013.103-.027.144-.072.176-.152.11-.292-.026-.055-.068-.104-.103-.156l.14-.251c-.061-.16-.112-.337-.196-.496-.057-.107-.159-.192-.246-.281-.053-.055-.076-.1-.054-.152l.1-.151c-.033-.076-.139-.122-.095-.23l.299-.35c.003-.103-.014-.19-.108-.239-.08-.042-.161-.08-.234-.116C-.4.237-.4.237-.28.007l.267-.024v-.435l-.365-.43v-.512l.363-.424v-.717l-.356-.43v-.491c.096-.13.182-.273.345-.306.173-.035.259-.16.356-.279l-.341-.676v-.993l-.175-.247c0-.478 0-.478.174-.796v-.275c-.048-.043-.087-.105-.138-.118-.094-.024-.173-.055-.23-.155v-.175c-.004-.141.052-.229.202-.255.053-.01.098-.066.159-.109.013-.301.035-.61-.002-.912l-.17-.243v-.666l.361-.443c.006-.204.011-.421.02-.639.001-.029.018-.058.028-.086l.103-.157c-.043-.111-.129-.223-.121-.328.016-.215-.132-.342-.213-.52v-.261a44.352 44.352 0 0 0-.153-.238l.153-.231v-.284c-.105-.162-.205-.315-.422-.338-.075-.007-.098-.073-.065-.118a.181.181 0 0 1 .073-.052c.055-.025.137-.028.164-.068.082-.127.114-.281.214-.403.034-.041.036-.116.035-.176a.493.493 0 0 1 .129-.341c.068-.079.069-.174.068-.265-.001-.136.076-.234.147-.344L.183-15.2v-1.007l.175-.308v-.484l-.332-.409.146-.25v-1.036l-.168-.248-.027-.517-.135-.209c.096-.055.224-.087.277-.168.062-.096.058-.233.09-.385l.148-.233c.009-.285.022-.596-.013-.887l-.115-.176.106-.256c-.28-.164-.081-.356-.013-.545l-.316-.348v-.568l.325-.177c-.12-.133-.134-.264.026-.407 0-.17.009-.357-.002-.542-.012-.219.078-.409.144-.603l-.305-.346c-.005-.199-.027-.384.025-.548l.146-.251v-.292l-.169-.25v-.7l.346-.442v-.692l-.36-.432v-.469l.189-.33v-1.003l.177-.248c-.043-.195-.043-.195-.33-.539l.145-.241v-.828l-.171-.299v-.869c.065-.045.111-.099.165-.11.106-.02.168-.08.183-.176.013-.092.003-.187.003-.298-.083-.038-.171-.065-.242-.115-.101-.072-.191-.16-.286-.243l.16-.259v-.435l.186-.323v-.285l-.171-.24c-.003-.245-.044-.493.023-.735.054-.032.103-.078.159-.09.109-.023.16-.093.169-.19.009-.091.029-.207-.015-.273-.139-.206-.216-.442-.336-.647v-.454c.08-.186.289-.256.313-.454a58.133 58.133 0 0 0-.295-.346c.226-.209.143-.472.158-.713l-.162-.23-.044-.392-.242-.229c-.155-.008-.275-.002-.304.166-.017.103-.084.159-.188.169-.124.012-.252.022-.355-.068-.057-.05-.104-.069-.154-.043l-.337.307c-.2.015-.394-.006-.54.146-.127-.033-.192-.139-.266-.224l.104-.222c-.043-.027-.068-.059-.095-.059-.282-.004-.563-.002-.841-.002-.141.056-.239.215-.425.152-.116-.095-.231-.202-.359-.291-.079-.056-.173-.052-.26.006-.048.032-.104.052-.151.075l-.24-.136h-1.004l-.278.169c-.154.01-.315 0-.465.035-.116.027-.213.133-.329.16-.232.055-.33.281-.528.375h-.29l-.227-.145-.222.115c-.173-.353-.173-.353-.579-.706l-.28-.014-.316-.179h-1.03l-.258.185c-.072-.027-.168-.043-.237-.094-.139-.103-.289-.099-.443-.087l-.227.15c-.204-.214-.478-.107-.722-.172-.136-.115-.28-.235-.417-.352-.32-.009-.63-.026-.921.019l-.176.13c-.071-.048-.148-.143-.218-.138-.3.021-.519-.171-.775-.264-.084-.032-.158-.091-.25-.145h-.803c-.083-.054-.132-.096-.189-.12-.054-.023-.117-.025-.177-.037-.183.119-.37.222-.645.127a76.278 76.278 0 0 0-.218-.248c-.038-.289-.219-.431-.491-.477-.117-.109-.279-.136-.405-.217-.206-.132-.471-.17-.624-.39a.317.317 0 0 0-.149-.108c-.35-.115-.52-.431-.761-.668-.02-.019-.023-.054-.03-.074l-.02-.289a90.064 90.064 0 0 1-.369-.431v-.663l.191-.336z" style="fill:#1e103b;fill-opacity:1;fill-rule:nonzero;stroke:none" transform="translate(94.107 284.388)"/><path d="m0 0-.052.06C-.07.041-.104.023-.105.005c-.003-.056.03-.078.077-.057.014.007.019.034.028.052" style="fill:#1e103b;fill-opacity:1;fill-rule:nonzero;stroke:none" transform="translate(93.497 293.881)"/><path d="M0 0c-.01 0-.012-.012-.022-.01v-.007a.07.07 0 0 1 .013-.005c.003.011.006.011.009.022" style="fill:#1e103b;fill-opacity:1;fill-rule:nonzero;stroke:none" transform="translate(107.091 284.203)"/><path d="M0 0c-.042.048-.075.008-.112-.116.051-.001.098.008.12.053C.016-.047.012-.013 0 0" style="fill:#1e103b;fill-opacity:1;fill-rule:nonzero;stroke:none" transform="translate(107.204 284.32)"/><path d="M0 0c0 .01-.011.013-.01.023C-.016.022-.018.017-.023.016V.01C-.011.006-.011.003 0 0" style="fill:#1e103b;fill-opacity:1;fill-rule:nonzero;stroke:none" transform="translate(107.092 283.984)"/><path d="M0 0c.048.043.008.075-.115.113.001-.051.009-.097.053-.12C-.046-.015-.013-.012 0 0" style="fill:#1e103b;fill-opacity:1;fill-rule:nonzero;stroke:none" transform="translate(107.207 283.87)"/><path d="M0 0c.428 4.442 1.292 8.802 2.455 13.105 1.367 5.064 3.12 9.987 5.383 14.723 1.163 2.433 2.466 4.788 4.015 7.001.844 1.208 1.76 2.358 2.814 3.391.534.523 1.109.996 1.741 1.395.422.267.863.491 1.346.627 1.061.296 1.962.05 2.691-.784.343-.392.604-.835.819-1.307.473-1.033.736-2.127.912-3.243.258-1.628.341-3.267.332-5.196a54.751 54.751 0 0 0-.414-5.659C21.085 15.982 18.912 8.229 15.759.742c-1.143-2.714-2.449-5.348-3.984-7.865-.807-1.322-1.676-2.601-2.658-3.801-.715-.875-1.482-1.7-2.356-2.419-.518-.427-1.063-.816-1.687-1.07a4.675 4.675 0 0 0-.983-.296c-.832-.138-1.545.121-2.134.725a4.9 4.9 0 0 0-.871 1.271c-.375.758-.616 1.562-.802 2.383a20.128 20.128 0 0 0-.441 3.118C-.319-4.804-.231-2.4 0 0m-35.152-37.855c.911-2.634 2.118-5.12 3.782-7.365 3.992-5.384 9.381-8.149 16.038-8.498 3.216-.168 6.367.274 9.47 1.1 3.263.869 6.371 2.135 9.374 3.67 3.995 2.043 7.717 4.508 11.254 7.26 4.796 3.734 9.155 7.931 13.2 12.459 6.457 7.228 11.983 15.117 16.682 23.588 4.22 7.607 7.7 15.536 10.269 23.855 1.524 4.936 2.702 9.952 3.418 15.072.422 3.013.671 6.038.732 9.891a54.121 54.121 0 0 1-.515 7.535c-.359 2.523-.914 4.998-1.749 7.406-.966 2.78-2.268 5.385-4.068 7.727-2.805 3.651-6.405 6.137-10.857 7.352-3.199.874-6.449.966-9.724.566-2.148-.263-4.248-.751-6.313-1.398-3.517-1.1-6.842-2.633-10.041-4.448-4.554-2.586-8.748-5.68-12.695-9.109-4.7-4.085-8.968-8.588-12.898-13.416a133.168 133.168 0 0 1-17.982-29.006c-3.632-7.974-6.443-16.219-8.132-24.83-.715-3.643-1.208-7.315-1.402-11.022-.191-3.672-.107-7.336.413-10.983.359-2.522.911-4.997 1.744-7.406" style="fill:#1e103b;fill-opacity:1;fill-rule:nonzero;stroke:none" transform="translate(288.175 310.304)"/><path d="M0 0c1.465-.069 2.598-.971 3.865-1.529.274-.12.52-.368.705-.613.85-1.121 1.568-2.327 1.897-3.704.493-2.059 1.118-4.091 1.335-6.209.147-1.435.412-2.871.404-4.305-.039-7.166-.163-14.332-.233-21.497-.056-5.727-.061-11.455-.12-17.182-.038-3.562-.162-7.123-.202-10.685-.079-7.123-.121-14.247-.191-21.37-.048-4.87-.12-9.74-.177-14.61-.044-3.742-.071-7.484-.125-11.226-.074-5.138-.193-10.277-.244-15.416-.048-4.916-.018-9.832-.06-14.748-.005-.722.361-1.422.134-2.131-.231-.728-.568-1.421-.822-2.143-.237-.675-.401-1.367-1.055-1.812-.209-.142-.347-.414-.471-.65-.841-1.608-2.094-2.639-3.898-3.065-1.277-.3-1.462-.679-1.442-2.048.003-.226-.019-.453.004-.676.03-.302.215-.517.515-.534.494-.03.992-.022 1.487-.007.631.018 1.264.115 1.891.079a57.482 57.482 0 0 1 4.86-.062c2.203.058 4.409-.043 6.617-.026 2.207.018 4.418-.042 6.628.016.856.022 1.714.066 2.569.04 3.335-.105 6.669-.241 10.003-.35 1.168-.039 2.328.047 3.494.323 0 .889.013 1.694-.007 2.497-.007.296-.21.49-.491.579a6.336 6.336 0 0 1-.653.173c-1.007.207-1.857.731-2.568 1.43-.704.693-1.312 1.484-1.957 2.238-.73.857-1.013 1.968-1.63 2.897-.235.353-.202.874-.364 1.29-.505 1.296-.55 2.636-.458 3.996.184 2.705.082 5.408-.044 8.111-.04.851-.185 1.698-.21 2.548-.026.901.035 1.804.055 2.705.097 4.144.234 8.287.278 12.432.054 5.097.039 10.193.036 15.29-.001 4.148-.032 8.297-.043 12.444-.002 1.169.021 2.337.032 3.494.739.403 1.398.787 2.081 1.126 1.492.741 2.954 1.548 4.635 1.827 2.089.347 4.166.366 6.097-.582 2.525-1.237 5.181-2.073 7.879-2.794.689-.185 1.437-.327 2.136-.26 2.165.205 4.266.703 6.217 1.721 1.886.985 3.582 2.258 5.307 3.487.621.442 1.237.908 1.79 1.429 2.106 1.983 4.064 4.1 5.731 6.472.103.147.2.306.331.427 1.122 1.048 1.729 2.404 2.291 3.788.151.375.267.767.45 1.125.389.764.311 1.582.296 2.386-.004.184-.183.417-.348.532-.207.145-.413-.011-.588-.172-.595-.549-1.169-1.125-1.803-1.624-1.51-1.188-3.256-1.882-5.084-2.447-1.517-.468-3.03-.339-4.556-.273-.173.008-.348.091-.511.163-2.015.896-4.059 1.735-6.034 2.715-1.562.776-3.25 1.051-4.9 1.474-2.047.525-4.121.317-6.177-.015a5.07 5.07 0 0 1-1.403-.462c-1.299-.636-2.54-1.367-3.594-2.381-.226-.218-.482-.406-.733-.594-2.628-1.961-4.823-4.307-6.561-7.103-.805-1.294-1.809-2.464-2.727-3.687-.013-.019-.079.002-.121.004-.025.027-.074.054-.074.082-.003 20.113-.002 40.226 0 60.339 0 .315.017.63.032.946.005.088.031.177.058.261.014.04.054.071.153.196.316.016.71.056 1.105.054 4.372-.026 8.745-.072 13.118-.083 3.11-.008 6.221.029 9.33.045 3.743.019 7.487.004 11.229.07a13.325 13.325 0 0 0 4.255-.621c1.009-.316 1.854-.89 2.49-1.763.794-1.091 1.312-2.23 1.019-3.635-.107-.515.206-.85.736-.949.31-.059.626-.09.941-.104.509-.024.764.119.879.644.148.678.475 1.259.802 1.852.543.987 1.142 1.951 1.589 2.98.684 1.574 1.512 3.07 2.298 4.589.269.518.495 1.06.718 1.599.361.873.677 1.765 1.063 2.626.441.984 1 1.919 1.395 2.92.648 1.637 1.38 3.23 2.122 4.824.358.766.556 1.618.738 2.45.222 1.009-.231 1.548-1.238 1.597-.181.008-.361.005-.541.007-3.02.043-6.041.108-9.061.125-5.497.031-10.995.041-16.492.047-5.096.006-10.193-.003-15.29-.01-4.51-.005-9.021-.022-13.532-.026-3.516-.004-7.034.014-10.551.005-3.202-.009-6.405-.032-9.607-.067-2.796-.031-5.591-.086-8.387-.133a12.99 12.99 0 0 1-.946-.044c-.366-.031-.585-.258-.611-.61C-.87 1.726-1.008.96-.65.217-.424.138-.215.01 0 0" style="fill:#1e103b;fill-opacity:1;fill-rule:nonzero;stroke:none" transform="translate(623.12 373.564)"/><path d="M0 0c-.028-.18-.03-.367-.042-.551-.029.001-.064-.006-.082.012C-.313-.337-.5-.13-.7.089l-.359.066-.435.416-.494.048c-.173.104-.325.227-.368.482-.03.176-.188.177-.283.261-.06.135-.122.265-.178.399-.056.134-.107.272-.162.406-.056.135-.117.267-.181.413-.3.235-.68.35-.927.716-.084.123-.256.054-.329.2-.048.096-.068.213-.122.304-.055.091-.129.218-.205.229-.281.042-.4.369-.631.485-.064.006-.129.021-.191.014-.07-.007-.128.008-.166.082-.026.049.006.103.08.14.114.058.23.111.456.219l.821.042.238.189c.038 0 .075.013.101-.002.223-.129.446-.262.72-.426h1.014l.312.209h.276a.664.664 0 0 0 .322-.402l.02-.349.15-.307.048-.645c.159-.259.359-.462.426-.769.125-.145.135-.333.147-.526.014-.192.171-.307.195-.51.021-.181.183-.308.178-.516-.001-.075.018-.15.028-.232L.118.277C.078.187.016.099 0 0m.094-.72C.051-.78.021-.743-.025-.57.031-.564.077-.584.1-.642A.11.11 0 0 0 .094-.72m-25.767 6.188c-.337 0-.592-.23-.857-.426-.107-.079-.197-.19-.275-.267l-.316-.036c-.21-.159-.348-.459-.632-.476-.119-.128-.236-.256-.35-.377-.219-.068-.441-.097-.617-.278-.211-.018-.328-.212-.467-.365-.129-.143-.39-.114-.387-.431l-.474-.567c-.255-.016-.343-.339-.54-.436-.183-.091-.315-.24-.465-.378a1.484 1.484 0 0 0-.489-.322c-.187-.064-.336-.206-.509-.294-.17-.086-.313-.251-.507-.413l-.323-.058a20.912 20.912 0 0 0-.232-.202c-.243.032-.242.035-.256.228-.005.076-.003.153-.008.23-.003.037-.015.072-.024.12l-.318.425c-.082.291-.016.603-.063.942-.086.118-.177.284-.301.397-.188.174-.236.445-.365.657-.103.168-.081.362-.106.55-.092.153-.178.327-.348.362-.182.037-.255.211-.356.358l-.071.45-.301.438c.02.169.113.311.225.324.392.042.69.346 1.075.509.112.048.283.008.42.008l.28.218.858.035.29.187.692.046.271.203h3.341l.333-.226h1.002c.434-.294.86-.528 1.277-.779.009-.076.039-.157.02-.219-.016-.059-.083-.137-.127-.137m-7.638-43.491c.18.003.337.012.495.008.189-.005.367.028.488.215l.244-.259c.025-.079-.004-.129-.056-.198-.109-.148-.283-.175-.395-.296-.112-.12-.135-.333-.257-.468-.187-.207-.36-.433-.539-.652-.201-.246-.401-.495-.606-.736-.037-.043-.097-.058-.146-.085-.02.035-.054.066-.054.098-.004.422-.003.843-.003 1.248.04.083.065.156.104.212.225.325.498.591.725.913m-6.596 20.332c-.064-.142-.122-.276-.181-.409v-.545l.163-.307c.039-.228-.134-.344-.173-.58v-.494l-.368-.852v-.779l.16-.285c.049-.224-.103-.352-.165-.557v-.972c-.133-.294-.265-.553-.369-.828-.036-.095-.016-.231.003-.341a.235.235 0 0 1 .203-.2c.029-.004.058-.027.081-.049.026-.023.045-.055.083-.105-.015-.13.005-.309-.058-.419-.113-.191-.143-.42-.247-.612-.141-.257-.091-.506.065-.735.019-.027.023-.067.044-.134-.055-.147-.14-.309-.175-.486a1.29 1.29 0 0 1 .016-.572l.312-.429c.074-.301.015-.608.028-.912l-.149-.3-.047-.638c-.109-.174-.251-.118-.366-.164-.117-.045-.224-.133-.364-.222h-1.005c-.096-.069-.173-.142-.26-.182-.174-.079-.376-.029-.533-.2-.145-.157-.37-.019-.533-.193-.139-.147-.344-.174-.498-.317-.064-.058-.184-.026-.271-.035-.279.148-.428.466-.675.671l-.37.076-.391.382-.532.054c-.147.143-.292.295-.446.428-.075.064-.179.079-.256.141-.112.094-.241.077-.359.118-.119.04-.227.128-.368.213-.152.018-.358-.011-.523.074a2.89 2.89 0 0 1-.534.204c-.143.044-.277.166-.422.243-.144.077-.269.188-.439.176-.058-.004-.121.032-.175.066-.194.124-.386.255-.578.383l-.509.031c-.075.084-.173.181-.258.291a.26.26 0 0 0 .009.309c.092.104.181.246.291.281.185.06.309.28.52.255.172-.02.283.21.427.211.241.001.411.185.621.25.2.061.293.286.457.399.027.018.055.034.083.051l.309.033c.266.3.546.614.794.965.116.166.147.421.374.469.038.008.07.118.09.187.043.154.138.256.235.353.12.121.292.13.402.289.101.147.23.265.343.4.136.163.278.297.469.372.109.043.188.199.282.301.282.303.485.719.873.863.141.156.285.309.419.471.16.191.403.215.55.437.119.178.266.335.419.471.228.201.478.363.674.62.193.255.407.486.611.729.204.243.403.494.611.732.141.16.215.364.309.562.092.191.261.33.397.491.27.037.38.373.62.49l.25-.341zm-1.398-47.987c-.046-.057-.076-.014-.118.158.061.008.108-.014.129-.078.008-.022.003-.063-.011-.08m-.278.257c-.024.235-.197.384-.235.612-.04.241-.273.333-.33.545-.128.47-.453.722-.723 1.037-.372.098-.556.484-.806.768-.115.13-.207.276-.253.473-.042.176-.194.299-.205.504-.147.2-.292.404-.445.598-.196.25-.401.491-.6.738-.016.022-.018.06-.027.091.171.142.368.071.553.101.305.181.305.181.94.229.404.272.888.437 1.23.883.255-.303.255-.303.609-1.285l-.114-.225v-.585l.175-.349c.007-.306.037-.617-.157-.875l.326-.456v-.446l-.127-.269.104-.205c.091-.366.008-.752.049-1.129l.184-.313v-.528c-.029.004-.06.003-.086.017-.025.013-.059.043-.062.069M-49 8.965c-.023.003-.044.044-.065.068.023.023.048.065.07.063.022-.002.043-.048.063-.074-.023-.021-.047-.059-.068-.057m65.61.859c-.174-.076-.336-.202-.504-.303-.139-.086-.298-.141-.418-.257-.163-.16-.379-.05-.538-.198-.049-.046-.109-.079-.159-.115l-.568-.085c-.152-.172-.346-.174-.535-.193-.2-.194-.459-.252-.669-.428l-.452-.038a60.396 60.396 0 0 0-.61-.375.447.447 0 0 0-.455.01c-.449.271-.896.545-1.359.826l-.462.038c-.138.083-.255.232-.429.216-.173-.015-.297.118-.435.211l-.475.038-.7.433H6.648c-.106-.066-.191-.12-.275-.171-.099.082-.095.21-.041.297.095.153.204.303.332.413.204.177.446.294.607.54.163.25.439.3.619.519.112.138.248.224.398.3.108.056.2.193.271.318.087.154.153.328.209.503.017.055-.027.14-.058.28-.22-.082-.333.279-.58.217l-.247-.176c-.163-.016-.322-.03-.482-.044-.249-.162-.497-.33-.766-.428-.12-.044-.252-.035-.356-.138-.133-.133-.307-.073-.453-.137-.088-.039-.163-.119-.248-.184-.315 0-.635-.003-.954.002a.375.375 0 0 0-.176.058c-.058.034-.08.111-.059.196.072.301.368.429.401.76l.261.338c.131.169.259.342.394.505.136.163.245.333.323.554.071.204.223.365.312.503l.049.403c.059.089.115.183.18.267.087.114.194.207.265.332.089.155.163.326.217.502.079.258.199.472.373.647.072.073.142.153.212.23h2.575l.319.195.668.05.282.196.478.039c.111.069.221.144.334.209.17.098.372.148.507.291.186.198.423.129.618.262.655.449 1.363.775 2.01 1.242.325.112.533.387.703.733v.562c-.057.053-.102.129-.155.137a.494.494 0 0 1-.367-.064c-.413-.263-.81-.579-1.292-.657-.087-.014-.164-.112-.251-.176-.156-.011-.315-.024-.474-.037-.082-.058-.159-.151-.246-.169a1.989 1.989 0 0 1-.624-.241c-.134-.078-.306-.037-.448-.154-.156-.126-.351-.169-.499-.318l-.487-.028c-.217-.281-.523-.204-.793-.255l-.247-.189c-.232.018-.424-.124-.646-.229-.267.01-.553.019-.838.033-.026.002-.052.043-.077.066l-.017.232.756.953c-.109.355.226.245.338.41.178.221.359.438.545.649.185.211.376.417.563.625.314.06.434.441.684.599.226.143.415.349.628.505.212.155.456.249.652.418l.175.497c-.146.232-.288.439-.502.53h-.697c-.182-.304-.543-.131-.757-.394l-.556-.091-.252-.179c-.282.086-.463-.229-.715-.262-.229-.206-.5-.313-.75-.471-.222-.14-.374-.398-.626-.508-.2-.088-.3-.401-.547-.431-.166-.18-.333-.36-.498-.541-.095-.103-.187-.21-.274-.308-.272 0-.261-.303-.358-.485a15.847 15.847 0 0 0-.753-.89c-.149-.163-.17-.404-.277-.595-.064-.116-.055-.291-.085-.483l-.531-.718-.023-.414-.541-.741-.058-.481c-.243-.261-.384-.606-.519-.947-.056-.139-.1-.278-.192-.386-.115-.136-.18-.3-.244-.479-.059-.169-.237-.276-.297-.445-.198-.556-.605-.873-.942-1.272-.25-.02-.349-.321-.604-.461-.23-.004-.516-.009-.801-.012-.031 0-.061.016-.091.025l-.247.176c-.237-.031-.421.131-.623.242l-.466.036-.278.205H-2.94l-.352-.24h-.82l-.295-.22h-1.397l-.324-.245h-1.055l-.263-.198c-.187-.039-.383.024-.571-.086l-.371-.374a189.97 189.97 0 0 0-.719-.046l-.457-.422-.694-.036-.442-.426-.304-.031-.268-.188c-.485-.038-.992-.08-1.448-.015l-.701.44c-.687.023-1.357-.038-2.006.027l-.282.215h-.626l-.357.215-2.179.038-.295.208h-.813c-.083.051-.144.079-.195.122-.116.097-.227.118-.347.012-.05-.046-.109-.079-.171-.123h-.505c-.271.277-.553.571-.716 1.009-.049.13-.175.218-.266.326-.254.025-.375.271-.517.469-.102.14-.175.31-.26.467-.205.041-.317.243-.468.38-.098.089-.231.122-.329.211-.127.115-.23.266-.351.392-.071.073-.15.167-.235.186-.242.053-.349.325-.553.453l-.665.05c-.183.133-.388.234-.584.354a2.806 2.806 0 0 0-.626.489c-.148.084-.335.002-.454.15-.153.191-.377.064-.535.195a.918.918 0 0 1-.439.191c-.118.023-.226.126-.379.22h-.792c-.081.048-.14.077-.194.116-.178.127-.355.128-.538.009-.048-.032-.131-.078-.16-.053a.706.706 0 0 1-.45.157c-.44.289-.927.488-1.329.847-.284.254-.605.401-.956.647l-.555.682c-.013.211-.018.403-.041.591-.008.067-.047.152-.093.184-.047.031-.12.007-.209.007l-.23-.29c-.037-.26-.043-.486-.01-.622l.26-.65.72-.846c.53-.307.87-.881 1.287-1.347.164-.183.324-.372.449-.516.523-.308 1.003-.588 1.479-.875.084-.051.156-.131.259-.127.132.006.244-.056.355-.142.098-.078.212-.127.322-.191-.05-.078-.084-.143-.127-.198-.16-.199-.4-.218-.603-.395h-1.191l-.273-.208-.549-.049a76.75 76.75 0 0 0-.439-.414l-.444-.037a338.19 338.19 0 0 1-.748-.434h-1.77c-.154.07-.236.212-.377.207a.458.458 0 0 0-.358.128c-.105.106-.236.089-.357.125-.12.035-.232.117-.41.211h-.571l-.4.241h-1.175c-.06.041-.086.062-.115.079-.052.03-.106.057-.158.085-.134-.118-.27-.203-.43-.057-.05.046-.11.076-.19.128h-1.007l-.287.212-3.383.031-.308.211h-1.973l-.266-.193-.887-.051-.287-.186-.867-.031-.282-.221-1.082-.033-.284-.204h-1.788l-.332-.233c-1.071-.028-2.124.033-3.141-.014l-.283-.196a133.85 133.85 0 0 0-.671-.043c-.209-.271-.551-.146-.782-.37-.022-.022-.104.039-.155.069-.173.1-.246.102-.341-.015-.066-.082-.124-.175-.181-.258-.034-.294.151-.404.31-.56h1.422c.477 0 .954.042 1.432-.046.367-.385.677-.826.996-1.223l.087-.288c.264-.122.555-.268.806-.5.163-.029.281-.189.425-.239.181-.062.361-.087.54-.189.162-.093.37-.068.523-.09.15-.058.232-.21.391-.171l.233.148.274-.19c.391 0 .806.001 1.221-.004.024 0 .058-.039.072-.069.019-.045-.018-.112-.095-.12-.159-.015-.319-.004-.454-.004l-.265-.214-1.057-.056c-.299-.173-.522-.314-.752-.432-.083-.042-.186-.028-.272-.039l-.42-.489c-.122-.412-.435-.652-.637-1.043-.004-.191-.049-.417.025-.686.068-.078.157-.185.238-.279h.373l.456.426c.226-.016.389.102.546.224l.569.073c.211.23.485.137.722.203l.248.182 1.054.045c.172.093.325.224.532.23.114.003.226.119.359.195l.455.025c.537.39 1.159.6 1.613 1.125.081.01.145.027.207.025.141-.004.233.111.341.186.141.096.315.008.454.132.199.174.406.18.621.02a.5.5 0 0 1 .266-.095.5.5 0 0 0 .348-.154c.123-.124.233-.058.342.032a3 3 0 0 0 .076.057l.651-.389.513-.036.247-.303.066-.473c.12-.192.27-.358.339-.563.076-.229.236-.358.336-.549.066-.125.11-.268.16-.406.036-.103.087-.208.094-.316.011-.16.064-.287.126-.424.104-.231.175-.484.278-.716.119-.266.362-.438.403-.766.105-.145.206-.289.374-.339.054-.017.096-.089.144-.136.005-.077.013-.153.015-.23.003-.115.001-.231.001-.301.06-.225.212-.359.191-.564-.027-.261.179-.396.204-.631.022-.201.172-.314.281-.45.222-.277.449-.547.653-.795.025-.271.035-.503.187-.713.008-.242.024-.51.024-.778-.001-.345-.016-.69-.024-1.002a20.217 20.217 0 0 1-.117-.24c.018-.175.155-.31.132-.512a1.05 1.05 0 0 1 .014-.345c.029-.134.085-.26.124-.371-.048-.095-.082-.161-.127-.253v-1.065c.116-.135.185-.337.197-.578.006-.138.083-.271.131-.414-.151-.194-.325-.372-.449-.593-.12-.216-.157-.503-.286-.709-.171-.273-.194-.656-.451-.858-.133-.298-.265-.596-.386-.862-.208-.1-.303.121-.464.168h-1.608c-.13.136-.233.31-.373.38-.273.137-.464.386-.68.608-.457.467-.779 1.123-1.361 1.413-.204.245-.405.492-.61.734-.205.243-.414.481-.621.721-.422.218-.704.64-1.022 1.011-.046.054-.086.131-.141.153-.385.155-.587.573-.872.873-.239.252-.458.533-.657.768-.332.134-.529-.007-.666-.315.034-.064.079-.124.102-.194.152-.466.353-.891.66-1.238.116-.131.26-.263.313-.43.098-.305.288-.499.462-.72.152-.192.327-.363.387-.643.012-.052.097-.092.153-.116a.617.617 0 0 0 .345-.377c.061-.187.144-.335.258-.471.113-.135.213-.291.338-.408.162-.151.183-.397.303-.572.078-.116.157-.242.296-.272.156-.033.164-.209.229-.379l.986-1.207c.133-.163.282-.309.321-.558.007-.056.079-.126.13-.141.272-.082.43-.332.57-.582.088-.158.146-.297.311-.386.165-.089.28-.309.431-.449.148-.138.317-.243.473-.371.05-.042.087-.112.162-.214-.191-.109-.116-.419-.282-.547-.238-.184-.266-.51-.4-.763-.1-.191-.163-.405-.314-.561-.12-.123-.214-.281-.303-.4-.018-.189-.031-.339-.044-.465-.132-.201-.264-.369-.362-.561-.117-.224-.175-.496-.309-.699a3.268 3.268 0 0 1-.352-.674c-.294-.312-.383-.772-.596-1.2l-3.339-4.032c-.188-.125-.306-.156-.343-.239-.076-.173-.127-.349-.326-.341-.173.008-.292-.135-.457-.239h-1.002a42.108 42.108 0 0 0-.292-.203l-.731-.054-.445-.426-.323-.031c-.325-.323-.673-.656-1.146-.683l-.23-.205c-.094.004-.209.007-.238.129a.837.837 0 0 1-.273.457c-.074.065-.188.077-.246.154-.082.108-.112.271-.192.383-.228.317-.444.649-.793.801-.112.05-.215.177-.29.296-.169.271-.529.294-.6.683-.34.151-.559.496-.82.758-.106.013-.205.007-.294.043-.117.048-.221.157-.34.189-.153.041-.315.031-.454.041l-.256.196-.39.057c-.116.136-.243.257-.339.407-.125.195-.328.225-.471.368-.196.197-.376.417-.563.628-.184.209-.466.255-.614.525-.168.305-.497.335-.689.594-.112.149-.274.184-.405.287-.21.167-.464.247-.636.491a.294.294 0 0 1-.257.123c-.135-.004-.239.08-.353.151-.239.15-.408.113-.601-.107-.046-.052-.077-.121-.115-.181-.05-.295.018-.551.236-.69.198-.126.371-.28.548-.441.175-.158.394-.238.543-.449.145-.207.33-.352.54-.452.25-.297.502-.591.747-.894.041-.05.059-.133.077-.205.044-.178.187-.181.242-.216l.937-1.09c.16-.187.326-.368.476-.568.155-.204.414-.194.556-.423a.637.637 0 0 1 .229-.2c.297-.17.524-.407.642-.797.039-.131.169-.223.258-.333.287-.055.428-.277.51-.598.035-.139.141-.243.177-.4a.642.642 0 0 1 .316-.408c.084-.05.194-.068.22-.185.062-.28.234-.461.394-.64.261-.29.428-.649.59-1.017v-.374c-.085-.092-.165-.241-.275-.288-.391-.167-.608-.519-.77-.947-.078-.207-.166-.408-.255-.622a.976.976 0 0 0 .138-.514c-.003-.148-.025-.309.101-.514l.221-.231h.305l.316.209.627.033.658.403c.093-.135.248-.219.28-.434.025-.161.13-.262.23-.355.123-.114.305-.107.399-.287.109-.208.341-.211.465-.366.322-.398.779-.497 1.136-.808.157-.011.31-.018.454-.131.153-.12.328-.199.493-.296l.194.153c.108-.231.313-.187.498-.226.084-.018.16-.169.125-.264-.022-.06-.076-.139-.119-.144-.223-.026-.447-.031-.662-.043l-.341-.229h-1.577l-.711-.433-.434.193a16.54 16.54 0 0 0-.264-.158l-.167.124-.252-.162h-.488c-.148.095-.301.225-.506.235-.116.005-.229.112-.397.202h-1.385l-.261-.182a3.428 3.428 0 0 0-1.112-.001l-.248.185-.288.026-.321.211h-.657c-.178-.156-.143-.353-.133-.574l.775-.974c-.276-.018-.396-.249-.573-.375-.215-.153-.423-.331-.668-.416-.18-.222-.454-.254-.644-.473-.204-.238-.507-.297-.737-.49-.156-.128-.282-.312-.407-.484-.09-.124-.037-.302.093-.37.115-.061.232-.119.351-.18.202.229.473.145.672.185.155.088.264.173.384.213.154.051.255.257.426.228.217-.036.343.184.527.241.118.039.217.165.336.202.151.047.305.038.448.159.152.128.335.204.545.326h.612c.097.074.173.147.26.192.053.028.146.042.179.007.224-.243.563-.135.78-.387l.559-.078.256-.191h.448c.161-.081.289-.3.444-.186.161.119.274.118.408-.02.021-.021.062-.025.091-.02.211.044.354-.134.538-.239h.822l.286-.215.716-.029.268-.194.477-.034c.139-.086.255-.236.429-.225.172.011.294-.126.44-.21l.486-.032.442-.424.479-.04c.219-.137.465-.223.668-.414.021-.021.06-.015.092-.022.221-.011.443-.021.66.043.158.158.334.217.537.159l.284-.207c.436-.002.915-.006 1.392-.004.094 0 .187.026.258.037l.181.137.864-.473.315-.401c.11-.139.095-.359.228-.492.122-.123.221-.278.336-.411.139-.16.292-.305.307-.562l.436-.56.213-.081c.031-.066.075-.126.09-.196.024-.125.076-.212.179-.235.104-.023.183-.087.2-.205a.807.807 0 0 0-.017-.336c-.03-.105-.102-.193-.156-.286l-.034-.43-.361-.545v-.878c-.269-.191-.358-.58-.543-.886-.023-.295-.229-.449-.355-.67.023-.06.037-.128.07-.181.043-.067.078-.138.049-.212-.093-.236-.146-.499-.293-.699-.147-.201-.307-.39-.457-.577v-1.273l-.366-.864-.023-1.219a3.665 3.665 0 0 0-.569-1.045v-.569l-.194-.438v-.79l-.365-.536a15.916 15.916 0 0 1-.021-.239c-.003-.039.005-.083-.009-.114-.087-.2-.178-.398-.264-.589l-.2-.084-.731-.841-.455-.215-.448 1.138c-.07.176-.168.32-.315.409-.239.027-.321-.203-.434-.382 0-.116-.036-.258.007-.341.142-.273.171-.568.187-.874.004-.071.042-.14.069-.207.083-.203.182-.401.249-.612.043-.135.041-.293.057-.416a63.062 63.062 0 0 1-.185-.312c-.039-.181.007-.388-.105-.548-.112-.161-.097-.357-.109-.545l-.18-.318v-.699c-.147-.496-.398-.861-.411-1.345l-.912-1.138c-.035-.261-.058-.487.022-.75l.261-.288c.259 0 .513-.003.767.002.061.001.123.027.184.042.152.167.346.175.539.203.463.412.825.956 1.24 1.435.144.165.196.388.304.572.108.186.256.339.384.503.272-.215.325-.579.495-.885v-.665c.141-.501.421-.808.4-1.276.054-.081.104-.185.176-.255.097-.092.239-.132.311-.242.093-.146.144-.332.235-.489.088-.154.137-.34.221-.559v-.736l.16-.332.056-.65.345-.526.031-.59c.199-.501.421-.958.588-1.451.083-.244.246-.452.312-.7.064-.25.065-.524.226-.731.014-.189.003-.376.105-.549.09-.153.147-.334.215-.506.026-.067.041-.141.069-.245v-.894l.356-.555c-.236-.237-.148-.57-.189-.867-.049-.098-.098-.197-.16-.318l.015-.397.355-.538c.009-.192.027-.347-.073-.472-.299.209-.606.393-.954.452-.026.023-.054.041-.077.068-.207.24-.392.519-.626.711-.257.21-.56.339-.854.51-.098-.039-.184-.177-.328-.138-.109.059-.219.148-.338.176-.153.037-.314.027-.446.035-.259.231-.445.473-.558.81a.541.541 0 0 1-.364.343c-.162.048-.289.202-.335.38-.083.314-.27.51-.458.715-.271.059-.428.307-.607.521-.114.135-.228.273-.358.383-.099.085-.224.128-.339.19-.085.048-.176.085-.253.148-.208.17-.372.422-.632.496-.029.008-.05.046-.075.07l-.258.271c-.22.085-.42.001-.612.126l-.549.587-.762.057c-.181.204-.327.416-.511.564-.206.165-.444.271-.787.472-.066.088-.222.282-.363.49-.149.216-.378.272-.55.435a2.368 2.368 0 0 0-.348.396c-.111.161-.289.148-.41.273-.12.124-.213.295-.374.348-.186.06-.308.26-.508.298-.119.021-.232.116-.339.195-.214.157-.355.442-.628.501-.054.012-.101.089-.148.14-.142.157-.281.315-.421.472-.212.027-.321.233-.459.387-.141.157-.276.321-.419.475-.117.126-.223.267-.388.323-.084.028-.155.126-.222.204-.365.432-.725.87-1.087 1.303-.227.27-.456.537-.667.785-.158.009-.286.046-.45-.082l-.203-.285c.013-.095.01-.175.036-.24.123-.305.247-.611.382-.909.045-.099.122-.178.191-.258.096-.112.112-.275.18-.396.062-.115.205-.162.297-.26.042-.044.046-.139.068-.213l.837-1.074c.11-.214.141-.353.212-.395.113-.067.233-.111.326-.224.292-.356.585-.711.881-1.062.133-.16.271-.303.452-.408a1.12 1.12 0 0 0 .514-.65c.068-.235.253-.206.37-.323.141-.155.267-.331.4-.497.134-.166.266-.336.413-.481.156-.154.159-.411.298-.576.202-.242.427-.465.498-.823.095-.101.179-.222.285-.298.08-.058.192-.076.218-.193.061-.28.303-.407.38-.651.064-.203.145-.3.312-.367.111-.045.183-.21.286-.297.127-.107.277-.175.401-.284.102-.089.183-.214.271-.326.111-.139.099-.359.233-.491.123-.12.225-.271.338-.408.06-.074.067-.131.002-.185-.357-.127-.744-.016-1.071-.073l-1.289-.761-.607-.752v-.802c.142-.388.446-.467.688-.628.161-.108.37-.088.552.004.161.126.265.343.449.396h.863l.275-.196 1.041-.03c.077-.058.152-.135.239-.174.086-.038.185-.033.276-.057a.435.435 0 0 0 .175-.076c.243-.202.474-.179.695.029.251-.152.544-.228.675-.576.022-.223-.025-.46.082-.668.24-.116.461-.248.525-.595.011-.06.079-.106.122-.159l.287-.017c.185-.148.383-.254.61-.272l.454-.424h.654c.069-.058.13-.093.173-.148.283-.371.611-.653 1.018-.799.116-.042.197-.18.326-.228.244-.092.365-.432.639-.478.027-.005.053-.042.075-.068.09-.108.182-.204.227-.362.083-.299.279-.483.488-.639l.178.136c.12-.125.238-.239.289-.441.058-.225.181-.399.389-.456a.515.515 0 0 0 .35-.358c.053-.195.133-.337.249-.472.114-.133.217-.281.295-.386.071-.223.006-.443.157-.578.21-.1.231-.093.269-.269.041-.189.146-.227.275-.258.029-.007.053-.041.079-.063.245-.235.425-.577.756-.674.131-.166.269-.326.39-.503.032-.047.042-.169.015-.214a1.411 1.411 0 0 1-.186-.64c-.012-.139-.109-.268-.161-.386l-.028-1.036-.111-.223c.027-.212.161-.381.155-.622-.003-.135.096-.274.164-.445v-2.385c-.034-.071-.059-.143-.097-.204a.358.358 0 0 1 .001-.414c.037-.06.06-.134.088-.197v-.346l-.172-.368c-.015-.345.016-.663-.199-.92v-1.463c-.079-.193-.215-.329-.197-.54.019-.211-.097-.355-.171-.521v-.345l.138-.3c-.062-.131-.154-.247-.144-.415.011-.207-.078-.367-.175-.535-.013-.645-.039-1.299-.031-1.951.003-.253-.105-.434-.171-.643l-.03-.796-.156-.314c-.015-.375-.028-.757-.04-1.086l-.159-.349c-.011-.273-.022-.542-.031-.805l-.172-.344v-.765c.001-.077-.006-.159.013-.229.019-.066.058-.145.106-.17.05-.028.121.003.163.006.376.249.495.7.671 1.101-.035.36.249.621.208.983.057.134.136.263.164.406.037.184.031.381.044.559l.156.308c-.021.393.211.708.231 1.093.005.101.093.196.13.268l.09.704c.183.201.081.523.219.742.08.129.12.268.114.428-.007.207.185.333.175.519-.018.364.257.62.219.981.067.211.167.4.193.64.025.216.123.428.217.622.082.169.153.328.155.53.002.235.22.377.19.635-.024.207.166.334.171.52.006.246.111.426.183.636.093.275.289.518.237.853l.158.305.058.899c.212.262.086.687.322.953v1.29c-.218.249-.152.615-.192.949a35.83 35.83 0 0 1-.169.324l-.029 1.068c-.154.275-.237.514-.084.782.137-.154.167-.384.273-.563.107-.18.136-.424.232-.615.097-.196.233-.363.353-.542l.023-.367c.226-.256.155-.625.208-.986l.315-.399.402-.513.033-1.316.133-.339c-.123-.179-.177-.343-.05-.531.039-.057.064-.131.102-.211v-1.005l.174-.369c.034-.318-.034-.589.038-.852l.307-.442-.09-.298.303-.438.066-.448.355-.519v-.817l.159-.31c.007-.076.019-.152.02-.228.001-.239.134-.317.296-.368.027-.009.043-.055.06-.076.055-.183-.004-.397.141-.539l.177-.069c.081-.162.15-.335.246-.481.12-.179.261-.335.38-.485l.071-.474c.021-.029.04-.074.066-.082.228-.076.383-.237.48-.502.115-.31.251-.609.385-.93v-.309c.055-.153.185-.241.17-.457-.03-.066-.078-.163-.116-.265-.041-.107-.05-.213.017-.32.035-.055.052-.128.078-.193-.213-.247-.091-.587-.166-.875l-.166-.312v-1.463a81.07 81.07 0 0 1-.203-.451v-3.525l-.362-.555-.028-.38-.364-.548v-1.907c-.068-.164-.125-.296-.177-.433-.012-.031-.002-.076-.002-.111l.154-.295.029-.639.174-.315v-.563c-.06-.195-.217-.325-.146-.547l.338-.514v-.601l-.166-.311-.014-.343c.044-.094.106-.187.133-.292.037-.144.048-.297.072-.459l.154-.275c-.079-.457-.283-.831-.538-1.17l-.027-.586-.183-.431v-1.905l-.175-.33c-.023-.673-.045-1.361.012-2.021.128-.174.221-.338.343-.456.157-.152.173-.406.321-.56l.471-.029c.252-.158.501-.316.769-.483h.431l.267-.21.289-.026.334-.223h.452l.28-.223h2.147c.182-.079.299-.247.469-.228.166.019.278-.144.424-.165l.18.126c.221-.275.514-.431.775-.63.322-.019.641.004.953-.066.206-.266.484-.14.722-.208l.242-.207c.089-.007.19.008.279-.025.118-.045.226-.125.336-.189l1.048-.04c.198-.189.392-.266.599-.032.079-.057.159-.113.264-.186h1.001c.141-.081.251-.181.369-.201a.936.936 0 0 0 .445-.168c.159-.12.333-.2.472-.369.246-.299.47-.63.763-.862h.68c.413.351.419.314.903 1.328v1.457l-.472 1.086-.243.125-.311.364-.341.406c-.091.111-.13.254-.185.392-.067.17-.156.325-.213.506-.043.138-.135.252-.169.406-.023.106-.095.198-.148.305l-.037 1.061-.157.36-.04 1.279-.148.306-.035.682c-.139.551-.284.833-.49 1.085-.125.153-.172.399-.255.602.026.373-.195.634-.308.941-.068.183-.087.363-.109.572-.174.249-.383.493-.538.778-.151.281-.207.624-.279.923-.123.166-.24.292-.408.321-.022.028-.055.052-.065.085-.136.473-.317.913-.66 1.222-.14.127-.119.351-.221.498-.112.158-.108.354-.125.55l-.343.534c-.042.312.013.624-.069.906l-.315.464-.054.671c-.066.098-.129.186-.186.277-.058.091-.111.184-.153.257l-.042.393c-.098.125-.208.264-.316.406-.121.158-.384.63-.404.884-.026.321-.185.561-.272.841-.087.279-.21.548-.331.814-.077.17-.183.332-.335.389-.194.075-.23.238-.23.437-.001.208-.199.312-.189.513.021.358-.239.623-.208.99.008.09-.091.195-.147.303-.065.986.015 1.986-.037 2.941l-.171.335v.547c.047.171.173.267.157.437-.081.244-.21.474-.147.756.048.1.097.199.147.299.013.535.019 1.071.049 1.572.251.363.113.776.195 1.17.253.362.528.736.848 1.034l.506.027c.135.066.256.187.413.245.145.053.264.205.437.187.174-.016.278.171.429.226l.65.04.259.187.48.034c.19.143.393.234.622.249l.661.65c.27.047.375.397.632.488.243.085.366.429.635.485.232.203.363.407.631.984-.029.061-.051.132-.089.184-.129.176-.357.25-.513.159-.169-.099-.352-.184-.496-.324-.166-.161-.368-.07-.541-.184-.44-.292-.893-.555-1.369-.847h-3.114l-.304.211-1.248.036c-.069.047-.098.064-.124.085-.109.091-.22.155-.346.043-.165-.146-.345-.174-.57-.084l-.544.604-.553.06c-.44.479-.438.485-1.098.895-.135.083-.146.229-.201.35l-.721.938v1.25c-.152.329-.305.623-.379.949a3.625 3.625 0 0 1-.154.527c-.226.58-.464 1.153-.71 1.733l-.833 1.04c-.059.224-.016.429-.131.589-.113.157-.097.358-.112.574l-.501.66c-.138.347-.273.689-.428 1.075l-.031.996c-.056.125-.115.258-.181.402v1.003l-.173.335v1.025c-.052.1-.113.191-.153.293a.366.366 0 0 0 .027.321c.048.091.075.202.104.285a66.28 66.28 0 0 1-.164.413c.019.288-.063.571.118.797l-.116.365c.011.926-.077 1.922.014 2.895l.328.274c.028.336.341.453.402.752.02.158.015.306.08.452.268.597.504 1.215.753 1.823.108.268.176.581.401.77a.29.29 0 0 1 .095.189c-.002.245.082.445.194.636-.027.339.143.557.298.809.205.331.327.73.473 1.105-.042.335.183.558.247.849.024.107.116.191.137.297.036.184.037.369.133.542.102.187.163.408.247.624l.036 1.027.154.295.042.629.168.356v.555c.094.173.206.318.192.529-.014.208.114.35.171.52l.027.805c.052.106.102.204.173.345.004.379.014.801.011 1.223 0 .063-.056.126-.098.211h-.384c-.091-.133-.216-.263-.284-.427-.512-1.214-.977-2.456-1.524-3.648-.045-.098-.052-.233-.114-.307-.273-.327-.369-.802-.652-1.079-.014-.152 0-.281-.039-.378-.07-.17-.179-.316-.194-.516-.17-.229-.339-.46-.509-.691a2.762 2.762 0 0 0-.595-1.388c-.018-.155.002-.334-.061-.448-.12-.224-.156-.505-.336-.688-.096-.098-.171-.229-.266-.331-.127-.137-.106-.361-.218-.5-.063-.077-.134-.143-.199-.212-.331.292-.505.694-.645 1.123v1.7l.162.319c.006.12-.016.252.023.347.152.375.309.749.549 1.031l.031.597.193.408v.532c.067.139.113.239.159.336l.028 1.28.155.306.039.627c.188.147.156.502.328.742.055.078.036.215-.034.315-.04.058-.064.13-.095.197.011.073.014.15.035.217.024.071.076.127.098.199.023.068.025.147.037.221l.038.224c.117.177.236.354.338.51v2.006l-.14.28c.036.07.078.133.1.203a.768.768 0 0 1 .034.221c.004.306.001.614.001.902l-.158.31c-.025.172.053.294.128.418l-.138.301v.346l.145.29-.143.287c0 .623-.001 1.239.002 1.856.001.072.028.144.043.215l.094.191-.146.298v1.494c.056.109.107.208.175.344.003.229.007.498.008.765 0 .035-.018.071-.024.098l-.156.299v.572c.044.147.172.24.158.453-.032.065-.084.157-.125.257-.027.067-.028.149-.055.216-.043.101-.111.19-.145.296a.8.8 0 0 0-.001.447c.026.098.131.161.087.29-.073.157-.244.235-.252.43l.793.989c.142.047.27.076.298.266.028.186.161.216.299.27l.738.829c.206.079.416.03.556.229.267.096.494.343.811.318.47.558.949 1.123 1.425 1.69.114.135.232.268.329.419.075.115.119.256.178.385h.319l.42-.411c.154-.056.251.048.367.15.133-.055.248-.208.414-.187.136.016.24-.078.345-.166.115-.096.245-.052.368-.063l.242.177.441-.423h.654l.285-.219h.627c.178-.071.296-.201.456-.252.11-.036.186-.204.292-.288.155-.128.318-.245.486-.346.083-.05.18-.049.265.039.042.043.137.097.152.078.195-.24.508-.079.706-.313.1-.118.242-.059.372-.067l.238.172.262-.18h.852c.077.063.157.125.266.212.478.042.984.002 1.447.003.123-.092.205-.152.294-.22h.459l.253.198.366.063.252.202c.116-.012.247-.006.302-.035.236-.123.315-.368.514-.436.209-.072.385-.242.623-.244.11 0 .22-.132.35-.218h.567c.217-.12.368-.181.499-.282.133-.102.246-.243.364-.363l.374-.075c.307-.254.367-.697.557-1.04.33-.111.524-.399.67-.728l.035-.568.163-.315.021-.575c.064-.136.125-.269.176-.382v-.585a44.973 44.973 0 0 0-.175-.334v-.79l.171-.377.025-.605.567-.746v-1.039l.18-.35v-.735c.169-.362.229-.757.5-.997l.457-1.116c-.005-.364.205-.627.299-.946.02-.071.05-.137.077-.206l.032-.553c.228-.279.125-.693.327-.959l.067-.677.146-.298.026-.582.149-.309.056-.673.252-.328.222-.017.26.356c0 .368.026.747-.011 1.117l-.146.31-.031 2.665c-.046.096-.099.193-.142.294-.037.091.005.289.073.301.215.037.332.209.452.436 0 .742.001 1.51-.002 2.279 0 .074-.019.148-.027.206l-.138.311c0 .432-.001.856.002 1.279.001.031.035.061.055.091.025.016.051.038.077.043.031.008.075.018.094-.002.144-.147.298-.288.421-.459.124-.17.176-.4.275-.595.059-.118.04-.293.059-.466l.984-1.187c.254-.059.477-.08.655-.264l.496-.047c.061-.054.138-.12.213-.192.098-.092.169-.219.31-.251.183-.042.314-.27.527-.218.069.016.118-.027.175-.073.232-.195.513-.299.692-.585.219-.347.543-.517.858-.736h.462c.054.044.113.079.158.13.19.216.263.515.355.794a.548.548 0 0 1-.02.334c-.303.748-.615 1.49-.928 2.232a1.195 1.195 0 0 1-.153.285c-.268.33-.524.681-.822.965-.218.206-.496.321-.748.475-.056.034-.113.064-.208.117h-.605c-.144.139-.292.229-.332.436-.034.252.085.439.184.636.004.302.056.609-.041.899-.221.158-.467.266-.538.607a.445.445 0 0 1-.105.187c-.329.372-.522.846-.718 1.326-.22.542-.434 1.09-.698 1.66v.781c-.126.169-.236.365-.383.505-.189.18-.179.488-.347.676-.14.156-.264.333-.384.487l-.065.471c-.089.118-.187.222-.257.349a2.618 2.618 0 0 0-.215.503 1.791 1.791 0 0 1-.427.743c-.072.075-.132.167-.187.238-.155.471-.414.873-.451 1.384l-.355.545v.562l-.332.492c-.068.291.015.526-.078.754l-.326.432-.05.659-.16.299-.023.58c-.053.136-.146.271-.15.409-.006.248-.089.432-.2.627-.087.154-.129.344-.206.56v.513c-.134.238-.278.453-.153.793l.45.525.388-.032.763-.872c.221-.005.326-.248.527-.289.144-.029.258-.236.431-.203.209.04.324-.249.53-.201l.266.195c.2 0 .423-.01.645.003.222.012.446-.023.671.06.201.234.474.15.708.203.209.14.367.324.502.594-.2.089-.113.422-.318.529-.063.01-.126.031-.189.028-.104-.004-.185.06-.26.127-.111.097-.239.092-.364.107-.161.02-.261.222-.434.213-.062-.003-.127.013-.202.021l-.478.451c-.218-.117-.383.119-.601.22l-.863.037-.308.314c.395.469.777.927 1.156 1.387.022.027.047.064.075.068.243.038.376.27.543.441.195.199.383.408.517.662.095.372-.053.597-.299.772-.281.058-.568.005-.853.024-.214.014-.355-.151-.526-.211a44.333 44.333 0 0 1-.43-.038l-.726-.427a89.036 89.036 0 0 0-.471-.038c-.207-.302-.567-.13-.784-.386l-.605-.094c-.099-.194-.307-.15-.486-.217-.207-.077-.402-.216-.589-.352-.193-.139-.438-.06-.62-.259-.086-.094-.235-.098-.333-.204-.114-.123-.229-.089-.343.009-.052.043-.108.079-.176.129h-.457a143.12 143.12 0 0 0-.436-.431 26.286 26.286 0 0 0-.306-.052c-.252-.144-.336-.409-.539-.438-.222-.032-.167-.298-.38-.524.005.006-.093-.097-.17-.218-.105-.164-.285-.163-.401-.296-.138-.159-.266-.336-.42-.471-.151-.133-.351-.17-.501-.345h-.645c-.204-.164-.417-.214-.638-.231l-.254-.209-1.035-.03-.317-.191-.674-.044-.3-.221c-.146.151-.386-.132-.573.157.103.041.196.062.276.115.109.072.2.194.338.186.134-.008.24.065.352.145.216.153.498.089.703.303.039.042.123.027.187.026.141-.004.225.134.363.202l.453.034c.337.194.647.468 1.035.498.199.191.393.381.63.506.112.06.238.112.336.196.18.157.341.349.498.539.201.243.428.46.559.785v.333c-.066.109-.169.181-.246.125-.189-.136-.42-.19-.573-.39-.178-.234-.451-.274-.642-.478-.27.028-.481-.175-.703-.298-.205-.114-.397-.233-.627-.211-.174.017-.288-.142-.481-.223h-3.087l-.322-.224c-.435.122-.786-.265-1.192-.454l-.422-.033c-.241-.159-.424-.338-.631-.401-.267-.082-.381-.408-.646-.49l-1.42-.03c-.057-.046-.108-.095-.165-.13-.222-.136-.494-.097-.708-.291-.065-.059-.185-.031-.282-.044-.281-.308-.592-.554-.97-.652-.191.209-.448.27-.655.427l-.475.027-.251.196c-.284.012-.57.017-.856.04-.052.004-.099.079-.15.121l-.05.427c-.133.242-.351.388-.367.687-.168.234-.253.524-.371.792l-.023.343-.15.3c-.062.998-.009 1.999-.013 2.999 0 .073-.022.146-.033.205l-.149.301v.567l.132.295-.149.314v1.718l-.176.308c-.038.522.028 1.061-.042 1.557l-.119.231.089.291c-.035.064-.078.125-.103.194a.692.692 0 0 0-.04.222c.002.384.013.769.015 1.154 0 .075-.023.149-.029.191-.054.123-.094.218-.134.312.23.253.139.587.188.876l.164.313v.76c.063.203.216.331.172.546-.053.099-.106.195-.165.301v.573c.039.173.2.299.157.514l-.163.286c-.054.377.042.764-.04 1.122l-.341.257v2.157l-.201.452v.785l-.178.323v1.266l.163.38v.335l-.16.321v.791c.063.175.121.352.19.52.113.272.378.422.422.753.004.034.032.067.055.093.114.134.213.308.35.387.175.102.316.245.471.374.18.15.383.257.601.399h1.783l.454.439.306.038c.472.502 1.09.721 1.625 1.121l.478.027.309.209c.311.012.596.022.829.032l.754.438h.585c.164.099.274.174.389.235.144.075.262.205.424.251.116.032.193.186.326.224.152.043.27.181.424.245.235.099.358.436.627.495l.349.365c.232.056.456.074.64.251l.475.033.33.218h.841l.26.206c.097.013.227-.018.282.045.241.274.546.162.811.237l.249.177.349.042c.145.312.466.414.736.605.163.115.336.199.467.375.106.141.229.265.337.388.468 0 .914.003 1.361-.003.06 0 .119-.039.192-.065l.54-.595.408-.068.561-.624c.097-.013.191-.027.285-.038.093-.01.188-.016.27-.023.215-.187.48-.251.648-.497.085-.124.214-.15.329-.215.17-.096.352-.192.484-.345.189-.219.422-.342.642-.479.169-.106.327-.217.479-.353.277-.247.661-.431 1.192-.633.118-.045.218-.165.336-.199.153-.045.306-.052.448-.167.153-.126.346-.17.473-.361.099-.148.227-.269.354-.416.482.035.809-.347 1.171-.667l1.233-.036c.087-.057.165-.13.254-.162.119-.043.246-.055.403-.087.343-.539.873-.808 1.407-1.119l.5-.034c.111-.26.358-.176.571-.227l.561-.625c.265-.073.421-.328.611-.528.141-.151.258-.342.432-.426l.289-.036c.203-.128.325-.375.549-.462A.588.588 0 0 0 .9-4.668c.057-.194.164-.326.274-.462.2-.249.399-.499.611-.733.286-.316.482-.705.683-1.142-.059-.184.065-.423-.1-.689-.142.202-.365.206-.547.35-.181.144-.447.031-.61.26l-.564.086-.247.183H.113l-.245-.169-.24.168-.675.037-.222.139c-.135-.061-.256-.105-.369-.17-.111-.065-.214-.154-.272-.197-.28-.043-.506.007-.726-.078a3.68 3.68 0 0 0-.625-.499c-.217-.147-.334-.459-.571-.586-.064.02-.129.026-.183.059-.195.119-.385.251-.582.37-.195.119-.422.19-.586.353-.172.171-.377.045-.568.191-.087.11-.21.237-.303.39-.092.151-.16.325-.227.494-.095.24-.171.493-.357.662-.101.282-.232.535-.429.741-.168.176-.312.386-.473.573-.091.106-.183.242-.295.284-.199.074-.3.281-.46.398-.161.116-.337.205-.531.321h-.626a.787.787 0 0 1-.338-.411c.007-.278.158-.485.261-.714.043-.096.126-.203.208-.23.375-.128.547-.476.715-.854.077-.172.158-.328.15-.529-.008-.207.196-.318.177-.518-.027-.258.123-.425.2-.677v-.682c.08-.212.151-.344.18-.488.134-.681.286-.995.666-1.325.267-.06.408-.355.638-.498l.285-.035c.147-.072.256-.213.36-.359.191-.274.483-.343.72-.526a.713.713 0 0 0 .446-.161c.154-.126.336-.201.533-.315h.436l.258-.199c.286-.016.286-.016.64.193h.44l.283.232c1.053-.003 2.134.034 3.16-.002.219-.146.404-.228.542-.374.16-.169.36-.266.51-.447-.136-.193-.145-.426-.172-.668a65.817 65.817 0 0 1-.347-.514l-.022-.361c-.05-.097-.102-.194-.16-.303-.009-.215-.021-.443-.03-.614-.058-.193-.181-.292-.153-.471l.173-.416v-.728l.377-.866-.175-.423v-.57l.171-.366c-.012-.268.048-.51-.081-.711-.073-.114-.046-.201.015-.292.069-.102.064-.214.025-.321-.038-.103-.095-.197-.137-.283v-.348l.147-.26c.072-.259-.094-.382-.147-.592v-2.844l.165-.301c-.006-.074-.002-.153-.022-.221-.022-.07-.068-.13-.105-.199l.33-.806v-.773a75.308 75.308 0 0 1-.127-.286l.278-.728c-.098-.171-.185-.336-.054-.524.049-.072.073-.138.038-.194-.077-.126-.141-.257-.13-.42.015-.212-.121-.344-.187-.525v-3.309l.202-.429v-.492c.097-.245.159-.419.235-.583.092-.201.278-.321.333-.556.028-.121.098-.177.193-.225.243-.123.402-.369.558-.61.036-.586.036-.586.21-1.019v-4.891l.162-.336c.024-.458-.004-.919.065-1.39.072-.077.141-.156.215-.228.081-.078.175-.075.26.001a.783.783 0 0 1 .246.349l.027.341c.047.098.096.198.162.329l.032 1.982.159.361c-.003 1.806.047 3.615-.002 5.4l-.167.345v1.013l.166.414.037.794.156.305c-.008.278.091.514.194.751l.03.56c.051.154.158.256.166.424a.909.909 0 0 0 .06.33c.127.263.217.545.319.821-.014.354.248.613.229.978-.005.093.092.195.153.313v2.638c-.088.267-.296.514-.115.839.28-.128.322-.42.339-.734.058-.085.117-.176.179-.263.064-.087.131-.169.196-.255.055-.075.36-.691.351-.789-.022-.258.127-.425.195-.633.012-.304.028-.609-.125-.863.044-.109.118-.209.122-.313.024-.499.029-.999.04-1.493.038-.07.069-.137.108-.198.086-.135.042-.298.071-.444.035-.181.191-.313.148-.531l-.149-.286c-.01-.195-.023-.386.087-.552.099-.15.114-.35.215-.507.094-.148.157-.329.209-.507.042-.141.019-.314.073-.442.071-.169.144-.337.217-.504.076-.172.151-.329.148-.531a.459.459 0 0 1 .056-.212c.18-.315.267-.685.426-1.012.032-.065.053-.137.079-.204l.03-.538c.198-.298.236-.673.482-.886.065-.253.222-.457.261-.725.016-.111.017-.22.065-.33.203-.469.397-.943.587-1.421.153-.384.341-.728.673-.95h.307l.281.38v1.063l-.155.316c-.01.189-.022.381-.034.571-.067.21-.216.381-.188.638.017.165-.109.27-.162.422-.04.322.012.685-.212.963v.521c-.079.19-.18.327-.178.462.003.254-.124.428-.209.679v.733l-.174.35-.039 1.084c-.248.369-.112.782-.194 1.14a68.74 68.74 0 0 1-.152.297c-.02.232.007.465-.045.626l-.147.357-.036 2.412-.171.323v.857c-.163.1-.132.379-.26.545-.148.192-.063.459-.17.64-.119.202-.137.419-.171.645-.015.105-.096.196-.144.288-.054.3.025.629-.169.883l-.07.681-.144.29c-.037.309.016.62-.063.919l-.324.478-.04 1.089-.154.327c-.013.496-.025.997-.036 1.504-.231.345-.202.696.02 1.071v2.601l.164.333.048.853c.069.152.146.249.153.354.015.236.051.45.178.641.028.042.009.152-.014.215-.039.103-.1.194-.146.278v.803l.18.36c-.017.26.054.563-.02.864-.065.131-.165.241-.145.415.108.228.226.456.142.741l-.348.521v.585l-.168.301c-.03.169.039.296.123.424l-.145.303v.523c.043.215.206.341.164.553l-.156.295c-.122.309.101.505.188.824v2.079l.178.339v.563l-.178.395.014.353c.052.103.104.2.148.302.012.03.002.075.002.119l-.317.796c.041.059.078.122.122.176.054.068.111.088.151.051a.158.158 0 0 0 .048-.096c.011-.114.013-.23.018-.349l.162-.3.049-.631c.18-.396.351-.755.391-1.183.009-.102.101-.192.15-.279l.042-.432.219-.277c.065-.084.128-.169.137-.293.014-.169.113-.275.212-.366.142-.131.385-.123.393-.431.132-.102.285-.178.391-.31.16-.2.408-.232.548-.436.174-.251.438-.3.637-.485.113.057.231.105.337.174.081.054.155.127.222.205.067.08.121.172.141.294.031.182.199.306.158.522l-.161.32v.751c-.07.169-.144.297-.18.44-.189.739-.21.796-.513 1.19-.151.196-.298.398-.447.599-.024.299-.288.418-.358.659-.076.271-.234.45-.358.667-.009.015.012.054.018.082.187.128.287-.078.428-.162l.696-.048c.129-.091.21-.149.282-.198l.502-.034c.126-.096.256-.212.427-.199.172.012.283-.158.436-.214h.656l.255.189.473.039.501.327c.064.18.08.358-.015.538-.083.159-.158.324-.235.483-.106.016-.204.014-.293.051-.118.049-.222.156-.342.187-.153.04-.316.031-.471.042l-.259.191-.915.051c-.235.253-.504.178-.72.223-.14.081-.254.146-.366.214-.113.067-.219.159-.337.201-.119.042-.257-.003-.364.105-.099.103-.235.117-.337.196-.134.106-.287.161-.42.26a1.976 1.976 0 0 1-.339.194c-.119.057-.199.187-.256.328.024.024.048.067.074.07.187.021.374.034.539.048l.263.204c.094.006.19.02.286.017a.52.52 0 0 1 .359.112.507.507 0 0 0 .265.107c.257.017.446.314.721.246.17.182.408.197.588.361.097.089.226.128.33.211.209.17.339.448.587.577.266.139.434.441.648.669.094.1.173.214.309.257.248.079.352.446.633.484.053.006.105.085.147.142.259.351.595.558.938.754.085.048.161.118.239.182.155.129.308.26.474.4l.185.484c-.106.123-.244.119-.359.07" style="fill:#1e103b;fill-opacity:1;fill-rule:nonzero;stroke:none" transform="translate(505.376 327.63)"/></g></svg>